<?xml version="1.0" encoding="UTF-8"?>
<!DOCTYPE svg PUBLIC "-//W3C//DTD SVG 1.0//EN" "http://www.w3.org/TR/2001/REC-SVG-20010904/DTD/svg10.dtd">
<!-- Creator: CorelDRAW 2021 (64 Bit) -->
<svg xmlns="http://www.w3.org/2000/svg" xml:space="preserve" width="266.781mm" height="76.5686mm" version="1.0" style="shape-rendering:geometricPrecision; text-rendering:geometricPrecision; image-rendering:optimizeQuality; fill-rule:evenodd; clip-rule:evenodd"
viewBox="0 0 25693.9 7374.39"
 xmlns:xlink="http://www.w3.org/1999/xlink"
 xmlns:xodm="http://www.corel.com/coreldraw/odm/2003">
 <defs>
  <style type="text/css">
   <![CDATA[
    .fil0 {fill:#3E4095}
    .fil1 {fill:#3E4095;fill-rule:nonzero}
   ]]>
  </style>
 </defs>
 <g id="Camada_x0020_1">
  <metadata id="CorelCorpID_0Corel-Layer"/>
  <g id="_2977844324912">
   <path class="fil0" d="M4406.05 0l7420.82 0 0 7374.39 -7420.82 0 0 -7374.39zm190.89 189.71l7039.04 0 0 6994.97 -7039.04 0 0 -6994.97z"/>
   <polygon class="fil1" points="3320.67,1977.69 1940.47,1977.69 1940.47,6254.93 1380.19,6254.93 1380.19,1977.69 -0,1977.69 -0,1472.06 3320.67,1472.06 "/>
   <polygon class="fil1" points="15176.35,6254.93 12641.43,6254.93 12641.43,1472.06 15067.03,1472.06 15067.03,1977.69 13201.71,1977.69 13201.71,3569.69 14930.37,3569.69 14930.37,4075.31 13201.71,4075.31 13201.71,5749.31 15176.35,5749.31 "/>
   <path class="fil1" d="M17088.84 6063.61l0 -662.77c75.16,67.19 166.26,126.41 272.16,179.93 104.77,53.52 216.37,99.07 332.52,135.52 117.3,36.43 233.45,64.9 351.88,85.41 117.3,19.36 226.62,29.61 326.83,29.61 343.91,0 601.27,-63.78 770.95,-191.31 169.68,-127.54 255.09,-312.03 255.09,-551.17 0,-129.83 -28.47,-241.42 -85.41,-337.08 -55.8,-95.66 -134.37,-183.35 -234.58,-261.92 -100.22,-79.72 -218.64,-154.88 -355.3,-227.76 -136.66,-71.75 -283.56,-148.05 -440.71,-227.76 -167.4,-85.41 -322.28,-170.82 -466.9,-257.37 -144.63,-86.54 -269.89,-182.2 -376.94,-286.97 -105.9,-104.77 -190.18,-223.2 -251.67,-355.3 -60.35,-133.24 -91.1,-288.1 -91.1,-465.76 0,-218.64 47.83,-407.67 143.48,-569.39 95.67,-161.71 220.93,-294.94 376.94,-398.56 156.01,-104.77 332.52,-183.35 531.81,-234.59 199.29,-51.25 401.98,-76.3 609.24,-76.3 471.45,0 815.37,56.94 1030.59,170.82l0 628.6c-282.42,-195.87 -644.55,-293.8 -1087.53,-293.8 -121.85,0 -243.7,12.52 -366.68,38.72 -121.85,25.05 -231.17,67.19 -326.83,125.26 -95.66,58.08 -173.09,133.24 -233.45,224.34 -60.36,91.1 -89.96,202.71 -89.96,334.81 0,121.84 22.78,227.76 68.32,316.57 45.56,88.83 112.74,170.82 201.57,243.7 88.82,74.01 197,144.62 324.55,214.09 127.54,68.32 275.58,144.62 441.85,226.61 170.82,84.27 333.66,173.1 486.25,267.62 153.74,93.37 288.11,195.87 403.13,309.75 116.16,113.88 207.26,239.14 275.58,376.93 67.19,137.79 101.36,296.09 101.36,474.87 0,235.73 -45.56,435.02 -137.79,599 -92.25,162.85 -217.51,296.09 -373.52,398.57 -157.15,102.49 -338.21,176.51 -542.06,222.06 -204.98,45.55 -420.21,68.32 -646.82,68.32 -75.16,0 -168.54,-5.69 -280.14,-18.22 -111.6,-12.52 -224.34,-29.61 -340.5,-53.52 -115.01,-22.78 -224.34,-52.38 -327.97,-86.54 -103.63,-34.16 -185.62,-72.88 -248.25,-115.01z"/>
   <path class="fil1" d="M25693.9 6254.93l-621.76 0 -505.62 -1339.2 -2034.99 0 -479.43 1339.2 -621.77 0 1837.99 -4782.86 580.77 0 1844.81 4782.86zm-1309.59 -1844.81l-751.59 -2040.69c-25.06,-66.05 -51.25,-171.95 -77.44,-316.57l-14.8 0c-23.91,134.37 -50.1,241.41 -78.57,321.13l-743.63 2036.14 1666.03 0z"/>
   <polygon class="fil1" points="10160.67,6254.93 9600.39,6254.93 9600.39,4075.31 7126.96,4075.31 7126.96,6254.93 6566.68,6254.93 6566.68,1472.06 7126.96,1472.06 7126.96,3569.69 9600.39,3569.69 9600.39,1472.06 10160.67,1472.06 "/>
  </g>
 </g>
</svg>
