<?xml version="1.0" encoding="UTF-8"?>
<!DOCTYPE svg PUBLIC "-//W3C//DTD SVG 1.1//EN" "http://www.w3.org/Graphics/SVG/1.1/DTD/svg11.dtd">
<!-- Creator: CorelDRAW 2021 (64 Bit) -->
<svg xmlns="http://www.w3.org/2000/svg" xml:space="preserve" width="98.7949mm" height="20.0082mm" version="1.1" style="shape-rendering:geometricPrecision; text-rendering:geometricPrecision; image-rendering:optimizeQuality; fill-rule:evenodd; clip-rule:evenodd"
viewBox="0 0 2795.86 566.22"
 xmlns:xlink="http://www.w3.org/1999/xlink"
 xmlns:xodm="http://www.corel.com/coreldraw/odm/2003">
 <defs>
  <style type="text/css">
   <![CDATA[
    .str0 {stroke:#373435;stroke-width:2.16;stroke-miterlimit:22.9256}
    .fil1 {fill:none;fill-rule:nonzero}
    .fil0 {fill:#373435;fill-rule:nonzero}
   ]]>
  </style>
 </defs>
 <g id="Camada_x0020_1">
  <metadata id="CorelCorpID_0Corel-Layer"/>
  <polygon class="fil0" points="227.7,551.17 227.7,74.96 1.08,74.96 1.08,13.06 521.22,13.06 521.22,74.96 294.59,74.96 294.59,551.17 "/>
  <polygon id="_1" class="fil0" points="550.17,551.17 550.17,13.06 618.05,13.06 618.05,225.71 935.53,225.71 935.53,13.06 1002.42,13.06 1002.42,551.17 935.53,551.17 935.53,287.61 618.05,287.61 618.05,551.17 "/>
  <polygon id="_2" class="fil0" points="1165.32,551.17 1165.32,13.06 1588.62,13.06 1588.62,74.96 1232.2,74.96 1232.2,232.7 1447.85,232.7 1447.85,294.59 1232.2,294.59 1232.2,489.27 1610.58,489.27 1610.58,551.17 "/>
  <path id="_3" class="fil0" d="M1659 470.14l38.93 -57.74c38.1,29.45 77.71,51.91 118.8,67.55 41.1,15.47 81.86,23.3 122.13,23.3 49.75,0 90.19,-10.49 121.13,-31.62 31.12,-21.13 46.59,-48.25 46.59,-81.36 0,-26.29 -11.15,-47.92 -33.44,-64.89 -22.3,-16.97 -53.08,-27.12 -92.35,-30.45 -9.49,-1 -23.13,-2 -40.93,-2.83 -88.52,-6.32 -148.75,-16.64 -181.03,-31.28 -24.96,-12.15 -44.09,-27.62 -57.07,-46.59 -12.98,-19.13 -19.47,-40.43 -19.47,-64.23 0,-43.26 19.3,-78.87 58.07,-106.99 38.6,-27.95 88.85,-41.93 150.59,-41.93 44.93,0 89.19,7.32 132.95,22.13 43.76,14.81 85.36,36.77 124.63,65.73l-38.94 55.91c-33.28,-26.79 -68.05,-46.92 -104.66,-60.57 -36.61,-13.48 -74.21,-20.3 -112.81,-20.3 -40.6,0 -74.04,7.99 -100.5,23.79 -26.29,15.81 -39.43,35.61 -39.43,59.4 0,9.32 2.16,17.97 6.32,25.79 4.16,7.82 10.82,15.31 19.47,22.13 22.13,16.47 69.89,27.12 143.43,31.61 33.78,2 60.07,3.99 78.53,6.32 54.58,6.16 97.84,23.63 129.79,52.58 31.78,28.95 47.75,64.39 47.75,106.66 0,50.25 -21.8,91.68 -65.56,124.13 -43.76,32.45 -101.17,48.75 -172.05,48.75 -53.58,0 -103.49,-7.82 -149.42,-23.3 -46.09,-15.64 -89.85,-39.43 -131.45,-71.71z"/>
  <path id="_4" class="fil0" d="M2381.64 343.51l236.94 0 -118.97 -238.27 -117.97 238.27zm-173.55 207.66l263.73 -538.11 55.57 0 266.73 538.11 -72.71 0 -73.05 -144.76 -297.34 0 -71.22 144.76 -71.71 0z"/>
  <polygon id="_5" class="fil1 str0" points="227.7,551.17 227.7,74.96 1.08,74.96 1.08,13.06 521.22,13.06 521.22,74.96 294.59,74.96 294.59,551.17 "/>
  <polygon id="_6" class="fil1 str0" points="550.17,551.17 550.17,13.06 618.05,13.06 618.05,225.71 935.53,225.71 935.53,13.06 1002.42,13.06 1002.42,551.17 935.53,551.17 935.53,287.61 618.05,287.61 618.05,551.17 "/>
  <polygon id="_7" class="fil1 str0" points="1165.32,551.17 1165.32,13.06 1588.62,13.06 1588.62,74.96 1232.2,74.96 1232.2,232.7 1447.85,232.7 1447.85,294.59 1232.2,294.59 1232.2,489.27 1610.58,489.27 1610.58,551.17 "/>
  <path id="_8" class="fil1 str0" d="M1659 470.14l38.93 -57.74c38.1,29.45 77.71,51.91 118.8,67.55 41.1,15.47 81.86,23.3 122.13,23.3 49.75,0 90.19,-10.49 121.13,-31.62 31.12,-21.13 46.59,-48.25 46.59,-81.36 0,-26.29 -11.15,-47.92 -33.44,-64.89 -22.3,-16.97 -53.08,-27.12 -92.35,-30.45 -9.49,-1 -23.13,-2 -40.93,-2.83 -88.52,-6.32 -148.75,-16.64 -181.03,-31.28 -24.96,-12.15 -44.09,-27.62 -57.07,-46.59 -12.98,-19.13 -19.47,-40.43 -19.47,-64.23 0,-43.26 19.3,-78.87 58.07,-106.99 38.6,-27.95 88.85,-41.93 150.59,-41.93 44.93,0 89.19,7.32 132.95,22.13 43.76,14.81 85.36,36.77 124.63,65.73l-38.94 55.91c-33.28,-26.79 -68.05,-46.92 -104.66,-60.57 -36.61,-13.48 -74.21,-20.3 -112.81,-20.3 -40.6,0 -74.04,7.99 -100.5,23.79 -26.29,15.81 -39.43,35.61 -39.43,59.4 0,9.32 2.16,17.97 6.32,25.79 4.16,7.82 10.82,15.31 19.47,22.13 22.13,16.47 69.89,27.12 143.43,31.61 33.78,2 60.07,3.99 78.53,6.32 54.58,6.16 97.84,23.63 129.79,52.58 31.78,28.95 47.75,64.39 47.75,106.66 0,50.25 -21.8,91.68 -65.56,124.13 -43.76,32.45 -101.17,48.75 -172.05,48.75 -53.58,0 -103.49,-7.82 -149.42,-23.3 -46.09,-15.64 -89.85,-39.43 -131.45,-71.71z"/>
  <path id="_9" class="fil1 str0" d="M2381.64 343.51l236.94 0 -118.97 -238.27 -117.97 238.27zm-173.55 207.66l263.73 -538.11 55.57 0 266.73 538.11 -72.71 0 -73.05 -144.76 -297.34 0 -71.22 144.76 -71.71 0z"/>
 </g>
</svg>
