<?xml version="1.0" encoding="UTF-8"?>
<!DOCTYPE svg PUBLIC "-//W3C//DTD SVG 1.1//EN" "http://www.w3.org/Graphics/SVG/1.1/DTD/svg11.dtd">
<!-- Creator: CorelDRAW 2021 (64 Bit) -->
<svg xmlns="http://www.w3.org/2000/svg" xml:space="preserve" width="71.8799mm" height="5.7058mm" version="1.1" style="shape-rendering:geometricPrecision; text-rendering:geometricPrecision; image-rendering:optimizeQuality; fill-rule:evenodd; clip-rule:evenodd"
viewBox="0 0 1395.1 110.74"
 xmlns:xlink="http://www.w3.org/1999/xlink"
 xmlns:xodm="http://www.corel.com/coreldraw/odm/2003">
 <defs>
  <style type="text/css">
   <![CDATA[
    .fil1 {fill:#FEFEFE}
    .fil0 {fill:#373435}
    .fil2 {fill:#373435;fill-rule:nonzero}
   ]]>
  </style>
 </defs>
 <g id="Camada_x0020_1">
  <metadata id="CorelCorpID_0Corel-Layer"/>
  <rect class="fil0" x="-0" y="46.79" width="1395.1" height="11.84"/>
  <g id="_1949613523008">
   <rect class="fil1" x="98.02" width="1206.29" height="110.74"/>
   <polygon class="fil2" points="162.57,86.87 162.57,28.08 134.59,28.08 134.59,20.44 198.8,20.44 198.8,28.08 170.82,28.08 170.82,86.87 "/>
   <polygon id="_1" class="fil2" points="202.38,86.87 202.38,20.44 254.63,20.44 254.63,28.08 210.63,28.08 210.63,47.56 237.26,47.56 237.26,55.2 210.63,55.2 210.63,79.23 257.35,79.23 257.35,86.87 "/>
   <path id="_2" class="fil2" d="M263.32 76.87l4.81 -7.13c4.7,3.64 9.59,6.41 14.67,8.34 5.07,1.91 10.11,2.88 15.08,2.88 6.14,0 11.13,-1.29 14.95,-3.9 3.84,-2.61 5.75,-5.96 5.75,-10.04 0,-3.25 -1.38,-5.92 -4.13,-8.01 -2.75,-2.09 -6.55,-3.35 -11.4,-3.76 -1.17,-0.12 -2.86,-0.25 -5.05,-0.35 -10.93,-0.78 -18.36,-2.06 -22.35,-3.86 -3.08,-1.5 -5.44,-3.41 -7.05,-5.75 -1.6,-2.36 -2.4,-4.99 -2.4,-7.93 0,-5.34 2.38,-9.74 7.17,-13.21 4.76,-3.45 10.97,-5.18 18.59,-5.18 5.55,0 11.01,0.9 16.41,2.73 5.4,1.83 10.54,4.54 15.39,8.11l-4.81 6.9c-4.11,-3.31 -8.4,-5.79 -12.92,-7.48 -4.52,-1.66 -9.16,-2.51 -13.93,-2.51 -5.01,0 -9.14,0.99 -12.41,2.94 -3.25,1.95 -4.87,4.4 -4.87,7.33 0,1.15 0.27,2.22 0.78,3.18 0.51,0.96 1.34,1.89 2.4,2.73 2.73,2.03 8.63,3.35 17.71,3.9 4.17,0.25 7.41,0.49 9.69,0.78 6.74,0.76 12.08,2.92 16.02,6.49 3.92,3.57 5.9,7.95 5.9,13.17 0,6.2 -2.69,11.32 -8.09,15.32 -5.4,4.01 -12.49,6.02 -21.24,6.02 -6.61,0 -12.78,-0.96 -18.45,-2.88 -5.69,-1.93 -11.09,-4.87 -16.23,-8.85z"/>
   <path id="_3" class="fil2" d="M352.53 61.24l29.25 0 -14.69 -29.41 -14.56 29.41zm-21.42 25.64l32.56 -66.43 6.86 0 32.93 66.43 -8.98 0 -9.02 -17.87 -36.71 0 -8.79 17.87 -8.85 0z"/>
   <path id="_4" class="fil2" d="M417.91 20.44l0 43.01c0,6.88 1.29,11.5 3.88,13.87 2.59,2.34 7.66,3.51 15.26,3.51 7.58,0 12.65,-1.17 15.22,-3.51 2.57,-2.36 3.84,-6.99 3.84,-13.87l0 -43.01 8.26 0 0 45.23c0,8.17 -2.12,14.05 -6.37,17.6 -4.25,3.55 -11.26,5.32 -20.99,5.32 -9.74,0 -16.74,-1.77 -20.99,-5.32 -4.25,-3.55 -6.37,-9.43 -6.37,-17.6l0 -45.23 8.26 0z"/>
   <path id="_5" class="fil2" d="M490.65 50.02l29.33 0c4.17,0 7.33,-0.92 9.47,-2.77 2.16,-1.83 3.23,-4.54 3.23,-8.11 0,-3.47 -1.07,-6.2 -3.23,-8.13 -2.13,-1.95 -5.15,-2.92 -9.06,-2.92l-29.74 0 0 21.94zm-8.26 36.85l0 -66.43 38.12 0c6.49,0 11.56,1.64 15.26,4.91 3.68,3.27 5.53,7.78 5.53,13.56 0,4.81 -1.44,8.91 -4.31,12.34 -2.9,3.43 -6.7,5.57 -11.42,6.41l16.6 29.21 -9.12 0 -16.62 -29.09 -25.78 0 0 29.09 -8.26 0z"/>
   <path id="_6" class="fil2" d="M585.45 80.83c7.45,0 13.64,-2.55 18.55,-7.64 4.89,-5.09 7.33,-11.56 7.33,-19.39 0,-7.85 -2.45,-14.34 -7.31,-19.43 -4.87,-5.09 -11.07,-7.64 -18.57,-7.64 -7.46,0 -13.64,2.57 -18.55,7.68 -4.89,5.11 -7.33,11.59 -7.33,19.39 0,7.83 2.44,14.3 7.33,19.39 4.91,5.09 11.09,7.64 18.55,7.64zm-0.02 7.77c-9.96,0 -18.18,-3.29 -24.65,-9.84 -6.47,-6.55 -9.72,-14.87 -9.72,-24.96 0,-10.11 3.25,-18.45 9.76,-25 6.49,-6.55 14.69,-9.84 24.61,-9.84 9.94,0 18.18,3.29 24.73,9.88 6.53,6.57 9.8,14.89 9.8,24.96 0,10.08 -3.27,18.4 -9.78,24.96 -6.51,6.55 -14.77,9.84 -24.75,9.84z"/>
   <path id="_7" class="fil2" d="M669.19 76.87l4.81 -7.13c4.7,3.64 9.59,6.41 14.67,8.34 5.07,1.91 10.11,2.88 15.08,2.88 6.14,0 11.13,-1.29 14.95,-3.9 3.84,-2.61 5.75,-5.96 5.75,-10.04 0,-3.25 -1.38,-5.92 -4.13,-8.01 -2.75,-2.09 -6.55,-3.35 -11.4,-3.76 -1.17,-0.12 -2.86,-0.25 -5.05,-0.35 -10.93,-0.78 -18.36,-2.06 -22.35,-3.86 -3.08,-1.5 -5.44,-3.41 -7.05,-5.75 -1.6,-2.36 -2.4,-4.99 -2.4,-7.93 0,-5.34 2.38,-9.74 7.17,-13.21 4.76,-3.45 10.97,-5.18 18.59,-5.18 5.55,0 11.01,0.9 16.41,2.73 5.4,1.83 10.54,4.54 15.39,8.11l-4.81 6.9c-4.11,-3.31 -8.4,-5.79 -12.92,-7.48 -4.52,-1.66 -9.16,-2.51 -13.93,-2.51 -5.01,0 -9.14,0.99 -12.41,2.94 -3.25,1.95 -4.87,4.4 -4.87,7.33 0,1.15 0.27,2.22 0.78,3.18 0.51,0.96 1.34,1.89 2.4,2.73 2.73,2.03 8.63,3.35 17.71,3.9 4.17,0.25 7.41,0.49 9.69,0.78 6.74,0.76 12.08,2.92 16.02,6.49 3.92,3.57 5.9,7.95 5.9,13.17 0,6.2 -2.69,11.32 -8.09,15.32 -5.4,4.01 -12.49,6.02 -21.24,6.02 -6.61,0 -12.78,-0.96 -18.45,-2.88 -5.69,-1.93 -11.09,-4.87 -16.23,-8.85z"/>
   <polygon id="_8" class="fil2" points="749.12,86.87 749.12,20.44 801.37,20.44 801.37,28.08 757.37,28.08 757.37,47.56 783.99,47.56 783.99,55.2 757.37,55.2 757.37,79.23 804.08,79.23 804.08,86.87 "/>
   <polygon id="_9" class="fil2" points="816.02,86.87 816.02,20.44 823.66,20.44 850.53,61.11 877.52,20.44 885.03,20.44 885.03,86.87 876.9,86.87 876.9,35.01 850.53,74.3 824.15,35.01 824.15,86.87 "/>
   <path id="_10" class="fil2" d="M915.93 61.24l29.25 0 -14.69 -29.41 -14.56 29.41zm-21.42 25.64l32.56 -66.43 6.86 0 32.93 66.43 -8.98 0 -9.02 -17.87 -36.71 0 -8.79 17.87 -8.85 0z"/>
   <polygon id="_11" class="fil2" points="976.94,86.87 976.94,20.44 981.27,20.44 1024.38,70.09 1024.38,20.44 1032.64,20.44 1032.64,86.87 1028.43,86.87 985.19,37.23 985.19,86.87 "/>
   <polygon id="_12" class="fil2" points="1064.05,86.87 1064.05,28.08 1036.07,28.08 1036.07,20.44 1100.28,20.44 1100.28,28.08 1072.31,28.08 1072.31,86.87 "/>
   <polygon id="_13" class="fil2" points="1103.98,86.87 1103.98,20.07 1112.36,20.07 1112.36,86.87 "/>
   <path id="_14" class="fil2" d="M1185.33 65.68l6.66 4.93c-3.04,5.77 -7.23,10.23 -12.53,13.33 -5.28,3.1 -11.3,4.66 -18.06,4.66 -9.94,0 -18.16,-3.29 -24.65,-9.84 -6.47,-6.55 -9.72,-14.87 -9.72,-24.96 0,-10.11 3.25,-18.45 9.74,-25 6.51,-6.55 14.71,-9.84 24.61,-9.84 6.14,0 11.75,1.34 16.8,4.03 5.05,2.69 9.16,6.53 12.32,11.5l-6.92 4.93c-2.07,-3.96 -5.09,-7.09 -9.02,-9.32 -3.92,-2.24 -8.32,-3.37 -13.17,-3.37 -7.46,0 -13.64,2.57 -18.53,7.68 -4.89,5.11 -7.33,11.59 -7.33,19.39 0,7.83 2.44,14.3 7.33,19.39 4.89,5.09 11.07,7.64 18.53,7.64 5.22,0 9.84,-1.29 13.89,-3.86 4.05,-2.57 7.39,-6.33 10.05,-11.3z"/>
   <path id="_15" class="fil2" d="M1235.86 80.83c7.45,0 13.64,-2.55 18.55,-7.64 4.89,-5.09 7.33,-11.56 7.33,-19.39 0,-7.85 -2.45,-14.34 -7.31,-19.43 -4.87,-5.09 -11.07,-7.64 -18.57,-7.64 -7.46,0 -13.64,2.57 -18.55,7.68 -4.89,5.11 -7.33,11.59 -7.33,19.39 0,7.83 2.44,14.3 7.33,19.39 4.91,5.09 11.09,7.64 18.55,7.64zm-0.02 7.77c-9.96,0 -18.18,-3.29 -24.65,-9.84 -6.47,-6.55 -9.72,-14.87 -9.72,-24.96 0,-10.11 3.25,-18.45 9.76,-25 6.49,-6.55 14.69,-9.84 24.61,-9.84 9.94,0 18.18,3.29 24.73,9.88 6.53,6.57 9.8,14.89 9.8,24.96 0,10.08 -3.27,18.4 -9.78,24.96 -6.51,6.55 -14.77,9.84 -24.75,9.84z"/>
  </g>
 </g>
</svg>
