<?xml version="1.0" encoding="UTF-8"?>
<!DOCTYPE svg PUBLIC "-//W3C//DTD SVG 1.1//EN" "http://www.w3.org/Graphics/SVG/1.1/DTD/svg11.dtd">
<!-- Creator: CorelDRAW -->
<svg xmlns="http://www.w3.org/2000/svg" xml:space="preserve" width="22.4181mm" height="31.8614mm" style="shape-rendering:geometricPrecision; text-rendering:geometricPrecision; image-rendering:optimizeQuality; fill-rule:evenodd; clip-rule:evenodd"
viewBox="0 0 3.25505 4.62619"
 xmlns:xlink="http://www.w3.org/1999/xlink">
 <defs>
  <style type="text/css">
   <![CDATA[
    .str1 {stroke:#28166F;stroke-width:0.011064}
    .str0 {stroke:#EF9BA0;stroke-width:0.011064}
    .str2 {stroke:#28166F;stroke-width:0.0290395}
    .fil4 {fill:none}
    .fil3 {fill:none;fill-rule:nonzero}
    .fil5 {fill:#1F1A17}
    .fil1 {fill:#28166F}
    .fil0 {fill:#F1E3D6}
    .fil2 {fill:#28166F;fill-rule:nonzero}
   ]]>
  </style>
 </defs>
 <g id="Camada_x0020_1">
  <metadata id="CorelCorpID_0Corel-Layer"/>
  <polygon class="fil0 str0" points="0.0252643,0.723969 1.19908,0.0144762 3.22038,0.0283425 3.22038,4.57533 0.0391307,4.56697 "/>
  <polygon class="fil1 str1" points="0.00553202,2.01578 0.305466,2.01578 0.305466,1.77033 0.00553202,1.77033 "/>
  <polygon class="fil1 str1" points="0.00553202,2.41624 0.305466,2.41624 0.305466,2.17079 0.00553202,2.17079 "/>
  <polygon class="fil1 str1" points="0.305466,2.80379 0.313801,2.80379 0.313801,2.55833 0.00553202,2.55833 0.00553202,2.57126 0.305466,2.57126 "/>
  <polygon class="fil1 str1" points="0.00553202,2.80379 0.305466,2.80379 0.305466,2.57126 0.00553202,2.57126 "/>
  <polygon class="fil1 str1" points="2.95828,2.01578 3.24165,2.01578 3.24165,1.77033 2.95828,1.77033 "/>
  <polygon class="fil1 str1" points="2.95828,2.41624 3.24165,2.41624 3.24165,2.17079 2.95828,2.17079 "/>
  <polygon class="fil1 str1" points="3.24165,2.80379 3.24952,2.80379 3.24952,2.55833 2.95828,2.55833 2.95828,2.57126 3.24165,2.57126 "/>
  <polygon class="fil1 str1" points="2.95828,2.80379 3.24165,2.80379 3.24165,2.57126 2.95828,2.57126 "/>
  <g id="_312498248">
   <path id="_312500408" class="fil1 str1" d="M0.670667 0.719453l0.846254 0 0 0.840969 -0.846254 0 0 -0.840969zm0.0217651 0.0216344l0.802724 0 0 0.7977 -0.802724 0 0 -0.7977z"/>
   <polygon id="_312500504" class="fil2" points="0.5974,0.899338 0.395735,0.899338 0.395735,1.43281 0.375205,1.43281 0.375205,0.899338 0.17354,0.899338 0.17354,0.878822 0.5974,0.878822 "/>
   <polygon id="_3125005041" class="fil3 str1" points="0.5974,0.899338 0.395735,0.899338 0.395735,1.43281 0.375205,1.43281 0.375205,0.899338 0.17354,0.899338 0.17354,0.878822 0.5974,0.878822 "/>
   <polygon id="_312500744" class="fil2" points="1.91255,1.15802 1.63478,1.15802 1.63478,1.41229 1.95138,1.41229 1.95138,1.43281 1.61426,1.43281 1.61426,0.878822 1.95138,0.878822 1.95138,0.899338 1.63478,0.899338 1.63478,1.13751 1.91255,1.13751 "/>
   <polygon id="_3125007441" class="fil3 str1" points="1.91255,1.15802 1.63478,1.15802 1.63478,1.41229 1.95138,1.41229 1.95138,1.43281 1.61426,1.43281 1.61426,0.878822 1.95138,0.878822 1.95138,0.899338 1.63478,0.899338 1.63478,1.13751 1.91255,1.13751 "/>
   <path id="_312500984" class="fil2" d="M2.47896 1.3001c0,-0.0236381 -0.0055901,-0.0436318 -0.0166251,-0.0599956 -0.011035,-0.0163637 -0.028299,-0.0307818 -0.0520678,-0.043385 -0.0237688,-0.0124579 -0.0596035,-0.0253224 -0.107519,-0.0385644 -0.0479297,-0.0131113 -0.0838951,-0.026484 -0.107795,-0.0400019 -0.0240156,-0.0133727 -0.0415555,-0.0289524 -0.0527212,-0.046739 -0.0111657,-0.0178012 -0.0167558,-0.0393485 -0.0167558,-0.0646709 0,-0.0403939 0.0170171,-0.0729907 0.0510369,-0.0979211 0.0339036,-0.0250611 0.0781743,-0.037519 0.132725,-0.037519 0.0355734,0 0.0673861,0.00688236 0.0956996,0.0207777 0.0283135,0.0137647 0.0501221,0.0332357 0.0655857,0.0581661 0.015449,0.0249449 0.0232461,0.0532439 0.0232461,0.0846791l-0.0205164 0c0,-0.0414248 -0.0152022,-0.0755898 -0.0457227,-0.102596 -0.0303753,-0.0270067 -0.0698545,-0.0405101 -0.118292,-0.0405101 -0.0486992,0 -0.0880477,0.0109043 -0.118176,0.0325968 -0.0299978,0.021678 -0.0450693,0.0488154 -0.0450693,0.0815429 0,0.0332502 0.0131258,0.0599956 0.0392178,0.0803813 0.0261065,0.0202696 0.0692156,0.0381869 0.129342,0.0537666 0.0601262,0.0155797 0.10415,0.0337584 0.132072,0.0542748 0.0354572,0.0261065 0.0532439,0.061041 0.0532439,0.104934 0,0.0279215 -0.00792778,0.0525905 -0.0236381,0.0740216 -0.0157104,0.0214311 -0.0380417,0.037911 -0.0668779,0.0495994 -0.0289524,0.0116884 -0.0614185,0.0175398 -0.0973839,0.0175398 -0.0401326,0 -0.076098,-0.006621 -0.108056,-0.0200082 -0.0320741,-0.013242 -0.0560898,-0.0322048 -0.0721921,-0.0568738 -0.0161024,-0.0245384 -0.0241608,-0.0536359 -0.0241608,-0.087133l0.0206471 0c0,0.0454468 0.0168865,0.0806426 0.0509062,0.105834 0.0340197,0.0250611 0.078305,0.0376642 0.132856,0.0376642 0.0484233,0 0.0882945,-0.0110495 0.11973,-0.0332502 0.0315514,-0.0222007 0.0472618,-0.0511676 0.0472618,-0.0866102z"/>
   <path id="_3125009841" class="fil3 str1" d="M2.47896 1.3001c0,-0.0236381 -0.0055901,-0.0436318 -0.0166251,-0.0599956 -0.011035,-0.0163637 -0.028299,-0.0307818 -0.0520678,-0.043385 -0.0237688,-0.0124579 -0.0596035,-0.0253224 -0.107519,-0.0385644 -0.0479297,-0.0131113 -0.0838951,-0.026484 -0.107795,-0.0400019 -0.0240156,-0.0133727 -0.0415555,-0.0289524 -0.0527212,-0.046739 -0.0111657,-0.0178012 -0.0167558,-0.0393485 -0.0167558,-0.0646709 0,-0.0403939 0.0170171,-0.0729907 0.0510369,-0.0979211 0.0339036,-0.0250611 0.0781743,-0.037519 0.132725,-0.037519 0.0355734,0 0.0673861,0.00688236 0.0956996,0.0207777 0.0283135,0.0137647 0.0501221,0.0332357 0.0655857,0.0581661 0.015449,0.0249449 0.0232461,0.0532439 0.0232461,0.0846791l-0.0205164 0c0,-0.0414248 -0.0152022,-0.0755898 -0.0457227,-0.102596 -0.0303753,-0.0270067 -0.0698545,-0.0405101 -0.118292,-0.0405101 -0.0486992,0 -0.0880477,0.0109043 -0.118176,0.0325968 -0.0299978,0.021678 -0.0450693,0.0488154 -0.0450693,0.0815429 0,0.0332502 0.0131258,0.0599956 0.0392178,0.0803813 0.0261065,0.0202696 0.0692156,0.0381869 0.129342,0.0537666 0.0601262,0.0155797 0.10415,0.0337584 0.132072,0.0542748 0.0354572,0.0261065 0.0532439,0.061041 0.0532439,0.104934 0,0.0279215 -0.00792778,0.0525905 -0.0236381,0.0740216 -0.0157104,0.0214311 -0.0380417,0.037911 -0.0668779,0.0495994 -0.0289524,0.0116884 -0.0614185,0.0175398 -0.0973839,0.0175398 -0.0401326,0 -0.076098,-0.006621 -0.108056,-0.0200082 -0.0320741,-0.013242 -0.0560898,-0.0322048 -0.0721921,-0.0568738 -0.0161024,-0.0245384 -0.0241608,-0.0536359 -0.0241608,-0.087133l0.0206471 0c0,0.0454468 0.0168865,0.0806426 0.0509062,0.105834 0.0340197,0.0250611 0.078305,0.0376642 0.132856,0.0376642 0.0484233,0 0.0882945,-0.0110495 0.11973,-0.0332502 0.0315514,-0.0222007 0.0472618,-0.0511676 0.0472618,-0.0866102z"/>
   <path id="_312501416" class="fil2" d="M2.97183 1.26724l-0.271272 0 -0.0615492 0.165569 -0.022462 0 0.207255 -0.553986 0.0251917 0 0.207255 0.553986 -0.0223459 0 -0.0620719 -0.165569zm-0.263606 -0.0205164l0.255954 0 -0.127788 -0.343218 -0.128166 0.343218z"/>
   <path id="_3125014161" class="fil3 str1" d="M2.97183 1.26724l-0.271272 0 -0.0615492 0.165569 -0.022462 0 0.207255 -0.553986 0.0251917 0 0.207255 0.553986 -0.0223459 0 -0.0620719 -0.165569zm-0.263606 -0.0205164l0.255954 0 -0.127788 -0.343218 -0.128166 0.343218z"/>
   <polygon id="_312496064" class="fil2" points="1.3164,1.43281 1.29589,1.43281 1.29589,1.15802 0.942012,1.15802 0.942012,1.43281 0.921495,1.43281 0.921495,0.878822 0.942012,0.878822 0.942012,1.13751 1.29589,1.13751 1.29589,0.878822 1.3164,0.878822 "/>
   <polygon id="_3124960641" class="fil3 str1" points="1.3164,1.43281 1.29589,1.43281 1.29589,1.15802 0.942012,1.15802 0.942012,1.43281 0.921495,1.43281 0.921495,0.878822 0.942012,0.878822 0.942012,1.13751 1.29589,1.13751 1.29589,0.878822 1.3164,0.878822 "/>
  </g>
  <polyline class="fil4 str2" points="0.0391307,3.05761 0.0391307,4.61167 3.22038,4.61167 3.22038,3.05761 "/>
  <polyline class="fil4 str2" points="0.0391307,1.5824 0.0252643,0.723969 1.19908,0.0144762 2.04518,0.0202841 3.22038,0.0283425 3.22038,1.5824 "/>
  <circle class="fil5 str0" cx="2.90643" cy="0.303724" r="0.147462"/>
 </g>
</svg>
