<?xml version="1.0" standalone="no"?>
<!DOCTYPE svg PUBLIC "-//W3C//DTD SVG 1.1//EN" "http://www.w3.org/Graphics/SVG/1.1/DTD/svg11.dtd" >
<svg xmlns="http://www.w3.org/2000/svg">
<metadata></metadata>
<defs>
<font id="uoldisplaybetabold" horiz-adv-x="1139" >
<font-face units-per-em="2048" ascent="1536" descent="-512" />
<missing-glyph horiz-adv-x="569" />
<glyph horiz-adv-x="0" />
<glyph horiz-adv-x="0" />
<glyph horiz-adv-x="682" />
<glyph unicode="&#xd;" horiz-adv-x="569" />
<glyph unicode=" "  horiz-adv-x="569" />
<glyph unicode="&#x09;" horiz-adv-x="569" />
<glyph unicode="&#xa0;" horiz-adv-x="569" />
<glyph unicode="!" horiz-adv-x="682" d="M172 136q0 164 162 164q164 0 164 -164q0 -162 -164 -162q-162 0 -162 162zM184 1466h304l-72 -1088h-159z" />
<glyph unicode="&#x22;" horiz-adv-x="971" d="M112 1466h306l-46 -521h-207zM563 1466h306l-46 -521h-207z" />
<glyph unicode="#" d="M18 365v200h176l68 335h-244v201h285l79 390h214l-79 -390h237l77 390h222l-80 -390h142v-201h-183l-68 -335h251v-200h-292l-79 -390h-213l77 390h-239l-78 -390h-216l79 390h-136zM409 565h238l67 335h-237z" />
<glyph unicode="$" d="M69 89l101 229q107 -57 200 -86q57 -18 125 -26v426l-6 2q-82 21 -139 43t-106.5 55.5t-78.5 79t-45 109.5t-16 150q0 205 120 303q99 81 271 95v132h137v-132q38 -3 81 -11q167 -31 305 -117l-121 -226q-48 33 -74.5 50t-74 39.5t-92.5 33.5l-24 6v-383l16 -4 q141 -39 225.5 -90.5t129.5 -137.5t45 -213q0 -174 -63 -278t-198 -144q-72 -21 -155 -25v-174h-137v175q-27 1 -56 6q-218 26 -370 113zM353 1093q0 -77 26.5 -116.5t111.5 -71.5q3 0 4 -1v343q-64 -8 -96 -34q-46 -37 -46 -120zM632 204q19 2 46 8q66 16 95.5 59t29.5 120 q0 80 -31.5 123t-122.5 74l-17 6v-390z" />
<glyph unicode="%" horiz-adv-x="1821" d="M89 1098q0 210 77 301.5t246 91.5t246.5 -91.5t77.5 -301.5q0 -202 -80 -291.5t-245 -89.5q-167 0 -244.5 89t-77.5 292zM304 1098q0 -122 21.5 -176t85.5 -54q45 0 68.5 28.5t30 74t6.5 128.5q0 132 -21.5 188.5t-82.5 56.5q-63 0 -85.5 -56.5t-22.5 -189.5zM416 -56 l781 1547h202l-775 -1547h-208zM1078 322q0 210 77.5 302t245.5 92q169 0 246.5 -92t77.5 -302q0 -202 -80 -291.5t-245 -89.5q-167 0 -244.5 89t-77.5 292zM1293 322q0 -122 21.5 -176t85.5 -54q45 0 68.5 28.5t30 74t6.5 128.5q0 132 -21.5 188.5t-82.5 56.5 q-63 0 -85.5 -56.5t-22.5 -189.5z" />
<glyph unicode="&#x26;" horiz-adv-x="1479" d="M128 395q0 146 76 255.5t210 177.5l20 10l-3 4q-137 166 -137 314q0 163 106.5 249t283.5 86q183 0 283 -87t121 -239l-224 -54q-20 94 -64.5 138.5t-119.5 44.5q-145 0 -145 -125q0 -62 30.5 -112t112.5 -144l383 -441q8 22 19 60q31 106 46 251l239 -29 q-20 -199 -99 -371q-23 -50 -48 -91l152 -175l-179 -160l-131 152l-22 -16q-162 -118 -381 -118q-260 0 -394.5 105t-134.5 315zM393 424q0 -230 271 -230q115 0 196 39q33 15 61 37l-381 443l-15 -11q-71 -56 -101.5 -123.5t-30.5 -154.5z" />
<glyph unicode="'" horiz-adv-x="487" d="M92 1466h306l-46 -521h-207z" />
<glyph unicode="(" horiz-adv-x="682" d="M107 530q0 134 24 268t59.5 238t82.5 200t87.5 158t79.5 109l147 -89q-50 -103 -80.5 -178.5t-64.5 -187.5t-50 -244.5t-16 -289.5q0 -473 208 -870l-150 -85q-62 87 -115.5 184.5t-103.5 221t-79 270t-29 295.5z" />
<glyph unicode=")" horiz-adv-x="682" d="M95 1414l147 89q40 -50 78.5 -108t87 -153.5t84 -197t60 -238t24.5 -276.5q0 -515 -328 -971l-150 85q208 404 208 870q0 127 -12.5 242.5t-29.5 197t-49.5 173.5t-55.5 146t-64 141z" />
<glyph unicode="*" horiz-adv-x="797" d="M28 1166l59 176l239 -125l-29 274h178l-32 -274l257 115l53 -181l-266 -46l186 -205l-153 -101l-135 233l-140 -240l-151 117l199 196z" />
<glyph unicode="+" horiz-adv-x="1196" d="M85 607v233h394v396h236v-396h395v-233h-395v-396h-236v396h-394z" />
<glyph unicode="," horiz-adv-x="569" d="M112 142q0 76 43.5 117t127.5 41q172 0 172 -219q0 -160 -73 -257.5t-210 -150.5l-53 111q85 36 125 84.5t40 121.5q-90 2 -131 37t-41 115z" />
<glyph unicode="-" horiz-adv-x="682" d="M105 401v251h562v-251h-562z" />
<glyph unicode="." horiz-adv-x="569" d="M125 136q0 164 162 164q164 0 164 -164q0 -162 -164 -162q-162 0 -162 162z" />
<glyph unicode="/" horiz-adv-x="569" d="M-3 -25l363 1516h211l-367 -1516h-207z" />
<glyph unicode="0" d="M84 734q0 383 110.5 560.5t368.5 177.5q249 0 363 -179.5t114 -558.5q0 -153 -14.5 -269t-48 -211t-88.5 -155t-136.5 -92t-191.5 -32q-258 0 -367.5 187t-109.5 572zM375 736q0 -299 40 -418.5t146 -119.5q109 0 148.5 118t39.5 420q0 95 -2.5 160t-9.5 127.5t-19.5 101 t-33 68.5t-50 43t-70.5 13q-59 0 -96.5 -29.5t-58 -98t-27.5 -156.5t-7 -229z" />
<glyph unicode="1" d="M101 1179l396 293h239v-1245h285v-227h-868v227h326v948l-236 -192z" />
<glyph unicode="2" d="M72 0v181l349 374q11 12 52.5 55.5t55 59t49 54.5t49.5 59t40 55.5t37 60t25.5 57t19.5 62t5 60.5q0 86 -39.5 126.5t-125.5 40.5q-78 0 -206 -17q-119 -16 -253 -50l-55 231q113 27 264 45q152 18 274 18q423 0 423 -391q0 -144 -75 -266.5t-229 -280.5l-282 -293h586 v-241h-964z" />
<glyph unicode="3" d="M88 56l67 223q100 -42 190 -63q92 -21 208 -24q112 -3 167.5 55.5t56.5 203.5q0 118 -57 174.5t-189 56.5q-91 0 -199 -36l-106 209l427 348h-499v243h809v-250l-383 -318h8q240 0 351.5 -106t111.5 -322q0 -476 -515 -476q-115 0 -237.5 20.5t-210.5 61.5z" />
<glyph unicode="4" d="M38 305v226l551 921h309l-583 -940h343v180l107 186h140v-366h187v-207h-187v-305h-247v305h-620z" />
<glyph unicode="5" d="M88 56l67 223q100 -42 190 -63q92 -21 208 -24q123 11 187 72q65 62 65 201q0 130 -58 191t-159 61q-136 0 -243 -112l-201 80l-1 761h795v-243h-559v-373l205 109q30 2 46 2q225 0 336.5 -111t111.5 -363q0 -237 -141 -366q-138 -126 -401 -127q-115 0 -237.5 20.5 t-210.5 61.5z" />
<glyph unicode="6" d="M87 704q0 401 134.5 584.5t397.5 183.5q253 0 428 -82l-67 -223q-154 82 -378 88q-94 -1 -153 -90q-58 -87 -75 -191q-7 -59 -13 -123q133 98 284 98q190 0 305.5 -122t115.5 -345q0 -234 -119.5 -370.5t-355.5 -136.5q-127 0 -217 35t-156.5 117.5t-98.5 225t-32 351.5z M358 689q2 -129 11 -208q18 -147 70 -215t148 -68q117 0 165.5 67.5t48.5 204.5q0 148 -46.5 209t-167.5 61q-80 0 -177 -33q-29 -9 -52 -18z" />
<glyph unicode="7" d="M97 1198v248h951v-208l-510 -1238h-320l564 1198h-685z" />
<glyph unicode="8" d="M83 411q0 211 141 311q34 25 74 42q-46 28 -81 64q-97 103 -97 254q0 198 110.5 294t343.5 96q226 0 326.5 -93.5t100.5 -276.5q0 -164 -128 -251q-30 -21 -59 -33l15 -8q218 -105 218 -389q0 -229 -116 -338t-358 -109q-247 0 -368.5 106t-121.5 331zM354 413 q0 -126 50 -184.5t169 -58.5q118 0 160 59t42 187q0 87 -12 122q-24 69 -115 113q-58 30 -177 53l-12 -10q-56 -47 -80.5 -113t-24.5 -168zM380 1082q0 -96 58.5 -142.5t209.5 -72.5l10 -2q26 21 46 52q38 62 38 165q0 99 -41 148t-134 49q-187 0 -187 -197z" />
<glyph unicode="9" d="M65 975q0 231 125.5 364t368.5 133q249 0 367 -170t118 -559q0 -403 -131.5 -586t-400.5 -183q-263 0 -438 82l67 223q184 -87 388 -92q124 10 165 100q41 87 55 194q8 57 13 116q-132 -97 -289 -99q-190 0 -299 118.5t-109 358.5zM326 987q0 -150 49 -217t169 -67 q95 0 193 43l26 12q-2 143 -10 230q-15 149 -62 210t-142 61q-111 0 -167 -69.5t-56 -202.5z" />
<glyph unicode=":" horiz-adv-x="682" d="M178 136q0 164 162 164q164 0 164 -164q0 -162 -164 -162q-162 0 -162 162zM178 916q0 164 162 164q164 0 164 -164q0 -162 -164 -162q-162 0 -162 162z" />
<glyph unicode=";" horiz-adv-x="682" d="M167 142q0 76 43.5 117t127.5 41q172 0 172 -219q0 -160 -73 -257.5t-210 -150.5l-53 111q85 36 125 84.5t40 121.5q-90 2 -131 37t-41 115zM178 916q0 164 162 164q164 0 164 -164q0 -162 -164 -162q-162 0 -162 162z" />
<glyph unicode="&#x3c;" horiz-adv-x="1196" d="M95 604v242l1005 435v-275l-749 -283l749 -293v-263z" />
<glyph unicode="=" horiz-adv-x="1196" d="M85 372v239h1025v-239h-1025zM85 826v238h1025v-238h-1025z" />
<glyph unicode="&#x3e;" horiz-adv-x="1196" d="M95 166v273l754 288l-754 291v261l1006 -435v-240z" />
<glyph unicode="?" horiz-adv-x="1251" d="M137 1358q288 123 537 123q223 0 344 -87.5t121 -249.5q0 -53 -12 -99t-27.5 -78.5t-51.5 -74.5t-61.5 -67t-79.5 -75q-9 -8 -13 -12q-79 -73 -112.5 -119t-44 -88.5t-10.5 -122.5v-30h-246v56q0 82 10.5 140.5t37.5 106.5t59 82.5t89 85.5q123 110 158 160.5t35 118.5 q0 141 -191 141q-194 0 -452 -126zM452 136q0 164 162 164q164 0 164 -164q0 -162 -164 -162q-162 0 -162 162z" />
<glyph unicode="@" horiz-adv-x="1997" d="M111 539q0 192 45 349t128 269t201.5 187.5t263.5 112t316 36.5q439 0 665 -220t226 -664q0 -125 -9.5 -214.5t-36.5 -169t-73 -127.5t-120 -75t-177 -27q-162 0 -247 75q-40 35 -60 80l-124 -155q-68 -20 -183 -20q-197 0 -288 79.5t-91 250.5q0 176 106.5 254.5 t304.5 78.5q92 0 199 -23q34 -8 50 -13v48q0 123 -49 171.5t-165 48.5q-155 0 -353 -71l-65 195q90 39 215 65t245 26q237 0 341 -97.5t104 -330.5v-302q0 -96 28.5 -132t104.5 -36q26 0 46.5 6.5t35.5 22.5t25.5 33.5t17.5 49t11 59t6 73.5t2.5 81.5t0.5 93.5 q0 362 -168 538.5t-528 176.5q-191 0 -335 -54t-235 -156.5t-136 -246t-45 -326.5q0 -212 43 -357t137.5 -236.5t236 -131.5t347.5 -40q372 0 705 157l70 -172q-369 -160 -775 -160q-136 0 -247.5 13.5t-212.5 44t-178 80t-140 123t-103 171t-61.5 224.5t-21.5 284zM817 310 q0 -136 151 -136q104 0 179 45q32 19 61 45q-1 8 -1 25v161l-38 3q-82 6 -149 6q-108 0 -155.5 -34.5t-47.5 -114.5z" />
<glyph unicode="A" horiz-adv-x="1479" d="M19 0l562 1466h293l578 -1466h-298l-113 309h-624l-108 -309h-290zM499 541h458l-233 640z" />
<glyph unicode="B" horiz-adv-x="1479" d="M150 0v1466h631q260 0 372.5 -85.5t112.5 -264.5q0 -171 -116 -260q-47 -36 -119 -58q35 -6 54 -10q158 -32 225.5 -121t67.5 -248q0 -161 -58 -250.5t-190.5 -129t-370.5 -39.5h-609zM420 233h383q156 0 220.5 45t64.5 155q0 121 -68 171t-228 50h-372v-421zM420 888 h331q132 0 187.5 39.5t55.5 127.5q0 99 -58 140t-196 41h-320v-348z" />
<glyph unicode="C" horiz-adv-x="1479" d="M111 739q0 361 169 553q166 189 473 189h10q157 0 269 -35.5t181.5 -108.5t106 -172.5t48.5 -237.5l-287 -40q-8 87 -26.5 149t-54.5 110.5t-94.5 72t-142.5 23.5h-9q-175 0 -263 -115q-90 -118 -91 -382q0 -286 95 -408q87 -109 279 -109q117 0 250.5 27.5t224.5 62.5 l70 -251q-228 -82 -550 -82h-15q-171 0 -292 45q-127 47 -204 144.5t-112 235.5t-35 329z" />
<glyph unicode="D" horiz-adv-x="1479" d="M158 0v1466h546q245 0 387 -66.5t209 -221t67 -424.5q0 -167 -21 -288t-67.5 -212t-124.5 -146t-187.5 -81.5t-260.5 -26.5h-548zM428 231h257q93 0 155 13t110 45t74 92t39 148.5t13 220.5q0 98 -7.5 168.5t-26.5 126t-48 90.5t-74.5 58t-102.5 32t-136 9h-253v-1003z " />
<glyph unicode="E" horiz-adv-x="1366" d="M154 0v1466h1077v-234h-807v-373h702v-233h-702v-393h835v-233h-1105z" />
<glyph unicode="F" horiz-adv-x="1251" d="M156 0v1466h995v-234h-725v-375h638v-234h-638v-623h-270z" />
<glyph unicode="G" horiz-adv-x="1593" d="M108 734q0 351 170 541q186 206 563 206q382 0 594 -274l-204 -192q-94 138 -215 181q-123 44 -199 44h-21q-206 0 -309 -132q-96 -125 -96 -365q0 -276 134 -405q116 -112 338 -112q182 0 305 72l17 10v205h-394v233h668v-592q-2 -1 -35.5 -19t-58 -29t-71 -31.5 t-93.5 -34t-106 -27.5t-128 -21t-141 -7q-344 0 -528 185q-190 193 -190 564z" />
<glyph unicode="H" horiz-adv-x="1479" d="M150 0v1466h270v-550h632v550h270v-1466h-270v681h-632v-681h-270z" />
<glyph unicode="I" horiz-adv-x="569" d="M153 0v1466h270v-1466h-270z" />
<glyph unicode="J" d="M46 238l221 149q75 -117 131 -150q50 -29 103 -29h13q76 0 139 67q47 50 47 164v1027h269v-999q0 -273 -108.5 -382.5t-366.5 -109.5q-227 0 -332 96q-50 47 -116 167z" />
<glyph unicode="K" horiz-adv-x="1479" d="M153 0v1466h270v-708l664 708h353l-575 -566l605 -900h-338l-452 718l-257 -253v-465h-270z" />
<glyph unicode="L" horiz-adv-x="1251" d="M162 0v1466h274v-1227h748v-239h-1022z" />
<glyph unicode="M" horiz-adv-x="1706" d="M145 0v1466h383l329 -861l356 861h348v-1466h-253v1141l-347 -870h-215l-348 891v-1162h-253z" />
<glyph unicode="N" horiz-adv-x="1479" d="M152 0v1466h283l627 -1078v1078h253v-1466h-291l-619 1032v-1032h-253z" />
<glyph unicode="O" horiz-adv-x="1593" d="M94 720q0 380 176.5 571t536.5 191h13q320 0 501 -189q184 -193 185 -555q0 -350 -158 -540q-177 -213 -555 -213q-346 0 -522.5 184t-176.5 551zM386 715q0 -249 98 -373q95 -120 298 -120h13h11q224 0 316 121q93 123 93 386v6q0 254 -94 383q-92 126 -303 126h-10h-10 q-222 0 -316 -126q-96 -128 -96 -403z" />
<glyph unicode="P" horiz-adv-x="1366" d="M155 0v1466h528q154 0 258.5 -22.5t180 -78t110 -150t34.5 -236.5q0 -287 -131 -406.5t-427 -119.5h-283v-453h-270zM425 691h219q103 0 163.5 10.5t101 42t55 84t14.5 139.5q0 154 -76 210.5t-287 56.5h-190v-543z" />
<glyph unicode="Q" horiz-adv-x="1593" d="M94 720q0 389 176 580.5t537 191.5q333 0 516 -190t183 -564q0 -167 -40 -305q-35 -121 -102 -212l202 -159l-160 -202l-219 205q-30 -17 -68 -33q-135 -57 -326 -57q-699 0 -699 745zM386 715q0 -262 97 -381.5t312 -119.5q124 0 205 27l-201 189l120 145l242 -192 q23 48 35 109q19 98 19 243q0 266 -93 391.5t-314 125.5q-233 0 -327.5 -125t-94.5 -412z" />
<glyph unicode="R" horiz-adv-x="1479" d="M160 0v1466h615q213 0 335.5 -49t176.5 -155t54 -288q0 -254 -192 -379q-37 -25 -79 -42l388 -553h-344l-295 477h-390v-477h-269zM429 727h297q93 0 150.5 9.5t99 36.5t58 75.5t16.5 125.5q0 134 -69.5 197t-222.5 63h-329v-507z" />
<glyph unicode="S" horiz-adv-x="1366" d="M123 58l44 267q165 -49 269 -75q102 -24 275 -27q153 5 211 41q57 35 57 132q0 52 -12.5 82.5t-53.5 59.5t-109.5 53t-190.5 56q-90 23 -151 43t-119.5 47t-94 58t-63 73.5t-39.5 97t-12 125.5q0 197 117 296q124 104 390 104q228 0 548 -68l-43 -257q-167 41 -286 63 q-115 21 -232 21q-121 0 -173 -29q-50 -29 -50 -107q0 -48 12.5 -77t52.5 -56t105.5 -47.5t182.5 -47.5q153 -35 247.5 -74.5t150 -95.5t76 -122.5t22.5 -166.5v-13q0 -215 -130 -325q-134 -113 -424 -113q-166 5 -294 23q-132 17 -283 59z" />
<glyph unicode="T" horiz-adv-x="1251" d="M44 1238v228h1165v-228h-445v-1238h-273v1238h-447z" />
<glyph unicode="U" horiz-adv-x="1479" d="M149 643v823h278v-844q0 -220 67 -316t235 -96q96 0 156 23t93.5 76.5t45.5 126t12 186.5v844h278v-821q0 -119 -9.5 -206.5t-33.5 -166.5t-66.5 -131.5t-107.5 -91.5t-157.5 -56.5t-216.5 -17.5q-117 0 -205.5 17.5t-152 55.5t-105.5 90.5t-66.5 130.5t-34.5 167 t-10 207z" />
<glyph unicode="V" horiz-adv-x="1366" d="M4 1466h306l386 -1149l379 1149h284l-525 -1466h-306z" />
<glyph unicode="W" horiz-adv-x="1933" d="M7 1466h293l232 -1086l291 1086h322l263 -1100l240 1100h283l-371 -1466h-290l-301 1165l-306 -1165h-297z" />
<glyph unicode="X" horiz-adv-x="1366" d="M0 0l529 751l-482 715h316l336 -493l311 493h303l-482 -687l532 -779h-327l-366 541l-347 -541h-323z" />
<glyph unicode="Y" horiz-adv-x="1366" d="M2 1466h332l361 -629l357 629h311l-545 -851v-615h-271v618z" />
<glyph unicode="Z" horiz-adv-x="1251" d="M32 0v247l791 977h-689v242h1018v-210l-804 -1015h855v-241h-1171z" />
<glyph unicode="[" horiz-adv-x="682" d="M146 -413v1879h498v-207h-247v-1465h247v-207h-498z" />
<glyph unicode="\" horiz-adv-x="569" d="M-3 1491h207l367 -1516h-211z" />
<glyph unicode="]" horiz-adv-x="682" d="M38 -206h247v1467h-247v205h498v-1879h-498v207z" />
<glyph unicode="^" horiz-adv-x="1196" d="M115 692l376 799h223l366 -799h-284l-196 515l-199 -515h-286z" />
<glyph unicode="_" d="M-19 -233h1168v-172h-1168v172z" />
<glyph unicode="`" horiz-adv-x="682" d="M40 1491h328l105 -265l-135 -62z" />
<glyph unicode="a" d="M78 306q0 333 411 333q139 0 249 -20v52q0 62 -11.5 100.5t-39.5 59.5t-65 28t-98 7q-153 0 -373 -55l-41 212q82 23 207.5 38t248.5 15q239 0 342 -93t103 -325v-352l50 -306h-235l-68 169l-118 -163q-68 -20 -183 -20q-198 0 -288.5 75.5t-90.5 244.5zM348 310 q0 -67 39.5 -96.5t121.5 -29.5q130 0 229 59v216h-187q-113 0 -158 -34t-45 -115z" />
<glyph unicode="b" horiz-adv-x="1251" d="M135 513v953h273v-571l211 170q77 11 124 11q126 0 208 -30t130 -98.5t66.5 -165t18.5 -243.5q0 -293 -119.5 -424t-398.5 -131q-183 0 -293.5 50.5t-165 166.5t-54.5 312zM408 549q0 -149 24.5 -227.5t74.5 -107.5t142 -29q130 0 185 75.5t55 267.5q0 187 -44 261.5 t-150 74.5q-59 0 -113.5 -8.5t-85 -17t-88.5 -26.5v-263z" />
<glyph unicode="c" d="M85 546q0 282 128 406t382 124q226 0 344 -110t132 -310l-269 -32q-4 41 -12 75t-23 66.5t-37 54.5t-55.5 35.5t-75.5 13.5q-124 0 -177 -73t-53 -250q0 -183 65.5 -268.5t201.5 -85.5q171 0 333 63l58 -210q-167 -59 -417 -59q-123 0 -216 29t-164 92.5t-108 174 t-37 264.5z" />
<glyph unicode="d" horiz-adv-x="1251" d="M90 515q0 272 120.5 416t339.5 144q144 0 295 -33l1 424h275v-1466h-220q-28 102 -45 164l-170 -165q-74 -13 -158 -13q-150 0 -244 50t-144 167.5t-50 311.5zM369 534q0 -184 43.5 -257.5t150.5 -73.5q96 0 152.5 9.5t128.5 32.5l1 619h-226q-136 0 -193 -76.5 t-57 -253.5z" />
<glyph unicode="e" d="M72 523q0 557 509 557q231 0 350 -140t119 -404v-113h-714q16 -132 81.5 -181t205.5 -49q203 0 337 52l50 -207q-147 -52 -424 -52q-128 0 -220 27t-160 88.5t-101 166t-33 255.5zM332 600h455q0 145 -52 212.5t-158 67.5q-108 0 -171 -61.5t-74 -218.5z" />
<glyph unicode="f" horiz-adv-x="682" d="M24 861v201h157v98q0 161 88.5 241t237.5 80q58 0 115.5 -3t86.5 -6l29 -3l-36 -205l-137 2q-66 0 -90.5 -27t-24.5 -93v-84h221v-201h-221v-861h-269v861h-157z" />
<glyph unicode="g" horiz-adv-x="1251" d="M84 533q0 291 109.5 418.5t358.5 127.5q27 0 78.5 -5t56.5 -5l172 -178l46 171h215v-960q0 -139 -25.5 -236t-84 -165t-157 -100t-242.5 -32q-296 0 -461 59l56 214q119 -37 205.5 -53.5t191.5 -16.5q126 0 182 59t63 199q-180 -43 -334 -43q-132 0 -231 73t-149 195.5 t-50 277.5zM367 531q0 -177 56.5 -254t171.5 -77q124 0 254 2v610q-10 3 -47.5 16t-50 16t-42.5 10t-59 9t-65 2q-44 0 -75 -7t-59.5 -28t-46 -57.5t-27.5 -97t-10 -144.5z" />
<glyph unicode="h" horiz-adv-x="1251" d="M146 0v1466h276v-559l188 151q70 18 164 18q99 0 165 -21.5t104.5 -69.5t54 -115.5t15.5 -168.5v-701h-281v698q0 93 -32.5 128t-124.5 35q-105 0 -253 -43v-818h-276z" />
<glyph unicode="i" horiz-adv-x="569" d="M140 1342q0 77 37.5 113t113.5 36q77 0 115 -36t38 -113q0 -147 -153 -147q-78 0 -114.5 33.5t-36.5 113.5zM160 0v1062h267v-1062h-267z" />
<glyph unicode="j" horiz-adv-x="569" d="M-112 -400l20 205l121 -2q66 0 90.5 27t24.5 93v1136h269v-1170q0 -88 -23.5 -149t-69.5 -93t-101.5 -45.5t-131.5 -13.5q-58 0 -107.5 3t-70.5 6zM129 1342q0 77 37.5 113t113.5 36q77 0 115 -36t38 -113q0 -147 -153 -147q-78 0 -114.5 33.5t-36.5 113.5z" />
<glyph unicode="k" d="M137 0v1466h271v-833l353 429h332l-380 -386l406 -676h-308l-257 514l-146 -148v-366h-271z" />
<glyph unicode="l" horiz-adv-x="569" d="M157 0v1466h261v-1466h-261z" />
<glyph unicode="m" horiz-adv-x="1821" d="M126 0v1062h220l42 -147l183 153q70 18 154 18q140 0 210 -44.5t94 -140.5l173 167q70 18 164 18q66 0 116 -9.5t85.5 -30.5t59 -50t37 -73t19 -94t5.5 -118v-711h-281v708q0 94 -25 128.5t-100 34.5q-96 0 -239 -50q4 -40 4 -100v-721h-278v718q0 92 -28 122.5 t-115 30.5q-96 0 -223 -34v-837h-277z" />
<glyph unicode="n" horiz-adv-x="1251" d="M145 0v1062h220l45 -165l200 161q70 18 164 18q99 0 165 -21.5t104.5 -69.5t54 -115.5t15.5 -168.5v-701h-281v698q0 93 -32.5 128t-124.5 35q-105 0 -253 -43v-818h-277z" />
<glyph unicode="o" horiz-adv-x="1251" d="M81 530q0 273 141 412.5t408 139.5q266 0 407 -141t141 -411q0 -271 -138.5 -410t-409.5 -139t-410 131.5t-139 417.5zM370 530q0 -183 61 -270.5t199 -87.5q135 0 196.5 84t61.5 274q0 191 -58.5 274.5t-199.5 83.5q-135 0 -197.5 -85t-62.5 -273z" />
<glyph unicode="p" horiz-adv-x="1251" d="M142 -406v1466h200q28 -100 50 -178l185 179q74 13 158 13q150 0 244 -50t144 -167.5t50 -311.5q0 -272 -120.5 -416t-339.5 -144q-156 0 -296 33v-424h-275zM412 813l7 -25l-1 -593q48 1 226 1q136 0 193 76.5t57 253.5q0 184 -43.5 257.5t-150.5 73.5q-68 0 -122 -6.5 t-82.5 -13.5t-83.5 -24z" />
<glyph unicode="q" horiz-adv-x="1251" d="M91 520q0 293 119.5 424t398.5 131q183 0 293.5 -50.5t165 -166.5t54.5 -312v-953h-273v571l-211 -170q-77 -11 -124 -11q-126 0 -208 30t-130 98.5t-66.5 165t-18.5 243.5zM368 531q0 -187 44 -261.5t150 -74.5q58 0 114 8.5t83 16t90 26.5v264q0 149 -24.5 227.5 t-74.5 107.5t-142 29q-130 0 -185 -75.5t-55 -267.5z" />
<glyph unicode="r" horiz-adv-x="797" d="M135 0v1062h210l58 -190l171 195q89 19 176 19q18 0 53 -3l-44 -268q-49 9 -129 9q-99 0 -218 -33v-791h-277z" />
<glyph unicode="s" d="M92 48l44 226q237 -88 471 -88q92 0 131 20t39 72q0 60 -59.5 92.5t-229.5 67.5q-99 20 -165 43.5t-118.5 61.5t-76.5 94t-24 135q0 156 105 230t332 74q99 0 224.5 -15.5t217.5 -46.5l-41 -220q-80 37 -195.5 61t-217.5 24q-174 0 -174 -83q0 -52 53 -79t224 -66 q163 -37 252 -81.5t125.5 -103.5t36.5 -152q0 -168 -107.5 -253t-312.5 -85q-286 0 -534 72z" />
<glyph unicode="t" horiz-adv-x="682" d="M98 324v969l265 100v-331h255v-204h-255v-528q0 -83 26 -112t92 -29q90 0 130 8l36 -206q-92 -15 -233 -15q-178 0 -247 75.5t-69 272.5z" />
<glyph unicode="u" horiz-adv-x="1251" d="M137 478v584h276v-495q0 -154 19.5 -235.5t62.5 -114t125 -32.5q68 0 108 16.5t65 62.5t33.5 116.5t8.5 189.5v492h276v-584q0 -143 -27 -239t-88 -154.5t-151.5 -83.5t-224.5 -25q-186 0 -289 47t-148.5 154.5t-45.5 300.5z" />
<glyph unicode="v" d="M1 1062h295l277 -756l282 756h279l-437 -1062h-253z" />
<glyph unicode="w" horiz-adv-x="1593" d="M9 1062h273l192 -754l200 754h261l202 -753l190 753h265l-336 -1062h-265l-195 738l-194 -738h-267z" />
<glyph unicode="x" d="M12 0l401 541l-385 521h328l218 -321l203 321h310l-387 -499l420 -563h-330l-240 348l-219 -348h-319z" />
<glyph unicode="y" d="M14 1062h297l267 -813l247 813h281l-424 -1155q-64 -175 -182.5 -256.5t-273.5 -81.5q-105 0 -174 15l41 216q54 -9 102 -9q174 0 227 159l16 49z" />
<glyph unicode="z" horiz-adv-x="1024" d="M39 0v209l592 634h-533v219h838v-189l-584 -641h626l-1 -232h-938z" />
<glyph unicode="{" horiz-adv-x="797" d="M60 439v183l239 161v405q0 174 57 238.5t219 64.5h169v-199h-131q-57 0 -78 -25.5t-21 -93.5v-477l-285 -166l284 -185v-460q0 -64 22 -90.5t77 -26.5h132v-199h-173q-156 0 -214 73t-58 242v381z" />
<glyph unicode="|" horiz-adv-x="573" d="M181 -431v1922h213v-1922h-213z" />
<glyph unicode="}" horiz-adv-x="797" d="M45 -232h132q55 0 77 26.5t22 90.5v460l275 185l-276 166v477q0 68 -21 93.5t-78 25.5h-131v199h169q162 0 219 -64.5t57 -238.5v-405l239 -161v-183l-239 -174v-381q0 -169 -58 -242t-214 -73h-173v199z" />
<glyph unicode="~" horiz-adv-x="1196" d="M90 776q49 40 135.5 79t181.5 39q69 0 136.5 -21t129 -42t115.5 -21q60 0 106 19.5t96 57.5l103 -220q-56 -53 -132 -84.5t-157 -31.5q-69 0 -132.5 22t-125.5 44t-127 22q-19 0 -37.5 -2.5t-33 -6t-31.5 -11t-27.5 -12t-27 -14t-23 -14t-22 -15t-18.5 -12.5z" />
<glyph unicode="&#xa1;" horiz-adv-x="682" d="M185 923q0 162 164 162q162 0 162 -162q0 -164 -162 -164q-164 0 -164 164zM195 -407l72 1085h159l73 -1085h-304z" />
<glyph unicode="&#xa2;" d="M85 546q0 283 128.5 411.5t381.5 128.5q55 0 98 -7l114 376l120 -34l-113 -373q69 -28 122 -75q121 -109 135 -307l-269 -32q-13 122 -43 170q-8 12 -13 17l-187 -617q35 -6 77 -6q148 0 301 125l130 -203q-190 -144 -457 -144q-62 0 -117 9l-117 -388l-122 34l117 385 q-78 32 -136 87q-150 147 -150 443zM369 546q0 -188 58 -267q7 -10 17 -20l187 617q-20 2 -32 2q-122 0 -176 -77.5t-54 -254.5z" />
<glyph unicode="&#xa3;" d="M13 631v208h168q-10 45 -22 107q-12 68 -12 144q0 186 111 293.5t343 107.5q94 0 167 -20t119.5 -53t78 -81.5t46.5 -100t22 -114.5l-239 -37q-4 48 -15 83t-33 65t-60.5 45t-93.5 15q-194 0 -194 -226q0 -54 11 -122l20 -106h333v-208h-296q5 -45 5 -79q0 -155 -96 -265 l-29 -32l1 1q39 11 88 11q73 0 201 -25t200 -25q24 0 44.5 2t43 7t31 7.5t34.5 11t28 9.5l71 -231q-36 -18 -105 -33t-142 -15q-67 0 -218.5 35t-229.5 35q-158 0 -268 -67l-109 227q88 68 116 98q92 102 94 254q0 41 -4 74h-210z" />
<glyph unicode="&#xa4;" d="M44 1075l165 171l35 -34l40 -41l55 -53q96 48 227 48q130 0 226 -48q22 21 53.5 53t42.5 42l34 32l167 -171l-129 -127q46 -93 46 -222t-47 -225l123 -128l-167 -171l-126 130q-92 -46 -223 -46q-132 0 -228 48l-124 -123l-165 171l32 32l90 89q-46 93 -46 223t46 223z M351 727q0 -113 56 -173.5t160 -60.5q102 0 156 60t54 174q0 112 -54 172.5t-156 60.5q-104 0 -160 -60.5t-56 -172.5z" />
<glyph unicode="&#xa5;" d="M2 1466h322l242 -605l251 605h306l-322 -645h278v-207h-381v-130h381v-207h-381v-277h-271v277h-376v207h376v130h-376v207h274z" />
<glyph unicode="&#xa6;" horiz-adv-x="573" d="M178 360h219v-791h-219v791zM178 701v790h219v-790h-219z" />
<glyph unicode="&#xa7;" d="M61 644q0 138 113 230q39 32 87 55q-11 10 -18 19q-96 102 -96 238q0 152 105 228.5t301 76.5q209 0 308 -87.5t118 -255.5l-256 -39q-9 98 -43.5 141t-127.5 43q-143 0 -143 -109q0 -62 55.5 -109t243.5 -163q76 -47 120.5 -76.5t91 -65t70 -63t44 -63t27.5 -73.5t7 -86 q0 -147 -105 -234q-45 -39 -100 -64l32 -31q107 -104 107 -259q0 -328 -425 -328q-220 0 -328 89.5t-126 271.5l261 47q21 -107 68.5 -156t131.5 -49q87 0 123 29.5t36 91.5q0 20 -4 36.5t-9.5 30t-21.5 29.5t-28 27t-42.5 31.5t-51 33.5t-68 43t-80.5 51 q-71 46 -113.5 75.5t-91.5 68t-76 71t-51.5 73t-34.5 84.5t-10 97zM303 685q0 -58 20 -96t77 -84.5t186 -128.5q81 -52 155 -101l8 6q46 30 66 65t20 85q0 28 -3 46.5t-19 42t-31 39t-60.5 48.5t-84 58.5t-122.5 79.5q-42 27 -133 88l-12 -10q-67 -57 -67 -138z" />
<glyph unicode="&#xa8;" horiz-adv-x="682" d="M0 1370q0 128 126 128q128 0 128 -128q0 -126 -128 -126q-126 0 -126 126zM428 1370q0 128 126 128q128 0 128 -128q0 -126 -128 -126q-126 0 -126 126z" />
<glyph unicode="&#xa9;" horiz-adv-x="1509" d="M3 736q0 343 204.5 549t545.5 206q169 0 310.5 -54t240 -152t153.5 -239t55 -310q0 -341 -208 -547.5t-551 -206.5q-342 0 -546 206t-204 548zM141 736q0 -286 165.5 -456t449.5 -170t451 170t167 456t-167 456.5t-451 170.5t-449.5 -170.5t-165.5 -456.5zM376 739 q0 216 95.5 315t275.5 99q159 0 246.5 -84t97.5 -237l-206 -25q-4 37 -7.5 57.5t-12.5 48.5t-22 42.5t-37 25t-56 10.5q-92 0 -127.5 -57t-35.5 -195q0 -141 43 -202t141 -61q66 0 117 23t104 64l94 -157q-135 -103 -328 -103q-382 0 -382 436z" />
<glyph unicode="&#xaa;" horiz-adv-x="758" d="M41 966q0 225 277 225q59 0 134 -15l33 -9v32q0 82 -32.5 111.5t-111.5 29.5q-107 0 -237 -47l-44 137q60 26 144.5 44t164.5 18q161 0 235 -66.5t74 -222.5v-237l33 -205h-167l-38 107l-87 -109q-37 -14 -123 -14q-132 0 -193.5 53.5t-61.5 167.5zM228 969q0 -86 96 -86 q65 0 120 30q21 13 41 31v115l-25 3q-47 5 -101 5q-70 0 -100.5 -22.5t-30.5 -75.5z" />
<glyph unicode="&#xab;" d="M97 532l329 471l165 -90l-236 -382l234 -394l-156 -97zM488 532l329 471l165 -90l-236 -382l234 -394l-156 -97z" />
<glyph unicode="&#xac;" horiz-adv-x="1196" d="M85 827v247h1025v-698h-249v451h-776z" />
<glyph unicode="&#xad;" horiz-adv-x="682" d="M105 401v251h562v-251h-562z" />
<glyph unicode="&#xae;" horiz-adv-x="1509" d="M3 736q0 343 204.5 549t545.5 206q169 0 310.5 -54t240 -152t153.5 -239t55 -310q0 -341 -208 -547.5t-551 -206.5q-342 0 -546 206t-204 548zM141 736q0 -286 165.5 -456t449.5 -170t451 170t167 456t-167 456.5t-451 170.5t-449.5 -170.5t-165.5 -456.5zM411 320v813 h344q176 0 245.5 -61.5t69.5 -212.5q0 -141 -107 -211q-26 -16 -41 -23l213 -305h-192l-169 262h-207v-262h-156zM567 727h160q103 0 139.5 24.5t36.5 107.5q0 75 -36 107.5t-122 32.5h-178v-272z" />
<glyph unicode="&#xaf;" horiz-adv-x="1131" d="M-19 1562v173h1168v-173h-1168z" />
<glyph unicode="&#xb0;" horiz-adv-x="819" d="M88 1172q0 146 88 232.5t230 86.5t230.5 -86.5t88.5 -232.5q0 -148 -88 -233t-231 -85t-230.5 85t-87.5 233zM247 1173q0 -81 42.5 -126.5t117.5 -45.5t117.5 45.5t42.5 126.5t-42.5 126.5t-117.5 45.5t-117.5 -45.5t-42.5 -126.5z" />
<glyph unicode="&#xb1;" horiz-adv-x="1124" d="M50 0v238h1025v-238h-1025zM50 752v233h392v396h240v-396h393v-233h-393v-396h-240v396h-392z" />
<glyph unicode="&#xb2;" horiz-adv-x="682" d="M33 663v145l210 181q133 114 169 160t36 97q0 84 -106 84q-88 0 -242 -79l-58 150q80 40 153.5 61.5t165.5 21.5q137 0 208 -60t71 -164q0 -86 -39 -149.5t-146 -144.5l-180 -146h377v-157h-619z" />
<glyph unicode="&#xb3;" horiz-adv-x="682" d="M18 725l65 147q146 -74 256 -74q84 0 120.5 27t36.5 89q0 59 -36 85t-115 26q-87 0 -156 -32l-76 159l270 163h-324v151h545v-159l-251 -151q155 -5 229 -58q79 -58 79 -185q0 -123 -88 -194.5t-241 -71.5q-168 0 -314 78z" />
<glyph unicode="&#xb4;" horiz-adv-x="682" d="M206 1226l105 265h327l-297 -327z" />
<glyph unicode="&#xb6;" d="M1 1046q0 217 113 318.5t334 101.5h681v-248h-118v-1621h-227v1621h-157v-1621h-230v1041q-78 5 -140 22q-256 72 -256 386z" />
<glyph unicode="&#xb7;" horiz-adv-x="569" d="M134 712q0 82 35 117.5t116 35.5q82 0 117.5 -35.5t35.5 -117.5q0 -81 -35.5 -116t-117.5 -35t-116.5 34.5t-34.5 116.5z" />
<glyph unicode="&#xb8;" horiz-adv-x="682" d="M72 -403l27 139q17 -4 31 -5q27 -4 88 -4q174 0 174 78q0 77 -127 77q-31 0 -66 -5q-23 -4 -38 -5l19 89q17 5 51 13q62 14 105 14q100 0 173.5 -54t73.5 -146q0 -80 -44 -127.5t-115 -64.5t-179 -17q-68 0 -124 9z" />
<glyph unicode="&#xb9;" horiz-adv-x="682" d="M46 663v159h253v465l-151 -127l-101 134l260 190h183v-662h146v-159h-590z" />
<glyph unicode="&#xba;" horiz-adv-x="748" d="M35 1114q0 377 336 377q172 0 256 -93t84 -284q0 -190 -83.5 -282t-256.5 -92q-171 0 -253.5 91.5t-82.5 282.5zM223 1116q0 -114 33 -169.5t117 -55.5q83 0 116.5 55t33.5 170q0 111 -34 167t-116 56q-84 0 -117 -53.5t-33 -169.5z" />
<glyph unicode="&#xbb;" d="M144 913l165 90l329 -471l-336 -492l-156 97l233 394zM535 913l165 90l329 -471l-336 -492l-156 97l233 394z" />
<glyph unicode="&#xbc;" horiz-adv-x="1708" d="M46 663v159h253v465l-151 -127l-101 134l260 190h183v-662h146v-159h-590zM400 -54l869 1538h199l-869 -1538h-199zM988 115v163l392 512h212l-425 -534h235v89l80 142h88v-231h117v-141h-117v-157h-168v157h-414z" />
<glyph unicode="&#xbd;" horiz-adv-x="1708" d="M57 663v159h253v465l-151 -127l-101 134l260 190h183v-662h146v-159h-590zM354 -54l869 1538h199l-869 -1538h-199zM1038 33l210 181q133 114 169 160t36 97q0 84 -106 84q-88 0 -242 -79l-58 150q80 40 153.5 61.5t165.5 21.5q137 0 208 -60t71 -164q0 -86 -39 -149.5 t-146 -144.5l-180 -146h377v-157h-619v145z" />
<glyph unicode="&#xbe;" horiz-adv-x="1708" d="M28 725l65 147q146 -74 256 -74q84 0 120.5 27t36.5 89q0 59 -36 85t-115 26q-87 0 -156 -32l-76 159l270 163h-324v151h545v-159l-251 -151q155 -5 229 -58q79 -58 79 -185q0 -123 -88 -194.5t-241 -71.5q-168 0 -314 78zM370 -54l869 1538h199l-869 -1538h-199z M988 115v163l392 512h212l-425 -534h235v89l80 142h88v-231h117v-141h-117v-157h-168v157h-414z" />
<glyph unicode="&#xbf;" horiz-adv-x="1251" d="M124 -82q0 53 12 99t27.5 78.5t51.5 74.5t61.5 67t79.5 75q9 8 13 12q79 73 112.5 119t44 88.5t10.5 122.5v30h246v-56q0 -82 -10.5 -140.5t-37.5 -106.5t-59 -82.5t-89 -85.5q-123 -110 -158 -160.5t-35 -118.5q0 -141 191 -141q194 0 452 126l90 -215 q-288 -123 -537 -123q-223 0 -344 87.5t-121 249.5zM485 926q0 162 164 162q162 0 162 -162q0 -164 -162 -164q-164 0 -164 164z" />
<glyph unicode="&#xc0;" horiz-adv-x="1479" d="M19 0l562 1466h293l578 -1466h-298l-113 309h-624l-108 -309h-290zM381 1895h328l105 -265l-135 -62zM499 541h458l-233 640z" />
<glyph unicode="&#xc1;" horiz-adv-x="1479" d="M19 0l562 1466h293l578 -1466h-298l-113 309h-624l-108 -309h-290zM499 541h458l-233 640zM652 1630l105 265h327l-297 -327z" />
<glyph unicode="&#xc2;" horiz-adv-x="1479" d="M19 0l562 1466h293l578 -1466h-298l-113 309h-624l-108 -309h-290zM423 1638l226 257h172l225 -266l-194 -66l-111 195l-112 -195zM499 541h458l-233 640z" />
<glyph unicode="&#xc3;" horiz-adv-x="1479" d="M19 0l562 1466h293l578 -1466h-298l-113 309h-624l-108 -309h-290zM364 1776q33 27 92 53.5t123 26.5q58 0 138 -28.5t121 -28.5q72 0 137 52l90 -166q-81 -79 -196 -79q-57 0 -133.5 30t-127.5 30q-32 0 -65.5 -12.5t-44.5 -19.5t-40 -27zM499 541h458l-233 640z" />
<glyph unicode="&#xc4;" horiz-adv-x="1479" d="M19 0l562 1466h293l578 -1466h-298l-113 309h-624l-108 -309h-290zM381 1734q0 128 126 128q128 0 128 -128q0 -126 -128 -126q-126 0 -126 126zM499 541h458l-233 640zM809 1734q0 128 126 128q128 0 128 -128q0 -126 -128 -126q-126 0 -126 126z" />
<glyph unicode="&#xc5;" horiz-adv-x="1479" d="M19 0l562 1466h293l578 -1466h-298l-113 309h-624l-108 -309h-290zM499 541h458l-233 640zM546 1745q0 90 53 143.5t140 53.5t140.5 -53.5t53.5 -143.5t-53 -143t-141 -53q-87 0 -140 53t-53 143zM645 1748q0 -51 24 -79.5t69 -28.5t69 28.5t24 79.5q0 49 -24.5 77.5 t-68.5 28.5t-68.5 -28.5t-24.5 -77.5z" />
<glyph unicode="&#xc6;" horiz-adv-x="2048" d="M-81 0l702 1466h1300v-234h-750v-373h645v-233h-645v-393h778v-233h-1038v309h-552l-140 -309h-300zM465 541h446v711h-122z" />
<glyph unicode="&#xc7;" horiz-adv-x="1479" d="M111 739q0 361 169 553t483 189q157 0 269 -35.5t181.5 -108.5t106 -172.5t48.5 -237.5l-287 -40q-8 87 -26.5 149t-54.5 110.5t-94.5 72t-142.5 23.5q-182 3 -272 -115t-91 -382q0 -286 95 -408q87 -109 279 -109q117 0 250.5 27.5t224.5 62.5l70 -251 q-228 -82 -550 -82q-180 -2 -307 45t-204 144.5t-112 235.5t-35 329zM481 -403l27 139q17 -4 31 -5q27 -4 88 -4q174 0 174 78q0 77 -127 77q-31 0 -66 -5q-23 -4 -38 -5l19 89q17 5 51 13q62 14 105 14q100 0 173.5 -54t73.5 -146q0 -80 -44 -127.5t-115 -64.5t-179 -17 q-68 0 -124 9z" />
<glyph unicode="&#xc8;" horiz-adv-x="1366" d="M154 0v1466h1077v-234h-807v-373h702v-233h-702v-393h835v-233h-1105zM414 1895h328l105 -265l-135 -62z" />
<glyph unicode="&#xc9;" horiz-adv-x="1366" d="M154 0v1466h1077v-234h-807v-373h702v-233h-702v-393h835v-233h-1105zM565 1630l105 265h327l-297 -327z" />
<glyph unicode="&#xca;" horiz-adv-x="1366" d="M154 0v1466h1077v-234h-807v-373h702v-233h-702v-393h835v-233h-1105zM396 1638l226 257h172l225 -266l-194 -66l-111 195l-112 -195z" />
<glyph unicode="&#xcb;" horiz-adv-x="1366" d="M154 0v1466h1077v-234h-807v-373h702v-233h-702v-393h835v-233h-1105zM372 1734q0 128 126 128q128 0 128 -128q0 -126 -128 -126q-126 0 -126 126zM800 1734q0 128 126 128q128 0 128 -128q0 -126 -128 -126q-126 0 -126 126z" />
<glyph unicode="&#xcc;" horiz-adv-x="569" d="M-24 1895h328l105 -265l-135 -62zM153 0v1466h270v-1466h-270z" />
<glyph unicode="&#xcd;" horiz-adv-x="569" d="M153 0v1466h270v-1466h-270zM197 1630l105 265h327l-297 -327z" />
<glyph unicode="&#xce;" horiz-adv-x="569" d="M-22 1638l226 257h172l225 -266l-194 -66l-111 195l-112 -195zM153 0v1466h270v-1466h-270z" />
<glyph unicode="&#xcf;" horiz-adv-x="569" d="M-51 1734q0 128 126 128q128 0 128 -128q0 -126 -128 -126q-126 0 -126 126zM153 0v1466h270v-1466h-270zM377 1734q0 128 126 128q128 0 128 -128q0 -126 -128 -126q-126 0 -126 126z" />
<glyph unicode="&#xd0;" horiz-adv-x="1479" d="M-3 650v173h166v643h546q245 0 387 -66.5t209 -221t67 -424.5q0 -167 -21 -288t-67.5 -212t-124.5 -146t-187.5 -81.5t-260.5 -26.5h-548v650h-166zM433 231h257q93 0 155 13t110 45t74 92t39 148.5t13 220.5q0 98 -7.5 168.5t-26.5 126t-48 90.5t-74.5 58t-102.5 32 t-136 9h-253v-411h345v-173h-345v-419z" />
<glyph unicode="&#xd1;" horiz-adv-x="1479" d="M152 0v1466h283l627 -1078v1078h253v-1466h-291l-619 1032v-1032h-253zM384 1776q33 27 92 53.5t123 26.5q58 0 138 -28.5t121 -28.5q72 0 137 52l90 -166q-81 -79 -196 -79q-57 0 -133.5 30t-127.5 30q-32 0 -65.5 -12.5t-44.5 -19.5t-40 -27z" />
<glyph unicode="&#xd2;" horiz-adv-x="1593" d="M94 720q0 380 176.5 571t536.5 191q330 4 514 -189t185 -555q0 -350 -158 -540q-177 -213 -555 -213q-346 0 -522.5 184t-176.5 551zM386 715q0 -250 98.5 -373.5t310.5 -119.5q234 -3 327.5 121t92.5 392q0 254 -94 383t-313 126q-230 3 -326 -125.5t-96 -403.5z M508 1895h328l105 -265l-135 -62z" />
<glyph unicode="&#xd3;" horiz-adv-x="1593" d="M94 720q0 380 176.5 571t536.5 191q330 4 514 -189t185 -555q0 -350 -158 -540q-177 -213 -555 -213q-346 0 -522.5 184t-176.5 551zM386 715q0 -250 98.5 -373.5t310.5 -119.5q234 -3 327.5 121t92.5 392q0 254 -94 383t-313 126q-230 3 -326 -125.5t-96 -403.5z M689 1630l105 265h327l-297 -327z" />
<glyph unicode="&#xd4;" horiz-adv-x="1593" d="M94 720q0 380 176.5 571t536.5 191q330 4 514 -189t185 -555q0 -350 -158 -540q-177 -213 -555 -213q-346 0 -522.5 184t-176.5 551zM386 715q0 -250 98.5 -373.5t310.5 -119.5q234 -3 327.5 121t92.5 392q0 254 -94 383t-313 126q-230 3 -326 -125.5t-96 -403.5z M490 1638l226 257h172l225 -266l-194 -66l-111 195l-112 -195z" />
<glyph unicode="&#xd5;" horiz-adv-x="1593" d="M94 720q0 380 176.5 571t536.5 191q330 4 514 -189t185 -555q0 -350 -158 -540q-177 -213 -555 -213q-346 0 -522.5 184t-176.5 551zM386 715q0 -250 98.5 -373.5t310.5 -119.5q234 -3 327.5 121t92.5 392q0 254 -94 383t-313 126q-230 3 -326 -125.5t-96 -403.5z M441 1776q33 27 92 53.5t123 26.5q58 0 138 -28.5t121 -28.5q72 0 137 52l90 -166q-81 -79 -196 -79q-57 0 -133.5 30t-127.5 30q-32 0 -65.5 -12.5t-44.5 -19.5t-40 -27z" />
<glyph unicode="&#xd6;" horiz-adv-x="1593" d="M94 720q0 380 176.5 571t536.5 191q330 4 514 -189t185 -555q0 -350 -158 -540q-177 -213 -555 -213q-346 0 -522.5 184t-176.5 551zM386 715q0 -250 98.5 -373.5t310.5 -119.5q234 -3 327.5 121t92.5 392q0 254 -94 383t-313 126q-230 3 -326 -125.5t-96 -403.5z M455 1734q0 128 126 128q128 0 128 -128q0 -126 -128 -126q-126 0 -126 126zM883 1734q0 128 126 128q128 0 128 -128q0 -126 -128 -126q-126 0 -126 126z" />
<glyph unicode="&#xd7;" horiz-adv-x="1196" d="M118 1035l169 169l314 -324l311 320l158 -164l-315 -309l322 -313l-169 -169l-314 323l-315 -324l-159 164l322 313z" />
<glyph unicode="&#xd8;" horiz-adv-x="1593" d="M73 35l160 180q-59 80 -93 184q-46 138 -46 321q0 389 176 580.5t537 191.5q159 0 289 -50q82 -31 151 -83l156 175l124 -108l-164 -185q58 -77 94 -181q49 -138 49 -322q0 -763 -713 -763q-169 0 -299 48q-77 29 -143 75l-153 -173zM392 715q0 -140 22 -234 q3 -17 13 -47l656 739q-35 30 -83 49q-76 30 -192 30q-228 0 -322 -125t-94 -412zM520 289q37 -30 89 -49q78 -26 186 -26q119 0 198.5 29.5t127.5 95.5t68 161t20 235q0 134 -20 234q-6 29 -15 59z" />
<glyph unicode="&#xd9;" horiz-adv-x="1479" d="M149 643v823h278v-844q0 -220 67 -316t235 -96q96 0 156 23t93.5 76.5t45.5 126t12 186.5v844h278v-821q0 -119 -9.5 -206.5t-33.5 -166.5t-66.5 -131.5t-107.5 -91.5t-157.5 -56.5t-216.5 -17.5q-117 0 -205.5 17.5t-152 55.5t-105.5 90.5t-66.5 130.5t-34.5 167 t-10 207zM431 1895h328l105 -265l-135 -62z" />
<glyph unicode="&#xda;" horiz-adv-x="1479" d="M149 643v823h278v-844q0 -220 67 -316t235 -96q96 0 156 23t93.5 76.5t45.5 126t12 186.5v844h278v-821q0 -119 -9.5 -206.5t-33.5 -166.5t-66.5 -131.5t-107.5 -91.5t-157.5 -56.5t-216.5 -17.5q-117 0 -205.5 17.5t-152 55.5t-105.5 90.5t-66.5 130.5t-34.5 167 t-10 207zM592 1630l105 265h327l-297 -327z" />
<glyph unicode="&#xdb;" horiz-adv-x="1479" d="M149 643v823h278v-844q0 -220 67 -316t235 -96q96 0 156 23t93.5 76.5t45.5 126t12 186.5v844h278v-821q0 -119 -9.5 -206.5t-33.5 -166.5t-66.5 -131.5t-107.5 -91.5t-157.5 -56.5t-216.5 -17.5q-117 0 -205.5 17.5t-152 55.5t-105.5 90.5t-66.5 130.5t-34.5 167 t-10 207zM433 1638l226 257h172l225 -266l-194 -66l-111 195l-112 -195z" />
<glyph unicode="&#xdc;" horiz-adv-x="1479" d="M149 643v823h278v-844q0 -220 67 -316t235 -96q96 0 156 23t93.5 76.5t45.5 126t12 186.5v844h278v-821q0 -119 -9.5 -206.5t-33.5 -166.5t-66.5 -131.5t-107.5 -91.5t-157.5 -56.5t-216.5 -17.5q-117 0 -205.5 17.5t-152 55.5t-105.5 90.5t-66.5 130.5t-34.5 167 t-10 207zM388 1734q0 128 126 128q128 0 128 -128q0 -126 -128 -126q-126 0 -126 126zM816 1734q0 128 126 128q128 0 128 -128q0 -126 -128 -126q-126 0 -126 126z" />
<glyph unicode="&#xdd;" horiz-adv-x="1366" d="M2 1466h332l361 -629l357 629h311l-545 -851v-615h-271v618zM581 1630l105 265h327l-297 -327z" />
<glyph unicode="&#xde;" horiz-adv-x="1366" d="M149 0v1466h276v-278h334q72 0 125.5 -4t110.5 -15.5t97 -31.5t77 -54t59.5 -81t35.5 -113.5t13 -151.5q0 -110 -23 -190.5t-63.5 -132t-106.5 -82t-142.5 -42.5t-180.5 -12h-336v-278h-276zM425 511h321q131 0 186 54.5t55 171.5q0 131 -51 174.5t-190 43.5h-321v-444z " />
<glyph unicode="&#xdf;" horiz-adv-x="1251" d="M138 0v1057q0 223 107.5 328.5t342.5 105.5q221 0 316.5 -90t95.5 -292q0 -148 -87 -238q-32 -33 -79 -56q48 -7 87 -18q134 -39 191.5 -129.5t57.5 -241.5q0 -129 -23.5 -216.5t-74 -139t-120.5 -73.5t-172 -22q-115 0 -254 43l64 227q108 -32 175 -32q80 0 110 43 t30 170q0 136 -51 189t-196 53h-104v242h38q94 0 126.5 42.5t32.5 152.5q0 102 -40.5 140t-122.5 38q-99 0 -138.5 -57.5t-39.5 -176.5v-1049h-272z" />
<glyph unicode="&#xe0;" d="M73 306q0 333 411 333q139 0 249 -20v52q0 62 -11.5 100.5t-39.5 59.5t-65 28t-98 7q-153 0 -373 -55l-41 212q82 23 207.5 38t248.5 15q239 0 342 -93t103 -325v-352l50 -306h-235l-68 169l-118 -163q-68 -20 -183 -20q-198 0 -288.5 75.5t-90.5 244.5zM261 1491h328 l105 -265l-135 -62zM343 310q0 -67 39.5 -96.5t121.5 -29.5q130 0 229 59v216h-187q-113 0 -158 -34t-45 -115z" />
<glyph unicode="&#xe1;" d="M73 306q0 333 411 333q139 0 249 -20v52q0 62 -11.5 100.5t-39.5 59.5t-65 28t-98 7q-153 0 -373 -55l-41 212q82 23 207.5 38t248.5 15q239 0 342 -93t103 -325v-352l50 -306h-235l-68 169l-118 -163q-68 -20 -183 -20q-198 0 -288.5 75.5t-90.5 244.5zM343 310 q0 -67 39.5 -96.5t121.5 -29.5q130 0 229 59v216h-187q-113 0 -158 -34t-45 -115zM422 1226l105 265h327l-297 -327z" />
<glyph unicode="&#xe2;" d="M73 306q0 333 411 333q139 0 249 -20v52q0 62 -11.5 100.5t-39.5 59.5t-65 28t-98 7q-153 0 -373 -55l-41 212q82 23 207.5 38t248.5 15q239 0 342 -93t103 -325v-352l50 -306h-235l-68 169l-118 -163q-68 -20 -183 -20q-198 0 -288.5 75.5t-90.5 244.5zM233 1234 l226 257h172l225 -266l-194 -66l-111 195l-112 -195zM343 310q0 -67 39.5 -96.5t121.5 -29.5q130 0 229 59v216h-187q-113 0 -158 -34t-45 -115z" />
<glyph unicode="&#xe3;" d="M73 306q0 333 411 333q139 0 249 -20v52q0 62 -11.5 100.5t-39.5 59.5t-65 28t-98 7q-153 0 -373 -55l-41 212q82 23 207.5 38t248.5 15q239 0 342 -93t103 -325v-352l50 -306h-235l-68 169l-118 -163q-68 -20 -183 -20q-198 0 -288.5 75.5t-90.5 244.5zM184 1402 q33 27 92 53.5t123 26.5q58 0 138 -28.5t121 -28.5q72 0 137 52l90 -166q-81 -79 -196 -79q-57 0 -133.5 30t-127.5 30q-32 0 -65.5 -12.5t-44.5 -19.5t-40 -27zM343 310q0 -67 39.5 -96.5t121.5 -29.5q130 0 229 59v216h-187q-113 0 -158 -34t-45 -115z" />
<glyph unicode="&#xe4;" d="M73 306q0 333 411 333q139 0 249 -20v52q0 62 -11.5 100.5t-39.5 59.5t-65 28t-98 7q-153 0 -373 -55l-41 212q82 23 207.5 38t248.5 15q239 0 342 -93t103 -325v-352l50 -306h-235l-68 169l-118 -163q-68 -20 -183 -20q-198 0 -288.5 75.5t-90.5 244.5zM215 1370 q0 128 126 128q128 0 128 -128q0 -126 -128 -126q-126 0 -126 126zM343 310q0 -67 39.5 -96.5t121.5 -29.5q130 0 229 59v216h-187q-113 0 -158 -34t-45 -115zM643 1370q0 128 126 128q128 0 128 -128q0 -126 -128 -126q-126 0 -126 126z" />
<glyph unicode="&#xe5;" d="M73 306q0 333 411 333q139 0 249 -20v52q0 62 -11.5 100.5t-39.5 59.5t-65 28t-98 7q-153 0 -373 -55l-41 212q82 23 207.5 38t248.5 15q239 0 342 -93t103 -325v-352l50 -306h-235l-68 169l-118 -163q-68 -20 -183 -20q-198 0 -288.5 75.5t-90.5 244.5zM343 310 q0 -67 39.5 -96.5t121.5 -29.5q130 0 229 59v216h-187q-113 0 -158 -34t-45 -115zM376 1341q0 90 53 143.5t140 53.5t140.5 -53.5t53.5 -143.5t-53 -143t-141 -53q-87 0 -140 53t-53 143zM475 1344q0 -51 24 -79.5t69 -28.5t69 28.5t24 79.5q0 49 -24.5 77.5t-68.5 28.5 t-68.5 -28.5t-24.5 -77.5z" />
<glyph unicode="&#xe6;" horiz-adv-x="1821" d="M88 306q0 176 106.5 254.5t304.5 78.5q92 0 199 -23q34 -8 50 -13v48q0 123 -49 171.5t-165 48.5q-155 0 -353 -71l-65 195q90 39 215 65t245 26q227 0 330 -100q7 -6 19 -20q57 60 134 88q87 32 196 32q231 0 350 -143t119 -407v-111h-713v-12l9 -48 q23 -101 88.5 -141.5t188.5 -40.5q143 0 336 78l76 -200q-200 -85 -449 -85q-245 0 -352 120q-23 26 -39 55l-219 -155q-68 -20 -183 -20q-197 0 -288 79.5t-91 250.5zM358 310q0 -136 151 -136q104 0 179 45q29 18 60 44v187l-38 3q-82 6 -149 6q-108 0 -155.5 -34.5 t-47.5 -114.5zM1011 600h450q0 281 -210 281q-88 0 -145 -39t-84 -135q-6 -20 -11 -56v-51z" />
<glyph unicode="&#xe7;" d="M85 546q0 282 128 406t382 124q226 0 344 -110t132 -310l-269 -32q-4 41 -12 75t-23 66.5t-37 54.5t-55.5 35.5t-75.5 13.5q-124 0 -177 -73t-53 -250q0 -183 65.5 -268.5t201.5 -85.5q171 0 333 63l58 -210q-167 -59 -417 -59q-123 0 -216 29t-164 92.5t-108 174 t-37 264.5zM326 -403l27 139q17 -4 31 -5q27 -4 88 -4q174 0 174 78q0 77 -127 77q-31 0 -66 -5q-23 -4 -38 -5l19 89q17 5 51 13q62 14 105 14q100 0 173.5 -54t73.5 -146q0 -80 -44 -127.5t-115 -64.5t-179 -17q-68 0 -124 9z" />
<glyph unicode="&#xe8;" d="M72 523q0 557 509 557q231 0 350 -140t119 -404v-113h-714q16 -132 81.5 -181t205.5 -49q203 0 337 52l50 -207q-147 -52 -424 -52q-128 0 -220 27t-160 88.5t-101 166t-33 255.5zM271 1491h328l105 -265l-135 -62zM332 600h455q0 145 -52 212.5t-158 67.5 q-108 0 -171 -61.5t-74 -218.5z" />
<glyph unicode="&#xe9;" d="M72 523q0 557 509 557q231 0 350 -140t119 -404v-113h-714q16 -132 81.5 -181t205.5 -49q203 0 337 52l50 -207q-147 -52 -424 -52q-128 0 -220 27t-160 88.5t-101 166t-33 255.5zM332 600h455q0 145 -52 212.5t-158 67.5q-108 0 -171 -61.5t-74 -218.5zM472 1226 l105 265h327l-297 -327z" />
<glyph unicode="&#xea;" d="M72 523q0 557 509 557q231 0 350 -140t119 -404v-113h-714q16 -132 81.5 -181t205.5 -49q203 0 337 52l50 -207q-147 -52 -424 -52q-128 0 -220 27t-160 88.5t-101 166t-33 255.5zM263 1234l226 257h172l225 -266l-194 -66l-111 195l-112 -195zM332 600h455 q0 145 -52 212.5t-158 67.5q-108 0 -171 -61.5t-74 -218.5z" />
<glyph unicode="&#xeb;" d="M72 523q0 557 509 557q231 0 350 -140t119 -404v-113h-714q16 -132 81.5 -181t205.5 -49q203 0 337 52l50 -207q-147 -52 -424 -52q-128 0 -220 27t-160 88.5t-101 166t-33 255.5zM238 1370q0 128 126 128q128 0 128 -128q0 -126 -128 -126q-126 0 -126 126zM332 600h455 q0 145 -52 212.5t-158 67.5q-108 0 -171 -61.5t-74 -218.5zM666 1370q0 128 126 128q128 0 128 -128q0 -126 -128 -126q-126 0 -126 126z" />
<glyph unicode="&#xec;" horiz-adv-x="569" d="M-24 1491h328l105 -265l-135 -62zM160 0v1062h267v-1062h-267z" />
<glyph unicode="&#xed;" horiz-adv-x="569" d="M160 0v1062h267v-1062h-267zM167 1226l105 265h327l-297 -327z" />
<glyph unicode="&#xee;" horiz-adv-x="569" d="M-15 1234l226 257h172l225 -266l-194 -66l-111 195l-112 -195zM160 0v1062h267v-1062h-267z" />
<glyph unicode="&#xef;" horiz-adv-x="569" d="M-47 1370q0 128 126 128q128 0 128 -128q0 -126 -128 -126q-126 0 -126 126zM160 0v1062h267v-1062h-267zM381 1370q0 128 126 128q128 0 128 -128q0 -126 -128 -126q-126 0 -126 126z" />
<glyph unicode="&#xf0;" horiz-adv-x="1251" d="M92 520q0 286 119 413.5t342 127.5q67 0 130 -15q45 -10 88 -24q-51 92 -132 179l-216 -102l-54 100l184 88q-57 52 -141 116l116 133q63 -43 129 -97q41 -33 77 -66l193 93l55 -102l-160 -76q59 -60 116 -133q236 -296 236 -609q0 -281 -131 -425.5t-417 -144.5 q-271 0 -402.5 129t-131.5 415zM368 520q0 -180 56 -253t202 -73q137 0 200 75.5t63 250.5q0 145 -27 265l-1 2q-32 16 -68 29q-98 36 -196 36q-129 0 -179 -73t-50 -259z" />
<glyph unicode="&#xf1;" horiz-adv-x="1251" d="M145 0v1062h220l45 -165l200 161q70 18 164 18q99 0 165 -21.5t104.5 -69.5t54 -115.5t15.5 -168.5v-701h-281v698q0 93 -32.5 128t-124.5 35q-105 0 -253 -43v-818h-277zM290 1402q33 27 92 53.5t123 26.5q58 0 138 -28.5t121 -28.5q72 0 137 52l90 -166 q-81 -79 -196 -79q-57 0 -133.5 30t-127.5 30q-32 0 -65.5 -12.5t-44.5 -19.5t-40 -27z" />
<glyph unicode="&#xf2;" horiz-adv-x="1251" d="M81 530q0 273 141 412.5t408 139.5q266 0 407 -141t141 -411q0 -271 -138.5 -410t-409.5 -139t-410 131.5t-139 417.5zM317 1491h328l105 -265l-135 -62zM370 530q0 -183 61 -270.5t199 -87.5q135 0 196.5 84t61.5 274q0 191 -58.5 274.5t-199.5 83.5q-135 0 -197.5 -85 t-62.5 -273z" />
<glyph unicode="&#xf3;" horiz-adv-x="1251" d="M81 530q0 273 141 412.5t408 139.5q266 0 407 -141t141 -411q0 -271 -138.5 -410t-409.5 -139t-410 131.5t-139 417.5zM370 530q0 -183 61 -270.5t199 -87.5q135 0 196.5 84t61.5 274q0 191 -58.5 274.5t-199.5 83.5q-135 0 -197.5 -85t-62.5 -273zM528 1226l105 265h327 l-297 -327z" />
<glyph unicode="&#xf4;" horiz-adv-x="1251" d="M81 530q0 273 141 412.5t408 139.5q266 0 407 -141t141 -411q0 -271 -138.5 -410t-409.5 -139t-410 131.5t-139 417.5zM309 1234l226 257h172l225 -266l-194 -66l-111 195l-112 -195zM370 530q0 -183 61 -270.5t199 -87.5q135 0 196.5 84t61.5 274q0 191 -58.5 274.5 t-199.5 83.5q-135 0 -197.5 -85t-62.5 -273z" />
<glyph unicode="&#xf5;" horiz-adv-x="1251" d="M81 530q0 273 141 412.5t408 139.5q266 0 407 -141t141 -411q0 -271 -138.5 -410t-409.5 -139t-410 131.5t-139 417.5zM280 1402q33 27 92 53.5t123 26.5q58 0 138 -28.5t121 -28.5q72 0 137 52l90 -166q-81 -79 -196 -79q-57 0 -133.5 30t-127.5 30q-32 0 -65.5 -12.5 t-44.5 -19.5t-40 -27zM370 530q0 -183 61 -270.5t199 -87.5q135 0 196.5 84t61.5 274q0 191 -58.5 274.5t-199.5 83.5q-135 0 -197.5 -85t-62.5 -273z" />
<glyph unicode="&#xf6;" horiz-adv-x="1251" d="M81 530q0 273 141 412.5t408 139.5q266 0 407 -141t141 -411q0 -271 -138.5 -410t-409.5 -139t-410 131.5t-139 417.5zM284 1370q0 128 126 128q128 0 128 -128q0 -126 -128 -126q-126 0 -126 126zM370 530q0 -183 61 -270.5t199 -87.5q135 0 196.5 84t61.5 274 q0 191 -58.5 274.5t-199.5 83.5q-135 0 -197.5 -85t-62.5 -273zM712 1370q0 128 126 128q128 0 128 -128q0 -126 -128 -126q-126 0 -126 126z" />
<glyph unicode="&#xf7;" horiz-adv-x="1124" d="M49 593v262h1026v-262h-1026zM411 323q0 82 34.5 117t116.5 35t117 -35t35 -117t-35 -116.5t-117 -34.5t-116.5 34.5t-34.5 116.5zM411 1124q0 82 34.5 117t116.5 35t117 -35t35 -117t-35 -116.5t-117 -34.5t-116.5 34.5t-34.5 116.5z" />
<glyph unicode="&#xf8;" horiz-adv-x="1251" d="M87 530q0 273 141 414.5t408 141.5q126 0 226 -39q54 -22 89 -44l99 115l107 -88l-101 -118q57 -66 89 -151q39 -103 39 -231q0 -273 -138 -413.5t-410 -140.5q-129 0 -230 34q-46 16 -90 41l-106 -124l-106 91l105 122q-53 62 -84 147q-38 105 -38 243zM376 530 q0 -103 13 -168l2 -11l418 486q-20 16 -44 23q-49 18 -129 18q-136 0 -198 -80.5t-62 -267.5zM464 223q22 -16 48 -23q48 -16 124 -16q136 0 197 78.5t61 267.5q0 94 -11 165l-3 13z" />
<glyph unicode="&#xf9;" horiz-adv-x="1251" d="M137 478v584h276v-495q0 -154 19.5 -235.5t62.5 -114t125 -32.5q68 0 108 16.5t65 62.5t33.5 116.5t8.5 189.5v492h276v-584q0 -143 -27 -239t-88 -154.5t-151.5 -83.5t-224.5 -25q-186 0 -289 47t-148.5 154.5t-45.5 300.5zM309 1491h328l105 -265l-135 -62z" />
<glyph unicode="&#xfa;" horiz-adv-x="1251" d="M137 478v584h276v-495q0 -154 19.5 -235.5t62.5 -114t125 -32.5q68 0 108 16.5t65 62.5t33.5 116.5t8.5 189.5v492h276v-584q0 -143 -27 -239t-88 -154.5t-151.5 -83.5t-224.5 -25q-186 0 -289 47t-148.5 154.5t-45.5 300.5zM508 1226l105 265h327l-297 -327z" />
<glyph unicode="&#xfb;" horiz-adv-x="1251" d="M137 478v584h276v-495q0 -154 19.5 -235.5t62.5 -114t125 -32.5q68 0 108 16.5t65 62.5t33.5 116.5t8.5 189.5v492h276v-584q0 -143 -27 -239t-88 -154.5t-151.5 -83.5t-224.5 -25q-186 0 -289 47t-148.5 154.5t-45.5 300.5zM319 1234l226 257h172l225 -266l-194 -66 l-111 195l-112 -195z" />
<glyph unicode="&#xfc;" horiz-adv-x="1251" d="M137 478v584h276v-495q0 -154 19.5 -235.5t62.5 -114t125 -32.5q68 0 108 16.5t65 62.5t33.5 116.5t8.5 189.5v492h276v-584q0 -143 -27 -239t-88 -154.5t-151.5 -83.5t-224.5 -25q-186 0 -289 47t-148.5 154.5t-45.5 300.5zM284 1370q0 128 126 128q128 0 128 -128 q0 -126 -128 -126q-126 0 -126 126zM712 1370q0 128 126 128q128 0 128 -128q0 -126 -128 -126q-126 0 -126 126z" />
<glyph unicode="&#xfd;" d="M14 1062h297l267 -813l247 813h281l-424 -1155q-64 -175 -182.5 -256.5t-273.5 -81.5q-105 0 -174 15l41 216q54 -9 102 -9q174 0 227 159l16 49zM457 1226l105 265h327l-297 -327z" />
<glyph unicode="&#xfe;" horiz-adv-x="1251" d="M139 -405v1871h280v-462l14 6q166 76 323 76q93 0 165 -27t130 -88.5t89 -172.5t31 -267q0 -273 -117.5 -414t-308.5 -141q-124 0 -251 43q-44 15 -75 30v-454h-280zM419 234q2 -1 17 -7t24 -9q89 -33 197 -33q125 0 179.5 79.5t54.5 265.5q0 187 -53 266.5t-177 79.5 q-134 0 -242 -51v-591z" />
<glyph unicode="&#xff;" d="M14 1062h297l267 -813l247 813h281l-424 -1155q-64 -175 -182.5 -256.5t-273.5 -81.5q-105 0 -174 15l41 216q54 -9 102 -9q174 0 227 159l16 49zM228 1370q0 128 126 128q128 0 128 -128q0 -126 -128 -126q-126 0 -126 126zM656 1370q0 128 126 128q128 0 128 -128 q0 -126 -128 -126q-126 0 -126 126z" />
<glyph unicode="&#x152;" horiz-adv-x="2048" d="M71 720q0 772 573 772q244 0 382 -203l24 -38v215h907v-234h-680v-373h575v-233h-575v-393h708v-233h-935v193q-38 -66 -92 -112q-120 -106 -316 -106q-571 0 -571 745zM369 715q0 -260 78.5 -380.5t244.5 -120.5q176 0 255 124t79 397q0 260 -79 388.5t-242 128.5 q-184 0 -260 -125.5t-76 -411.5z" />
<glyph unicode="&#x153;" horiz-adv-x="1933" d="M88 530q0 271 137.5 413.5t388.5 142.5q243 0 362 -143q16 -19 29 -38q18 29 35 49q113 132 340 132q231 0 350 -143t119 -407v-113h-714q5 -38 11 -58q25 -100 91 -141t185 -41q143 0 336 78l76 -200q-200 -85 -449 -85q-233 0 -345 120q-22 24 -38 51q-14 -20 -22 -29 q-121 -142 -364 -142q-528 0 -528 554zM373 530q0 -180 61 -263t193 -83q129 0 188.5 79t59.5 267q0 189 -56.5 268.5t-191.5 79.5q-130 0 -192 -81.5t-62 -266.5zM1130 600h460q0 281 -214 281q-88 0 -145 -39t-84 -135q-13 -47 -17 -107z" />
<glyph unicode="&#x178;" horiz-adv-x="1366" d="M2 1466h332l361 -629l357 629h311l-545 -851v-615h-271v618zM352 1734q0 128 126 128q128 0 128 -128q0 -126 -128 -126q-126 0 -126 126zM780 1734q0 128 126 128q128 0 128 -128q0 -126 -128 -126q-126 0 -126 126z" />
<glyph unicode="&#x2c6;" horiz-adv-x="682" d="M25 1234l226 257h172l225 -266l-194 -66l-111 195l-112 -195z" />
<glyph unicode="&#x2dc;" horiz-adv-x="682" d="M-12 1402q33 27 92 53.5t123 26.5q58 0 138 -28.5t121 -28.5q72 0 137 52l90 -166q-81 -79 -196 -79q-57 0 -133.5 30t-127.5 30q-32 0 -65.5 -12.5t-44.5 -19.5t-40 -27z" />
<glyph unicode="&#x2000;" horiz-adv-x="971" />
<glyph unicode="&#x2001;" horiz-adv-x="1942" />
<glyph unicode="&#x2002;" horiz-adv-x="971" />
<glyph unicode="&#x2003;" horiz-adv-x="1942" />
<glyph unicode="&#x2004;" horiz-adv-x="647" />
<glyph unicode="&#x2005;" horiz-adv-x="485" />
<glyph unicode="&#x2006;" horiz-adv-x="323" />
<glyph unicode="&#x2007;" horiz-adv-x="323" />
<glyph unicode="&#x2008;" horiz-adv-x="242" />
<glyph unicode="&#x2009;" horiz-adv-x="388" />
<glyph unicode="&#x200a;" horiz-adv-x="107" />
<glyph unicode="&#x2010;" horiz-adv-x="682" d="M105 401v251h562v-251h-562z" />
<glyph unicode="&#x2011;" horiz-adv-x="682" d="M105 401v251h562v-251h-562z" />
<glyph unicode="&#x2012;" horiz-adv-x="682" d="M105 401v251h562v-251h-562z" />
<glyph unicode="&#x2013;" d="M-4 426v210h1139v-210h-1139z" />
<glyph unicode="&#x2014;" horiz-adv-x="2048" d="M0 426v210h2048v-210h-2048z" />
<glyph unicode="&#x2018;" horiz-adv-x="569" d="M118 1072q0 161 72.5 257t210.5 151l53 -111q-85 -36 -125 -84.5t-40 -121.5q90 -2 131 -37t41 -115q0 -76 -43.5 -117t-127.5 -41q-172 0 -172 219z" />
<glyph unicode="&#x2019;" horiz-adv-x="569" d="M107 1323q0 76 43.5 117t127.5 41q172 0 172 -219q0 -160 -73 -257.5t-210 -150.5l-53 111q85 36 125 84.5t40 121.5q-90 2 -131 37t-41 115z" />
<glyph unicode="&#x201a;" horiz-adv-x="569" d="M112 142q0 76 43.5 117t127.5 41q172 0 172 -219q0 -160 -73 -257.5t-210 -150.5l-53 111q85 36 125 84.5t40 121.5q-90 2 -131 37t-41 115z" />
<glyph unicode="&#x201c;" horiz-adv-x="1024" d="M96 1072q0 161 72.5 257t210.5 151l53 -111q-85 -36 -125 -84.5t-40 -121.5q90 -2 131 -37t41 -115q0 -76 -43.5 -117t-127.5 -41q-172 0 -172 219zM568 1072q0 161 72.5 257t210.5 151l53 -111q-85 -36 -125 -84.5t-40 -121.5q90 -2 131 -37t41 -115q0 -76 -43.5 -117 t-127.5 -41q-172 0 -172 219z" />
<glyph unicode="&#x201d;" horiz-adv-x="1024" d="M97 1322q0 76 43.5 117t127.5 41q172 0 172 -219q0 -160 -73 -257.5t-210 -150.5l-53 111q85 36 125 84.5t40 121.5q-90 2 -131 37t-41 115zM561 1322q0 76 43.5 117t127.5 41q172 0 172 -219q0 -160 -73 -257.5t-210 -150.5l-53 111q85 36 125 84.5t40 121.5 q-90 2 -131 37t-41 115z" />
<glyph unicode="&#x201e;" horiz-adv-x="1024" d="M100 142q0 76 43.5 117t127.5 41q172 0 172 -219q0 -160 -73 -257.5t-210 -150.5l-53 111q85 36 125 84.5t40 121.5q-90 2 -131 37t-41 115zM559 142q0 76 43.5 117t127.5 41q172 0 172 -219q0 -160 -73 -257.5t-210 -150.5l-53 111q85 36 125 84.5t40 121.5 q-90 2 -131 37t-41 115z" />
<glyph unicode="&#x2022;" horiz-adv-x="717" d="M83 723q0 129 75 204t204 75t203.5 -75t74.5 -204q0 -130 -74 -204t-204 -74q-129 0 -204 74.5t-75 203.5z" />
<glyph unicode="&#x2026;" horiz-adv-x="2048" d="M178 136q0 164 162 164q164 0 164 -164q0 -162 -164 -162q-162 0 -162 162zM859 136q0 164 162 164q164 0 164 -164q0 -162 -164 -162q-162 0 -162 162zM1542 136q0 164 162 164q164 0 164 -164q0 -162 -164 -162q-162 0 -162 162z" />
<glyph unicode="&#x202f;" horiz-adv-x="388" />
<glyph unicode="&#x2039;" horiz-adv-x="682" d="M75 532l329 471l165 -90l-236 -382l234 -394l-156 -97z" />
<glyph unicode="&#x203a;" horiz-adv-x="682" d="M112 904l165 90l329 -471l-336 -492l-156 97l233 394z" />
<glyph unicode="&#x205f;" horiz-adv-x="485" />
<glyph unicode="&#x20ac;" d="M-28 515l28 149h103q-1 24 -1 75q0 45 1 67h-131l28 150h117q36 224 151 351q166 184 494 184q175 0 323 -45l-57 -244q-127 52 -266 52q-155 0 -241 -64t-118 -209q-4 -16 -5 -25h593l-27 -150h-581q-1 -20 -1 -61q0 -56 1 -81h564l-28 -149h-523l3 -21 q27 -152 108.5 -215t243.5 -63q129 0 285 66l47 -253q-154 -54 -332 -54q-271 0 -420 109.5t-198 327.5q-11 50 -18 103h-143z" />
<glyph unicode="&#x2122;" horiz-adv-x="2048" d="M215 1332v134h666v-134h-251v-685h-157v685h-258zM984 647v819h222l184 -476l205 476h196v-819h-143v641l-196 -464h-128l-197 475v-652h-143z" />
<glyph unicode="&#x25fc;" horiz-adv-x="1060" d="M0 0v1060h1060v-1060h-1060z" />
<glyph unicode="&#xfb01;" horiz-adv-x="1251" d="M31 861v201h157v98q0 161 88.5 241t237.5 80q58 0 115.5 -3t86.5 -6l29 -3l-36 -205l-137 2q-66 0 -90.5 -27t-24.5 -93v-84h221v-201h-221v-861h-269v861h-157zM814 1342q0 77 37.5 113t113.5 36q77 0 115 -36t38 -113q0 -147 -153 -147q-78 0 -114.5 33.5t-36.5 113.5z M834 0v1062h267v-1062h-267z" />
<glyph unicode="&#xfb02;" horiz-adv-x="1251" d="M31 861v201h157v98q0 161 88.5 241t237.5 80q58 0 115.5 -3t86.5 -6l29 -3l-36 -205l-137 2q-66 0 -90.5 -27t-24.5 -93v-84h221v-201h-221v-861h-269v861h-157zM834 0v1466h261v-1466h-261z" />
</font>
</defs>
</svg>
