<?xml version="1.0" encoding="utf-8"?>
<!-- Svg Vector Icons : http://www.onlinewebfonts.com/icon -->
<!DOCTYPE svg PUBLIC "-//W3C//DTD SVG 1.1//EN" "http://www.w3.org/Graphics/SVG/1.1/DTD/svg11.dtd">
<svg version="1.1" xmlns="http://www.w3.org/2000/svg" xmlns:xlink="http://www.w3.org/1999/xlink" x="0px" y="0px" viewBox="0 0 256 256" enable-background="new 0 0 256 256" xml:space="preserve">
<metadata> Svg Vector Icons : http://www.onlinewebfonts.com/icon </metadata>
<g><g><path fill="#ffffff" d="M128,10C63.3,10,10,63.3,10,128c0,64.7,53.3,118,118,118c64.7,0,118-53.3,118-118C246,63.3,192.7,10,128,10z M199.1,208.8c0-32.3-24.3-59.8-53.3-67.9c17.8-6.5,29.1-24.3,29.1-43.6c0-25.9-21-46.9-46.9-46.9s-46.9,21-46.9,46.9c0,19.4,12.9,37.2,29.1,43.6c-30.7,8.1-53.3,35.6-53.3,67.9c-22.6-19.4-37.1-48.5-37.1-80.8C19.7,68.2,68.2,19.7,128,19.7c59.8,0,108.3,48.5,108.3,108.3C236.3,160.3,221.8,189.4,199.1,208.8z"/></g></g>
</svg>
