<?xml version="1.0" encoding="UTF-8"?>
<!DOCTYPE svg PUBLIC "-//W3C//DTD SVG 1.1//EN" "http://www.w3.org/Graphics/SVG/1.1/DTD/svg11.dtd">
<!-- Creator: CorelDRAW 2021 (64 Bit) -->
<svg xmlns="http://www.w3.org/2000/svg" xml:space="preserve" width="98.7949mm" height="31.0901mm" version="1.1" style="shape-rendering:geometricPrecision; text-rendering:geometricPrecision; image-rendering:optimizeQuality; fill-rule:evenodd; clip-rule:evenodd"
viewBox="0 0 2795.86 879.84"
 xmlns:xlink="http://www.w3.org/1999/xlink"
 xmlns:xodm="http://www.corel.com/coreldraw/odm/2003">
 <defs>
  <style type="text/css">
   <![CDATA[
    .str0 {stroke:#373435;stroke-width:2.16;stroke-miterlimit:22.9256}
    .fil1 {fill:none;fill-rule:nonzero}
    .fil3 {fill:#FEFEFE}
    .fil2 {fill:#373435}
    .fil0 {fill:#373435;fill-rule:nonzero}
   ]]>
  </style>
 </defs>
 <g id="Camada_x0020_1">
  <metadata id="CorelCorpID_0Corel-Layer"/>
  <polygon class="fil0" points="227.7,551.17 227.7,74.96 1.08,74.96 1.08,13.06 521.22,13.06 521.22,74.96 294.59,74.96 294.59,551.17 "/>
  <polygon id="_1" class="fil0" points="550.17,551.17 550.17,13.06 618.05,13.06 618.05,225.71 935.53,225.71 935.53,13.06 1002.42,13.06 1002.42,551.17 935.53,551.17 935.53,287.61 618.05,287.61 618.05,551.17 "/>
  <polygon id="_2" class="fil0" points="1165.32,551.17 1165.32,13.06 1588.62,13.06 1588.62,74.96 1232.2,74.96 1232.2,232.7 1447.85,232.7 1447.85,294.59 1232.2,294.59 1232.2,489.27 1610.58,489.27 1610.58,551.17 "/>
  <path id="_3" class="fil0" d="M1659 470.14l38.93 -57.74c38.1,29.45 77.71,51.91 118.8,67.55 41.1,15.47 81.86,23.3 122.13,23.3 49.75,0 90.19,-10.49 121.13,-31.62 31.12,-21.13 46.59,-48.25 46.59,-81.36 0,-26.29 -11.15,-47.92 -33.44,-64.89 -22.3,-16.97 -53.08,-27.12 -92.35,-30.45 -9.49,-1 -23.13,-2 -40.93,-2.83 -88.52,-6.32 -148.75,-16.64 -181.03,-31.28 -24.96,-12.15 -44.09,-27.62 -57.07,-46.59 -12.98,-19.13 -19.47,-40.43 -19.47,-64.23 0,-43.26 19.3,-78.87 58.07,-106.99 38.6,-27.95 88.85,-41.93 150.59,-41.93 44.93,0 89.19,7.32 132.95,22.13 43.76,14.81 85.36,36.77 124.63,65.73l-38.94 55.91c-33.28,-26.79 -68.05,-46.92 -104.66,-60.57 -36.61,-13.48 -74.21,-20.3 -112.81,-20.3 -40.6,0 -74.04,7.99 -100.5,23.79 -26.29,15.81 -39.43,35.61 -39.43,59.4 0,9.32 2.16,17.97 6.32,25.79 4.16,7.82 10.82,15.31 19.47,22.13 22.13,16.47 69.89,27.12 143.43,31.61 33.78,2 60.07,3.99 78.53,6.32 54.58,6.16 97.84,23.63 129.79,52.58 31.78,28.95 47.75,64.39 47.75,106.66 0,50.25 -21.8,91.68 -65.56,124.13 -43.76,32.45 -101.17,48.75 -172.05,48.75 -53.58,0 -103.49,-7.82 -149.42,-23.3 -46.09,-15.64 -89.85,-39.43 -131.45,-71.71z"/>
  <path id="_4" class="fil0" d="M2381.64 343.51l236.94 0 -118.97 -238.27 -117.97 238.27zm-173.55 207.66l263.73 -538.11 55.57 0 266.73 538.11 -72.71 0 -73.05 -144.76 -297.34 0 -71.22 144.76 -71.71 0z"/>
  <polygon id="_5" class="fil1 str0" points="227.7,551.17 227.7,74.96 1.08,74.96 1.08,13.06 521.22,13.06 521.22,74.96 294.59,74.96 294.59,551.17 "/>
  <polygon id="_6" class="fil1 str0" points="550.17,551.17 550.17,13.06 618.05,13.06 618.05,225.71 935.53,225.71 935.53,13.06 1002.42,13.06 1002.42,551.17 935.53,551.17 935.53,287.61 618.05,287.61 618.05,551.17 "/>
  <polygon id="_7" class="fil1 str0" points="1165.32,551.17 1165.32,13.06 1588.62,13.06 1588.62,74.96 1232.2,74.96 1232.2,232.7 1447.85,232.7 1447.85,294.59 1232.2,294.59 1232.2,489.27 1610.58,489.27 1610.58,551.17 "/>
  <path id="_8" class="fil1 str0" d="M1659 470.14l38.93 -57.74c38.1,29.45 77.71,51.91 118.8,67.55 41.1,15.47 81.86,23.3 122.13,23.3 49.75,0 90.19,-10.49 121.13,-31.62 31.12,-21.13 46.59,-48.25 46.59,-81.36 0,-26.29 -11.15,-47.92 -33.44,-64.89 -22.3,-16.97 -53.08,-27.12 -92.35,-30.45 -9.49,-1 -23.13,-2 -40.93,-2.83 -88.52,-6.32 -148.75,-16.64 -181.03,-31.28 -24.96,-12.15 -44.09,-27.62 -57.07,-46.59 -12.98,-19.13 -19.47,-40.43 -19.47,-64.23 0,-43.26 19.3,-78.87 58.07,-106.99 38.6,-27.95 88.85,-41.93 150.59,-41.93 44.93,0 89.19,7.32 132.95,22.13 43.76,14.81 85.36,36.77 124.63,65.73l-38.94 55.91c-33.28,-26.79 -68.05,-46.92 -104.66,-60.57 -36.61,-13.48 -74.21,-20.3 -112.81,-20.3 -40.6,0 -74.04,7.99 -100.5,23.79 -26.29,15.81 -39.43,35.61 -39.43,59.4 0,9.32 2.16,17.97 6.32,25.79 4.16,7.82 10.82,15.31 19.47,22.13 22.13,16.47 69.89,27.12 143.43,31.61 33.78,2 60.07,3.99 78.53,6.32 54.58,6.16 97.84,23.63 129.79,52.58 31.78,28.95 47.75,64.39 47.75,106.66 0,50.25 -21.8,91.68 -65.56,124.13 -43.76,32.45 -101.17,48.75 -172.05,48.75 -53.58,0 -103.49,-7.82 -149.42,-23.3 -46.09,-15.64 -89.85,-39.43 -131.45,-71.71z"/>
  <path id="_9" class="fil1 str0" d="M2381.64 343.51l236.94 0 -118.97 -238.27 -117.97 238.27zm-173.55 207.66l263.73 -538.11 55.57 0 266.73 538.11 -72.71 0 -73.05 -144.76 -297.34 0 -71.22 144.76 -71.71 0z"/>
  <rect class="fil2" x="300.58" y="786.59" width="2034.17" height="17.27"/>
  <g id="_1949616636000">
   <rect class="fil3" x="443.51" y="718.37" width="1758.87" height="161.47"/>
   <polygon class="fil0" points="537.62,845.03 537.62,759.32 496.83,759.32 496.83,748.17 590.45,748.17 590.45,759.32 549.66,759.32 549.66,845.03 "/>
   <polygon id="_1_0" class="fil0" points="595.67,845.03 595.67,748.17 671.86,748.17 671.86,759.32 607.71,759.32 607.71,787.71 646.52,787.71 646.52,798.85 607.71,798.85 607.71,833.89 675.81,833.89 675.81,845.03 "/>
   <path id="_2_1" class="fil0" d="M684.53 830.45l7.01 -10.39c6.86,5.3 13.99,9.34 21.39,12.16 7.4,2.79 14.74,4.19 21.98,4.19 8.95,0 16.23,-1.89 21.8,-5.69 5.6,-3.8 8.39,-8.69 8.39,-14.65 0,-4.73 -2.01,-8.63 -6.02,-11.68 -4.01,-3.05 -9.55,-4.88 -16.62,-5.48 -1.71,-0.18 -4.16,-0.36 -7.37,-0.51 -15.94,-1.14 -26.78,-3 -32.59,-5.63 -4.49,-2.19 -7.94,-4.97 -10.27,-8.39 -2.34,-3.44 -3.5,-7.28 -3.5,-11.56 0,-7.79 3.47,-14.2 10.45,-19.26 6.95,-5.03 15.99,-7.55 27.11,-7.55 8.09,0 16.05,1.32 23.93,3.98 7.88,2.67 15.36,6.62 22.43,11.83l-7.01 10.06c-5.99,-4.82 -12.25,-8.44 -18.84,-10.9 -6.59,-2.43 -13.36,-3.65 -20.31,-3.65 -7.31,0 -13.33,1.44 -18.09,4.28 -4.73,2.85 -7.1,6.41 -7.1,10.69 0,1.68 0.39,3.23 1.14,4.64 0.75,1.41 1.95,2.76 3.5,3.98 3.98,2.96 12.58,4.88 25.82,5.69 6.08,0.36 10.81,0.72 14.14,1.14 9.82,1.11 17.61,4.25 23.36,9.46 5.72,5.21 8.6,11.59 8.6,19.2 0,9.04 -3.93,16.5 -11.8,22.34 -7.88,5.84 -18.21,8.78 -30.97,8.78 -9.64,0 -18.63,-1.41 -26.9,-4.19 -8.3,-2.82 -16.17,-7.1 -23.66,-12.91z"/>
   <path id="_3_2" class="fil0" d="M814.6 807.66l42.65 0 -21.41 -42.89 -21.24 42.89zm-31.24 37.38l47.47 -96.86 10 0 48.01 96.86 -13.09 0 -13.15 -26.06 -53.52 0 -12.82 26.06 -12.91 0z"/>
   <path id="_4_3" class="fil0" d="M909.93 748.17l0 62.72c0,10.03 1.89,16.77 5.66,20.22 3.78,3.41 11.17,5.12 22.25,5.12 11.05,0 18.45,-1.71 22.19,-5.12 3.74,-3.44 5.6,-10.19 5.6,-20.22l0 -62.72 12.04 0 0 65.95c0,11.92 -3.09,20.49 -9.29,25.67 -6.2,5.18 -16.41,7.76 -30.61,7.76 -14.2,0 -24.41,-2.58 -30.61,-7.76 -6.2,-5.18 -9.28,-13.75 -9.28,-25.67l0 -65.95 12.04 0z"/>
   <path id="_5_4" class="fil0" d="M1015.99 791.3l42.77 0c6.08,0 10.69,-1.35 13.8,-4.04 3.15,-2.67 4.7,-6.62 4.7,-11.83 0,-5.06 -1.56,-9.04 -4.7,-11.86 -3.11,-2.84 -7.52,-4.25 -13.21,-4.25l-43.37 0 0 31.99zm-12.04 53.73l0 -96.86 55.59 0c9.46,0 16.86,2.4 22.25,7.16 5.36,4.76 8.06,11.35 8.06,19.77 0,7.01 -2.1,13 -6.29,18 -4.23,5 -9.77,8.12 -16.65,9.34l24.2 42.59 -13.3 0 -24.23 -42.41 -37.59 0 0 42.41 -12.04 0z"/>
   <path id="_6_5" class="fil0" d="M1154.21 836.23c10.87,0 19.89,-3.71 27.04,-11.14 7.13,-7.43 10.69,-16.86 10.69,-28.27 0,-11.44 -3.57,-20.9 -10.66,-28.33 -7.1,-7.43 -16.14,-11.14 -27.07,-11.14 -10.87,0 -19.89,3.74 -27.05,11.2 -7.13,7.46 -10.69,16.89 -10.69,28.27 0,11.41 3.56,20.85 10.69,28.27 7.16,7.43 16.17,11.14 27.05,11.14zm-0.03 11.32c-14.53,0 -26.51,-4.79 -35.94,-14.35 -9.44,-9.56 -14.17,-21.69 -14.17,-36.39 0,-14.74 4.73,-26.9 14.23,-36.45 9.46,-9.55 21.41,-14.35 35.88,-14.35 14.5,0 26.51,4.79 36.06,14.41 9.53,9.59 14.29,21.71 14.29,36.39 0,14.7 -4.76,26.83 -14.26,36.39 -9.49,9.55 -21.54,14.35 -36.09,14.35z"/>
   <path id="_7_6" class="fil0" d="M1276.32 830.45l7.01 -10.39c6.86,5.3 13.99,9.34 21.39,12.16 7.4,2.79 14.74,4.19 21.98,4.19 8.95,0 16.23,-1.89 21.8,-5.69 5.6,-3.8 8.39,-8.69 8.39,-14.65 0,-4.73 -2.01,-8.63 -6.02,-11.68 -4.01,-3.05 -9.55,-4.88 -16.62,-5.48 -1.71,-0.18 -4.16,-0.36 -7.37,-0.51 -15.94,-1.14 -26.78,-3 -32.59,-5.63 -4.49,-2.19 -7.94,-4.97 -10.27,-8.39 -2.34,-3.44 -3.5,-7.28 -3.5,-11.56 0,-7.79 3.47,-14.2 10.45,-19.26 6.95,-5.03 15.99,-7.55 27.11,-7.55 8.09,0 16.05,1.32 23.93,3.98 7.88,2.67 15.36,6.62 22.43,11.83l-7.01 10.06c-5.99,-4.82 -12.25,-8.44 -18.84,-10.9 -6.59,-2.43 -13.36,-3.65 -20.31,-3.65 -7.31,0 -13.33,1.44 -18.09,4.28 -4.73,2.85 -7.1,6.41 -7.1,10.69 0,1.68 0.39,3.23 1.14,4.64 0.75,1.41 1.95,2.76 3.5,3.98 3.98,2.96 12.58,4.88 25.82,5.69 6.08,0.36 10.81,0.72 14.14,1.14 9.82,1.11 17.61,4.25 23.36,9.46 5.72,5.21 8.6,11.59 8.6,19.2 0,9.04 -3.93,16.5 -11.8,22.34 -7.88,5.84 -18.21,8.78 -30.97,8.78 -9.64,0 -18.63,-1.41 -26.9,-4.19 -8.3,-2.82 -16.17,-7.1 -23.66,-12.91z"/>
   <polygon id="_8_7" class="fil0" points="1392.86,845.03 1392.86,748.17 1469.05,748.17 1469.05,759.32 1404.89,759.32 1404.89,787.71 1443.71,787.71 1443.71,798.85 1404.89,798.85 1404.89,833.89 1473,833.89 1473,845.03 "/>
   <polygon id="_9_8" class="fil0" points="1490.4,845.03 1490.4,748.17 1501.54,748.17 1540.72,807.48 1580.07,748.17 1591.04,748.17 1591.04,845.03 1579.17,845.03 1579.17,769.41 1540.72,826.71 1502.26,769.41 1502.26,845.03 "/>
   <path id="_10" class="fil0" d="M1636.08 807.66l42.65 0 -21.41 -42.89 -21.24 42.89zm-31.24 37.38l47.47 -96.86 10 0 48.01 96.86 -13.09 0 -13.15 -26.06 -53.52 0 -12.82 26.06 -12.91 0z"/>
   <polygon id="_11" class="fil0" points="1725.03,845.03 1725.03,748.17 1731.35,748.17 1794.22,820.56 1794.22,748.17 1806.26,748.17 1806.26,845.03 1800.12,845.03 1737.07,772.64 1737.07,845.03 "/>
   <polygon id="_12" class="fil0" points="1852.05,845.03 1852.05,759.32 1811.26,759.32 1811.26,748.17 1904.89,748.17 1904.89,759.32 1864.09,759.32 1864.09,845.03 "/>
   <polygon id="_13" class="fil0" points="1910.28,845.03 1910.28,747.64 1922.5,747.64 1922.5,845.03 "/>
   <path id="_14" class="fil0" d="M2028.88 814.13l9.7 7.19c-4.43,8.42 -10.54,14.91 -18.27,19.44 -7.7,4.52 -16.47,6.8 -26.33,6.8 -14.5,0 -26.48,-4.79 -35.94,-14.35 -9.44,-9.56 -14.17,-21.69 -14.17,-36.39 0,-14.74 4.73,-26.9 14.2,-36.45 9.49,-9.55 21.44,-14.35 35.88,-14.35 8.96,0 17.13,1.95 24.5,5.87 7.37,3.92 13.36,9.52 17.97,16.77l-10.09 7.19c-3.03,-5.78 -7.43,-10.33 -13.15,-13.6 -5.72,-3.27 -12.13,-4.91 -19.2,-4.91 -10.87,0 -19.89,3.74 -27.01,11.2 -7.13,7.46 -10.69,16.89 -10.69,28.27 0,11.41 3.56,20.85 10.69,28.27 7.13,7.43 16.14,11.14 27.01,11.14 7.61,0 14.35,-1.88 20.25,-5.63 5.9,-3.74 10.78,-9.23 14.65,-16.47z"/>
   <path id="_15" class="fil0" d="M2102.56 836.23c10.87,0 19.89,-3.71 27.04,-11.14 7.13,-7.43 10.69,-16.86 10.69,-28.27 0,-11.44 -3.57,-20.9 -10.66,-28.33 -7.1,-7.43 -16.14,-11.14 -27.07,-11.14 -10.87,0 -19.89,3.74 -27.05,11.2 -7.13,7.46 -10.69,16.89 -10.69,28.27 0,11.41 3.56,20.85 10.69,28.27 7.16,7.43 16.17,11.14 27.05,11.14zm-0.03 11.32c-14.53,0 -26.51,-4.79 -35.94,-14.35 -9.44,-9.56 -14.17,-21.69 -14.17,-36.39 0,-14.74 4.73,-26.9 14.23,-36.45 9.46,-9.55 21.41,-14.35 35.88,-14.35 14.5,0 26.51,4.79 36.06,14.41 9.53,9.59 14.29,21.71 14.29,36.39 0,14.7 -4.76,26.83 -14.26,36.39 -9.49,9.55 -21.54,14.35 -36.09,14.35z"/>
  </g>
 </g>
</svg>
