<?xml version="1.0" standalone="no"?>
<!DOCTYPE svg PUBLIC "-//W3C//DTD SVG 20010904//EN"
 "http://www.w3.org/TR/2001/REC-SVG-20010904/DTD/svg10.dtd">
<svg version="1.0" xmlns="http://www.w3.org/2000/svg"
 width="1135.000000pt" height="1162.000000pt" viewBox="0 0 1135.000000 1162.000000"
 preserveAspectRatio="xMidYMid meet">

<g transform="translate(0.000000,1162.000000) scale(0.100000,-0.100000)"
fill="#000000" stroke="none">
<path d="M5245 11485 c-11 -2 -76 -9 -145 -15 -109 -10 -185 -21 -405 -59
-256 -45 -765 -204 -1065 -333 -169 -73 -189 -83 -370 -173 -205 -103 -298
-157 -523 -307 -219 -146 -254 -171 -440 -321 -412 -332 -692 -621 -964 -992
-447 -610 -729 -1159 -931 -1810 -61 -196 -80 -274 -147 -620 -75 -384 -115
-940 -96 -1326 23 -456 55 -687 148 -1054 111 -444 231 -782 383 -1085 374
-747 902 -1388 1575 -1916 307 -240 593 -419 950 -593 169 -82 221 -106 289
-132 28 -11 60 -24 71 -29 143 -70 586 -202 845 -254 473 -94 609 -111 992
-127 651 -27 1163 30 1763 196 198 55 510 164 665 233 1046 461 1943 1266
2554 2292 76 129 253 489 310 630 218 549 328 1030 382 1660 26 303 14 822
-26 1140 -38 302 -60 422 -126 685 -162 650 -415 1224 -792 1795 -81 123 -321
439 -419 552 -639 742 -1499 1352 -2313 1643 -486 174 -785 244 -1290 302
-122 13 -817 28 -875 18z m136 -498 c8 -201 10 -213 38 -197 28 15 29 14 37
-25 13 -70 19 -21 24 188 l5 212 45 0 45 0 6 -450 c3 -247 6 -450 7 -450 1 0
22 0 47 -1 38 -1 45 2 39 15 -3 9 -5 54 -4 101 1 47 5 243 9 435 l6 350 48 3
47 3 0 -147 c0 -147 10 -208 36 -218 7 -3 16 4 19 15 4 10 10 17 15 14 21 -13
30 42 30 174 0 77 4 142 8 145 4 2 27 2 51 -1 l43 -6 -4 -248 -3 -249 25 0
c53 0 63 -44 15 -70 l-30 -16 1 -139 0 -139 44 -22 c25 -12 89 -69 149 -131
58 -60 126 -123 150 -139 l44 -28 -6 -241 c-12 -479 -66 -673 -237 -845 -151
-151 -247 -240 -260 -240 -11 0 -12 35 -6 188 8 219 12 232 108 333 182 192
261 297 297 394 18 48 21 78 21 211 0 153 0 155 -24 165 -17 8 -29 8 -43 0
-18 -9 -21 -24 -26 -163 -5 -146 -7 -156 -36 -212 -31 -59 -58 -96 -71 -96
-12 0 -29 214 -36 443 -4 119 -11 218 -15 219 -5 0 -15 1 -21 2 -7 1 -16 6
-20 11 -4 6 -8 -33 -8 -85 0 -52 -3 -230 -6 -395 -7 -331 -7 -332 -76 -390
-24 -20 -33 -23 -39 -13 -5 7 -9 87 -10 178 -1 91 -5 148 -8 127 -3 -21 -9
-38 -13 -37 -5 0 -15 0 -23 0 -12 0 -15 14 -17 63 -1 34 -4 -55 -8 -198 -5
-198 -11 -273 -23 -314 -14 -44 -17 -102 -18 -295 -1 -292 -6 -340 -35 -344
-20 -3 -21 3 -27 104 -4 59 -7 261 -7 449 0 188 -3 538 -7 778 l-6 437 -24 -6
c-13 -4 -29 -1 -37 5 -17 14 -26 -399 -26 -1191 0 -598 0 -598 -43 -550 -13
14 -16 65 -23 312 -5 223 -10 303 -22 330 -10 24 -16 89 -20 205 -4 121 -8
162 -14 143 -6 -17 -14 -25 -23 -22 -22 9 -35 -31 -35 -110 0 -91 -9 -96 -67
-33 l-40 43 -6 160 c-4 87 -7 386 -7 664 0 278 0 618 -1 757 l0 252 28 4 c71
11 67 21 74 -176z m-197 155 c4 -7 8 -399 7 -624 -1 -75 -2 -78 -53 -154 -50
-74 -236 -279 -245 -270 -5 4 -7 66 -4 113 0 12 31 61 67 109 36 47 77 107 91
132 l25 47 -5 245 c-5 221 -7 246 -24 257 -10 8 -27 12 -38 11 -19 -3 -20 -13
-28 -253 -7 -230 -9 -254 -30 -294 -12 -24 -26 -42 -32 -40 -11 4 -8 679 4
691 19 21 254 47 265 30z m1076 -17 c36 -3 72 -10 80 -15 12 -7 15 -64 18
-319 3 -171 2 -318 -2 -327 -6 -15 -10 -14 -36 11 l-30 29 0 222 c0 123 -4
234 -10 248 -7 20 -17 26 -39 26 -16 0 -31 -6 -34 -14 -3 -8 -9 -117 -13 -243
-8 -268 -8 -270 95 -388 33 -38 68 -86 78 -105 20 -40 24 -141 7 -147 -18 -6
-127 100 -216 210 l-80 100 1 131 c0 72 1 235 2 361 1 133 5 233 11 236 5 3
30 3 56 -2 26 -4 76 -10 112 -14z m-1452 -425 c2 -379 1 -395 -19 -449 -19
-51 -20 -68 -14 -188 4 -83 3 -133 -3 -133 -20 0 -131 199 -162 290 -18 54
-23 95 -27 246 l-6 181 51 6 c65 8 88 23 112 73 25 51 25 90 0 132 -29 47 -82
68 -133 51 -31 -10 -40 -10 -46 0 -10 16 -13 113 -3 127 4 7 54 22 112 34 58
12 107 24 109 26 23 22 26 -29 29 -396z m1797 356 l90 -23 3 -68 c3 -62 1 -67
-15 -60 -10 5 -36 10 -58 12 -33 4 -45 0 -70 -24 -38 -34 -55 -73 -55 -120 0
-70 80 -138 153 -131 l32 3 0 -190 c-1 -185 -2 -192 -29 -260 -39 -96 -158
-298 -167 -283 -4 6 -5 77 -2 157 4 131 3 152 -16 202 -20 53 -22 77 -23 426
-1 203 2 374 6 381 8 13 19 11 151 -22z m-2143 -202 c4 -87 10 -203 13 -258 8
-118 -1 -122 -58 -25 -30 52 -39 82 -48 150 -16 125 -27 159 -65 197 -19 19
-32 37 -29 41 9 9 158 59 170 56 6 -1 13 -68 17 -161z m2441 130 c37 -9 67
-20 67 -24 0 -5 -15 -18 -34 -29 -19 -12 -37 -28 -40 -37 -3 -9 -6 -70 -6
-137 -1 -73 -6 -136 -14 -158 -15 -44 -65 -111 -77 -104 -6 4 -6 492 0 513 1
2 9 1 19 -2 9 -3 47 -13 85 -22z m258 -84 c97 -33 139 -52 139 -62 0 -30 -180
-287 -282 -401 -62 -70 -172 -167 -189 -167 -5 0 -9 14 -9 32 0 22 17 58 56
115 99 150 108 174 112 293 3 133 7 147 44 182 36 33 50 34 129 8z m-2968 -10
c42 -33 77 -119 77 -189 0 -82 22 -135 113 -270 44 -65 77 -124 77 -138 l0
-25 -37 23 c-103 61 -198 149 -280 259 -78 104 -194 293 -185 302 15 15 145
57 178 57 17 1 43 -8 57 -19z m-322 -137 c20 -21 64 -81 99 -133 95 -142 139
-197 226 -280 77 -73 177 -146 260 -189 28 -15 55 -43 86 -89 109 -160 222
-338 233 -366 8 -20 13 -93 14 -196 2 -218 22 -361 69 -490 4 -12 1 -11 -16 4
-29 25 -123 167 -161 243 -29 58 -30 63 -15 91 15 31 10 82 -8 82 -5 0 -19 -5
-30 -11 -17 -9 -24 -7 -42 16 -14 17 -29 26 -41 23 -17 -3 -20 -12 -19 -50 0
-30 7 -54 17 -66 9 -10 17 -25 17 -33 0 -8 25 -63 55 -122 47 -92 52 -106 33
-96 -53 28 -136 90 -174 131 -40 41 -42 46 -53 140 -6 53 -11 150 -11 216 l0
119 31 27 c40 36 62 90 54 132 -6 36 -60 90 -100 100 -37 9 -91 -13 -125 -52
-44 -51 -43 -113 5 -180 l35 -49 0 -137 c0 -77 -4 -138 -9 -138 -32 0 -126
171 -181 331 -17 52 -53 130 -78 174 -112 192 -176 318 -196 386 -14 47 -13
79 3 79 13 0 41 70 41 101 0 31 -34 92 -66 120 -52 46 -153 22 -189 -45 -27
-50 -17 -137 20 -176 16 -16 36 -32 46 -35 9 -3 21 -23 27 -46 9 -34 8 -41 -6
-46 -49 -17 -52 -28 -52 -187 0 -83 -5 -158 -10 -166 -7 -11 -16 1 -39 50 -42
90 -85 309 -98 494 -6 99 -13 116 -49 116 -44 0 -53 -32 -43 -155 4 -60 10
-141 13 -179 l5 -68 -55 7 c-66 8 -104 -10 -104 -50 0 -31 26 -45 96 -52 l54
-6 46 -91 c25 -50 71 -129 102 -174 32 -46 64 -96 74 -110 9 -15 35 -124 58
-242 22 -118 50 -258 61 -310 22 -99 35 -190 27 -190 -2 0 -67 28 -143 63
l-140 63 -3 155 -2 156 24 11 c46 21 62 67 57 167 -3 82 -130 142 -211 100
-105 -55 -104 -209 3 -272 22 -12 33 -181 14 -207 -14 -20 -15 -20 -75 4 -33
13 -67 29 -76 35 -9 7 -22 48 -31 101 -10 49 -27 130 -40 179 -49 187 -65 305
-65 489 0 101 2 110 25 138 33 39 39 66 26 115 -14 53 -43 78 -90 78 -78 0
-112 -70 -81 -168 16 -49 20 -92 20 -207 1 -202 14 -318 50 -434 35 -111 34
-144 -4 -99 -65 77 -124 210 -159 354 -36 150 -42 219 -23 258 23 43 23 94 1
128 -28 42 -46 52 -94 53 l-44 0 59 46 c84 67 293 203 404 264 229 127 570
288 610 290 9 0 32 -17 51 -37z m3656 3 c277 -119 702 -358 886 -499 74 -57
101 -96 57 -82 -11 4 -34 3 -51 0 -56 -12 -78 -110 -38 -165 21 -28 21 -32 10
-135 -12 -106 -43 -220 -82 -298 -54 -110 -116 -207 -136 -216 -30 -14 -30
-10 12 140 42 147 55 251 55 454 0 132 2 154 20 183 48 78 4 168 -81 166 -52
-2 -89 -36 -96 -90 -4 -32 1 -47 26 -84 30 -44 31 -48 31 -165 0 -174 -15
-286 -54 -405 -22 -71 -38 -146 -47 -228 -7 -68 -18 -126 -23 -131 -6 -4 -33
-16 -61 -26 -27 -10 -54 -22 -60 -27 -5 -4 -17 -8 -27 -8 -16 0 -18 11 -18
105 0 101 1 106 26 128 105 89 98 221 -14 271 -94 43 -203 -29 -202 -133 1
-39 20 -80 63 -134 l27 -34 -10 -134 c-8 -105 -14 -137 -27 -150 -25 -22 -262
-129 -267 -120 -3 4 1 32 9 62 8 30 25 120 39 200 25 145 67 346 84 404 15 49
48 108 86 154 19 23 58 86 86 139 70 133 78 142 135 153 56 10 85 33 85 64 0
35 -25 49 -85 47 l-54 -1 1 178 c0 99 -3 184 -6 190 -8 12 -55 15 -72 3 -7 -4
-14 -56 -18 -127 -6 -121 -20 -242 -36 -325 -9 -46 -74 -195 -89 -204 -12 -8
-21 81 -21 202 0 94 -2 105 -23 125 -13 12 -31 27 -41 32 -18 10 -18 13 3 54
13 24 40 60 61 80 44 42 55 73 46 136 -13 84 -92 131 -176 106 -97 -29 -122
-146 -49 -226 17 -19 17 -24 2 -85 -9 -38 -59 -149 -118 -266 -57 -110 -113
-229 -125 -265 -35 -101 -178 -347 -193 -332 -4 3 -7 64 -7 134 0 97 3 128 13
132 23 9 47 73 47 125 0 116 -123 161 -213 78 -31 -28 -37 -40 -37 -75 0 -48
17 -86 54 -120 26 -24 26 -26 26 -174 0 -83 -5 -179 -11 -213 l-11 -63 -105
-83 c-137 -108 -139 -110 -112 -56 12 23 37 79 54 123 24 58 40 84 59 93 21
11 26 20 26 51 0 22 -6 44 -15 51 -21 18 -62 4 -78 -26 l-14 -27 -21 24 c-12
12 -24 20 -27 17 -3 -3 -7 -40 -9 -82 -3 -75 -5 -80 -69 -184 -67 -110 -143
-205 -133 -167 3 11 14 46 25 77 27 77 39 171 52 406 l12 197 75 120 c145 232
201 311 224 322 47 21 235 168 298 232 36 37 103 121 149 186 143 203 184 255
202 255 10 0 53 -15 96 -34z m-2289 -122 c26 -7 31 -44 6 -44 -16 0 -43 27
-44 43 0 8 8 9 38 1z m-38 -768 c0 -330 -2 -385 -15 -396 -18 -15 -38 6 -82
85 -27 48 -28 57 -31 200 -3 119 -7 154 -19 168 -20 21 -59 22 -67 1 -3 -9 -6
-89 -6 -179 0 -241 10 -262 260 -534 73 -80 141 -164 151 -187 17 -37 18 -59
12 -213 l-6 -172 -56 54 c-31 29 -92 85 -136 123 -150 129 -174 165 -238 351
-55 157 -69 255 -74 534 l-6 246 40 39 c22 21 48 46 59 55 10 9 59 60 107 113
49 53 93 96 97 96 5 0 9 -169 10 -384z m-2520 249 c0 -31 24 -81 55 -115 16
-17 25 -43 30 -85 3 -33 15 -104 27 -158 11 -54 17 -101 15 -104 -16 -15 -337
273 -337 303 0 13 188 184 203 184 4 0 7 -11 7 -25z m1154 -52 c21 -43 57
-109 81 -148 53 -87 81 -147 140 -300 25 -66 58 -140 72 -164 l25 -43 -32 18
c-45 27 -127 118 -156 175 -14 28 -27 76 -31 111 -8 84 -16 98 -58 98 -29 0
-36 -4 -41 -27 -11 -44 14 -173 47 -240 55 -114 122 -173 334 -297 45 -26 105
-68 134 -94 l53 -47 9 -119 c5 -65 11 -127 12 -138 2 -17 -8 -23 -52 -34 -108
-28 -170 -95 -191 -203 -19 -101 26 -205 119 -273 34 -25 56 -32 109 -37 98
-9 130 -38 312 -286 41 -56 107 -145 147 -196 72 -94 136 -205 128 -220 -3 -4
-64 27 -136 69 l-131 76 -65 130 c-98 195 -154 266 -254 321 -50 27 -86 30
-146 10 -17 -5 -24 -3 -29 11 -4 11 -30 75 -59 144 -29 69 -75 193 -103 277
-28 84 -62 176 -75 206 -46 99 -118 363 -171 622 -13 66 -29 133 -35 148 -12
31 -35 503 -25 518 13 22 32 3 68 -68z m3651 56 c4 -5 7 -94 6 -197 0 -197 -7
-248 -76 -547 -14 -60 -30 -132 -35 -160 -14 -66 -85 -300 -116 -384 -14 -36
-47 -131 -74 -211 -49 -148 -140 -373 -164 -405 -12 -17 -14 -17 -40 0 -87 57
-253 -75 -361 -287 -94 -184 -115 -211 -192 -256 -124 -71 -153 -86 -159 -79
-17 16 71 160 168 273 59 70 124 159 152 210 32 57 73 113 115 155 61 60 71
66 120 73 67 9 116 33 162 83 73 76 93 158 65 256 -20 69 -67 119 -143 154
l-53 24 0 141 0 141 38 36 c21 20 81 58 133 85 51 27 119 66 150 87 113 76
202 209 233 346 27 122 19 163 -31 163 -31 0 -50 -34 -59 -105 -4 -33 -15 -78
-24 -100 -24 -55 -102 -148 -155 -185 -78 -54 -75 -39 20 100 41 61 77 122 81
138 15 68 39 125 103 241 38 69 80 147 92 174 23 48 33 55 44 36z m1216 -75
c49 -41 89 -81 89 -89 0 -18 -242 -261 -281 -280 -17 -9 -33 -14 -36 -12 -2 3
0 38 6 79 5 40 13 108 16 151 6 67 11 82 32 100 33 29 63 79 63 106 0 11 5 21
11 21 6 0 51 -34 100 -76z m-6266 -225 c93 -95 243 -227 319 -280 40 -28 76
-63 87 -84 11 -20 45 -75 77 -123 31 -48 59 -91 61 -96 5 -12 -127 2 -233 25
-160 34 -266 98 -405 245 -82 86 -161 184 -161 198 0 12 173 176 185 176 6 0
37 -27 70 -61z m6559 -24 c47 -47 86 -93 86 -102 0 -19 -37 -70 -101 -138 -26
-27 -56 -61 -67 -75 -25 -32 -112 -95 -112 -81 0 6 5 11 11 11 5 0 23 15 40
32 23 26 29 41 29 79 0 39 -5 53 -30 77 -38 39 -89 48 -136 26 -39 -19 -69
-70 -66 -112 5 -68 77 -141 124 -126 l23 6 -24 -25 c-26 -29 -101 -67 -194
-98 -50 -17 -240 -49 -295 -49 -9 0 1 27 28 78 70 128 98 164 168 212 37 25
141 118 232 207 91 89 173 163 182 163 9 0 55 -38 102 -85z m-6857 -232 c245
-279 351 -354 592 -413 124 -31 165 -47 211 -82 31 -24 230 -250 230 -262 0
-4 -13 -23 -30 -42 -52 -60 -52 -148 1 -209 59 -66 154 -69 201 -5 26 35 26
35 81 11 23 -10 102 -38 175 -61 154 -50 229 -91 323 -178 68 -63 107 -120
130 -189 23 -72 77 -169 123 -219 46 -52 158 -135 234 -173 55 -28 55 -44 0
-37 -24 3 -67 8 -97 11 -29 3 -75 14 -101 24 -60 23 -159 107 -166 141 -3 14
-16 54 -29 90 -12 36 -30 90 -39 121 -27 92 -90 139 -141 105 -33 -22 -32 -36
6 -72 37 -35 64 -92 72 -157 l7 -47 -41 22 c-83 47 -144 142 -197 310 -58 181
-125 237 -209 175 -31 -22 -31 -23 -15 -50 10 -16 25 -27 39 -27 32 0 59 -34
83 -103 24 -72 25 -87 5 -87 -8 0 -77 30 -152 67 -114 56 -149 78 -202 130
-64 64 -89 75 -110 49 -27 -33 -9 -68 59 -114 127 -87 216 -139 320 -185 102
-45 138 -77 88 -77 -51 0 -137 20 -188 43 -30 14 -112 46 -181 72 -69 25 -139
57 -154 70 -27 21 -30 30 -36 106 -12 141 -10 415 3 464 8 30 9 53 2 72 -11
32 -67 73 -100 73 -36 0 -84 -49 -91 -92 -5 -32 -1 -41 27 -70 22 -21 34 -45
38 -71 l5 -38 -39 6 c-57 10 -145 35 -175 51 -15 7 -32 28 -38 45 -13 39 -14
96 -2 103 5 4 16 26 24 51 14 40 14 51 1 95 -16 56 -47 85 -106 101 -66 17
-115 3 -168 -50 -39 -39 -48 -55 -53 -95 -13 -92 23 -161 112 -218 25 -15 55
-28 68 -28 16 0 28 -11 42 -37 30 -59 73 -76 236 -97 l90 -11 7 -55 c4 -30 3
-59 -2 -64 -5 -5 -33 -2 -68 8 -69 19 -96 20 -120 5 -15 -10 -23 -7 -45 15
-51 51 -140 24 -140 -42 0 -47 28 -72 78 -72 29 0 47 6 60 20 20 22 45 25 73
11 9 -5 43 -15 75 -21 77 -15 92 -32 100 -109 4 -34 13 -74 22 -90 19 -37 163
-112 300 -156 56 -18 119 -42 141 -53 41 -20 266 -82 301 -82 11 0 68 -35 125
-78 58 -43 123 -86 145 -95 85 -34 63 -37 -204 -31 -217 6 -261 9 -277 23 -10
9 -45 69 -77 133 -32 64 -69 124 -81 132 -26 19 -86 21 -122 5 -13 -7 -30 -25
-37 -41 -11 -26 -15 -28 -43 -22 -17 3 -60 18 -96 31 -101 39 -117 40 -131 10
-10 -21 -8 -31 8 -59 18 -32 22 -33 112 -45 84 -12 97 -16 132 -48 21 -19 63
-51 94 -71 30 -20 55 -41 55 -47 0 -6 -37 -8 -100 -5 -122 6 -138 15 -295 170
l-110 108 0 94 c0 89 -2 97 -30 138 -71 102 -229 118 -307 31 -46 -50 -63
-168 -34 -237 28 -67 124 -116 230 -116 61 0 63 -1 107 -47 49 -52 94 -122 84
-132 -4 -3 -50 -5 -103 -4 -167 2 -278 48 -376 153 -64 70 -108 156 -138 273
l-22 83 70 70 c97 95 128 160 128 268 0 67 -5 91 -28 138 -32 68 -94 134 -156
169 l-45 24 -6 115 c-3 63 -3 121 -1 127 2 7 19 22 37 33 56 35 72 133 31 195
-22 34 -87 65 -136 65 -33 0 -47 -7 -78 -38 -66 -66 -65 -163 1 -233 33 -34
34 -39 40 -138 4 -56 5 -107 2 -112 -4 -5 -17 -9 -30 -9 -44 0 -132 -40 -179
-81 -27 -24 -58 -65 -77 -104 -27 -56 -31 -74 -31 -148 0 -94 23 -158 82 -230
55 -65 167 -127 231 -127 24 0 28 -7 53 -94 16 -51 38 -119 51 -150 13 -31 20
-58 16 -60 -4 -3 -32 6 -63 18 -146 60 -336 226 -400 351 -19 39 -48 107 -62
151 -15 45 -35 89 -46 99 -19 17 -19 18 2 45 31 43 22 125 -18 157 -67 53
-153 9 -161 -83 -5 -46 -2 -54 25 -85 36 -41 79 -125 121 -234 85 -222 282
-411 552 -529 85 -37 159 -82 159 -96 0 -24 -158 2 -290 47 -182 62 -425 212
-645 397 -127 108 -215 190 -215 203 0 18 100 201 184 337 190 307 460 667
640 853 60 62 114 113 121 113 7 0 35 -26 62 -57z m7159 -65 c161 -164 297
-338 520 -663 153 -223 314 -487 314 -515 0 -7 -12 -21 -26 -33 -15 -11 -65
-55 -113 -96 -217 -192 -390 -316 -560 -401 -177 -88 -435 -163 -455 -132 -8
13 42 49 97 71 71 27 279 141 332 181 143 108 235 233 309 423 18 47 43 99 56
116 12 18 19 38 16 46 -3 8 10 29 30 49 26 26 34 42 34 69 0 73 -85 126 -148
93 -17 -9 -37 -26 -43 -38 -16 -29 -14 -105 2 -124 10 -12 10 -20 -3 -42 -8
-15 -25 -61 -37 -102 -44 -146 -138 -292 -246 -379 -73 -58 -177 -120 -218
-128 -25 -5 -29 -3 -24 13 3 10 18 69 32 129 14 61 28 117 31 126 3 10 19 18
44 22 88 11 214 106 257 192 51 101 54 217 8 311 -45 91 -163 179 -258 192
l-39 5 4 111 3 112 43 41 c39 37 42 44 42 92 0 102 -53 161 -146 161 -62 0
-107 -27 -134 -79 -36 -72 -21 -136 44 -186 19 -15 34 -34 34 -43 0 -9 3 -63
7 -118 l8 -102 -35 -11 c-53 -18 -141 -102 -174 -167 -26 -52 -29 -67 -29
-158 0 -96 2 -104 34 -163 31 -58 92 -123 154 -165 l25 -18 -15 -67 c-20 -89
-66 -205 -103 -258 -35 -50 -143 -127 -220 -155 -42 -16 -87 -22 -188 -25 -73
-2 -140 -1 -148 2 -18 7 -7 23 71 103 l56 60 36 -15 c46 -19 151 -19 197 0 91
38 152 138 150 245 -2 116 -122 228 -234 217 -91 -8 -156 -56 -198 -146 -22
-47 -24 -62 -19 -126 l6 -72 -82 -80 c-100 -98 -196 -169 -245 -183 -45 -12
-212 -13 -212 -2 0 13 27 34 90 71 30 18 66 43 80 56 18 16 53 27 125 40 98
18 155 37 155 54 0 22 -23 70 -36 75 -8 3 -33 -3 -54 -14 -22 -11 -74 -25
-116 -31 l-77 -12 -28 34 c-25 31 -32 34 -82 33 -64 0 -64 0 93 66 120 50 177
83 202 114 10 11 23 54 30 94 l12 72 55 21 c30 11 81 26 113 34 57 13 60 13
95 -11 40 -27 55 -29 86 -13 30 16 37 28 37 67 0 79 -74 111 -132 57 -22 -21
-37 -25 -84 -25 -32 0 -81 -8 -110 -17 -30 -9 -56 -14 -59 -12 -2 3 -1 32 3
65 7 57 8 59 37 61 92 8 204 28 241 44 23 11 62 39 85 64 24 25 48 45 54 45
26 0 116 73 141 115 24 42 26 52 19 108 -8 74 -24 103 -78 141 -58 42 -122 42
-174 -1 -56 -45 -70 -89 -54 -172 23 -118 23 -128 7 -159 -10 -20 -33 -39 -68
-55 -56 -25 -182 -52 -198 -42 -6 4 -10 21 -10 40 0 27 6 37 34 53 81 48 32
182 -68 182 -15 0 -34 -12 -50 -31 l-26 -31 0 -228 c0 -221 -12 -372 -32 -397
-29 -37 -217 -120 -469 -208 -100 -35 -109 -34 -93 9 3 9 47 36 98 60 97 46
218 116 251 146 11 10 44 31 73 46 63 34 99 83 83 113 -16 29 -60 13 -129 -49
-32 -29 -104 -75 -167 -107 -60 -31 -127 -67 -147 -80 -35 -22 -38 -22 -38 -5
0 17 45 151 52 157 2 1 26 8 53 14 62 15 95 36 95 60 0 50 -85 59 -167 18 -60
-31 -89 -64 -104 -121 -18 -72 -62 -179 -96 -239 -36 -61 -122 -137 -155 -137
-17 0 -19 5 -12 48 14 97 26 124 63 136 78 26 70 96 -11 96 -35 0 -47 -6 -83
-42 -40 -41 -43 -48 -59 -143 -24 -141 -38 -167 -114 -225 -85 -63 -145 -82
-253 -78 l-84 3 75 42 c163 91 233 166 318 333 65 131 109 189 195 261 73 61
121 84 310 144 65 21 135 50 155 65 l36 26 37 -38 c32 -34 41 -38 86 -38 71 0
113 30 135 96 20 62 12 114 -26 153 l-26 27 115 136 c63 75 130 146 149 157
19 12 69 28 112 36 98 19 277 94 368 156 61 40 250 227 319 315 10 13 24 24
31 24 7 0 62 -51 122 -112z m-536 -98 c0 -5 -5 -10 -11 -10 -5 0 -7 5 -4 10 3
6 8 10 11 10 2 0 4 -4 4 -10z m-5523 -366 c112 -37 319 -149 389 -211 95 -84
253 -283 225 -283 -5 0 -48 18 -95 39 -78 37 -88 45 -127 103 -76 113 -110
138 -139 103 -11 -13 -10 -21 8 -43 49 -62 75 -103 69 -108 -3 -3 -25 0 -49 7
-36 11 -69 40 -199 174 -86 88 -176 182 -200 209 l-44 49 45 -8 c25 -4 78 -18
117 -31z m4892 -16 c-99 -128 -287 -325 -358 -374 -31 -22 -71 -32 -71 -18 0
3 18 36 40 73 22 37 40 72 40 78 0 21 -26 32 -55 25 -23 -6 -38 -25 -74 -94
-60 -111 -63 -115 -123 -128 -28 -6 -71 -19 -96 -30 -25 -11 -47 -19 -48 -17
-9 9 90 135 201 255 75 82 161 134 360 217 101 43 135 53 183 54 l34 1 -33
-42z m-1373 -9 c-3 -17 -6 -66 -6 -109 0 -72 -1 -77 -25 -88 -14 -6 -44 -29
-67 -51 -30 -27 -67 -47 -118 -64 -41 -14 -114 -48 -162 -76 -76 -45 -108 -59
-108 -47 0 2 6 19 14 38 23 54 101 152 169 211 67 59 287 217 301 217 5 0 6
-14 2 -31z m-2065 -116 c64 -45 147 -115 185 -155 65 -69 109 -137 102 -158
-2 -5 -43 13 -93 41 -49 28 -117 59 -150 70 -67 23 -91 36 -152 88 -50 41 -62
70 -70 176 l-6 80 34 -30 c19 -16 86 -67 150 -112z m-2525 -132 c51 -23 108
-90 128 -149 23 -67 20 -88 -25 -189 -18 -38 -78 -107 -87 -98 -3 3 11 21 31
39 20 18 37 37 37 42 0 5 7 23 16 39 12 22 14 45 10 89 -11 104 -71 177 -172
206 -77 23 -180 -24 -219 -100 -45 -87 -21 -182 67 -272 33 -33 57 -62 54 -65
-8 -9 -61 26 -98 64 -73 76 -95 158 -68 254 13 48 70 112 122 138 55 27 147
28 204 2z m7108 8 c46 -13 120 -79 147 -131 24 -47 26 -150 3 -204 -16 -39
-102 -130 -112 -119 -3 3 8 20 25 38 52 54 67 94 67 177 1 71 -1 78 -32 117
-53 67 -95 88 -177 88 -61 0 -76 -4 -114 -30 -66 -45 -94 -103 -88 -185 4 -70
13 -91 64 -157 28 -35 30 -40 13 -36 -32 8 -85 78 -103 134 -21 63 -21 82 -2
145 38 129 173 201 309 163z m-4769 -52 c45 -25 85 -87 85 -132 0 -35 -46
-119 -85 -155 -37 -34 -125 -36 -171 -3 -68 48 -85 156 -37 230 51 79 133 103
208 60z m2395 1 c60 -31 93 -87 86 -145 -10 -76 -30 -110 -91 -149 -55 -34
-59 -35 -99 -24 -32 9 -49 23 -79 65 -58 84 -62 154 -10 216 52 61 120 74 193
37z m-3612 -18 c28 -26 28 -54 1 -81 -25 -25 -62 -19 -90 14 -26 30 -20 49 21
69 43 22 42 22 68 -2z m4752 11 c18 -12 19 -74 1 -95 -17 -20 -55 -21 -75 0
-47 46 18 129 74 95z m-1927 -106 c5 -11 0 -13 -21 -10 -24 5 -37 -7 -114 -92
-94 -106 -145 -177 -189 -263 -41 -82 -89 -211 -89 -242 0 -19 -5 -28 -16 -28
-10 0 -14 -6 -11 -15 4 -8 2 -17 -3 -20 -6 -4 -10 -19 -10 -35 0 -16 -4 -31
-9 -34 -4 -3 -11 -33 -15 -68 -3 -34 -10 -76 -15 -92 -11 -35 -70 -298 -82
-366 -4 -25 -8 -68 -8 -97 -1 -50 -14 -75 -31 -57 -13 14 6 214 35 362 14 75
38 198 52 272 41 211 100 366 198 516 112 171 305 330 328 269z m-866 -33
c125 -100 323 -351 302 -383 -8 -11 -13 -9 -27 11 -9 14 -29 37 -43 52 -14 15
-53 57 -85 95 -32 37 -85 95 -119 128 -65 64 -95 103 -95 123 0 20 16 14 67
-26z m-453 -31 c61 -32 131 -69 155 -82 95 -51 140 -121 185 -286 21 -76 64
-202 119 -348 8 -22 34 -80 57 -130 l42 -90 -16 -73 c-9 -40 -16 -87 -16 -105
0 -18 -5 -39 -10 -47 -9 -13 -12 -13 -24 3 -7 9 -17 17 -22 17 -19 0 -90 128
-136 243 -42 103 -87 177 -138 227 -16 16 -99 119 -114 142 -12 18 -20 65 -28
157 -9 114 -8 134 5 149 29 33 24 54 -21 89 -24 18 -50 33 -58 33 -14 0 -54
-68 -54 -93 0 -8 7 -20 15 -27 11 -9 15 -32 15 -81 0 -38 -4 -69 -8 -69 -5 0
-29 28 -54 63 -25 34 -58 73 -72 86 -32 30 -33 53 -2 94 35 47 60 121 53 157
-4 19 -2 30 5 30 6 0 61 -27 122 -59z m1796 -13 c6 -35 26 -91 43 -126 l31
-62 -31 -33 c-17 -17 -47 -58 -67 -91 -46 -72 -59 -65 -64 33 -4 62 -2 70 17
80 25 14 29 62 6 81 -21 17 -89 24 -114 11 -26 -14 -30 -81 -6 -101 21 -17 21
-235 1 -285 -8 -19 -51 -77 -94 -129 -90 -106 -130 -172 -167 -270 -57 -150
-179 -347 -206 -330 -5 3 -9 48 -9 101 0 53 -5 125 -11 160 -13 74 -14 70 72
248 32 66 87 210 124 319 36 109 73 211 82 226 8 15 48 47 87 71 80 49 278
159 287 159 4 0 12 -28 19 -62z m2707 -224 c-3 -3 -12 -4 -19 -1 -8 3 -5 6 6
6 11 1 17 -2 13 -5z m-67 -14 c0 -5 -7 -10 -16 -10 -8 0 -12 5 -9 10 3 6 10
10 16 10 5 0 9 -4 9 -10z m-8083 -91 c26 -23 73 -65 103 -93 71 -68 247 -201
369 -280 257 -167 441 -245 661 -280 147 -23 518 -36 1057 -36 395 0 507 -3
570 -15 43 -8 98 -15 123 -15 56 0 62 -4 92 -60 103 -188 137 -259 128 -265
-5 -3 -58 1 -118 10 -84 13 -122 24 -177 53 l-70 37 -285 5 -285 5 -31 32
c-55 56 -134 56 -186 1 l-29 -31 -302 7 c-166 3 -345 13 -397 20 -110 16 -292
59 -367 88 -52 19 -53 20 -53 61 -1 60 -46 107 -102 107 -31 0 -88 -36 -88
-55 0 -41 -61 -24 -256 71 l-131 65 -5 44 c-7 62 -28 89 -91 119 -50 23 -181
131 -255 208 l-33 35 41 88 c36 79 57 115 66 115 1 0 24 -19 51 -41z m4210
-49 c10 -19 21 -37 24 -40 4 -3 10 -16 14 -30 4 -14 11 -27 15 -30 10 -6 13
-31 11 -105 l-1 -60 -20 25 c-11 14 -20 29 -20 33 0 5 -7 25 -16 45 -9 21 -20
46 -24 57 -16 37 -39 120 -45 160 l-7 40 26 -30 c13 -16 33 -46 43 -65z m589
22 c-20 -20 -34 -7 -18 16 7 9 16 26 20 37 6 17 7 16 10 -9 2 -17 -3 -35 -12
-44z m4233 54 c20 -24 90 -197 85 -209 -3 -7 -28 -30 -56 -52 -28 -22 -81 -66
-117 -98 -45 -39 -78 -59 -103 -63 -20 -4 -51 -15 -68 -25 -34 -21 -64 -80
-55 -108 5 -17 -6 -26 -105 -90 -8 -5 -28 -16 -45 -24 -16 -8 -66 -32 -110
-55 -44 -22 -97 -43 -117 -47 -21 -4 -38 -11 -38 -15 0 -12 -28 -20 -45 -14
-26 10 -16 21 25 28 30 5 40 11 40 25 0 32 -35 53 -91 54 -45 1 -55 -3 -75
-27 -16 -18 -24 -40 -24 -65 0 -37 -1 -39 -62 -64 -35 -15 -99 -36 -143 -46
-171 -43 -261 -51 -627 -58 l-357 -6 -40 36 c-69 62 -139 57 -198 -14 l-25
-29 -218 0 -218 0 -84 -40 c-45 -22 -114 -47 -153 -55 -71 -15 -157 -20 -168
-9 -3 3 11 28 31 54 20 27 59 91 86 142 60 116 71 128 112 128 18 0 65 6 106
14 55 11 218 16 653 20 718 8 897 13 955 31 25 8 110 29 190 48 80 19 172 46
205 61 33 15 76 35 95 44 40 18 249 147 324 200 87 61 176 133 296 239 63 57
118 103 121 103 4 0 12 -6 18 -14z m-1399 -34 c96 -71 90 -180 -14 -249 -54
-37 -71 -39 -120 -19 -43 18 -86 93 -86 149 0 110 134 183 220 119z m-6137 -3
c30 -14 57 -59 57 -96 l-1 -28 -16 30 c-27 52 -44 65 -83 65 -45 0 -60 -14
-60 -58 0 -36 45 -92 74 -92 22 0 20 -13 -5 -28 -16 -10 -28 -11 -54 -2 -41
14 -65 48 -65 95 0 89 78 148 153 114z m2884 -41 c-3 -8 -6 -5 -6 6 -1 11 2
17 5 13 3 -3 4 -12 1 -19z m-1091 -101 c31 -28 109 -165 100 -174 -9 -9 -43
17 -110 86 -79 80 -99 110 -84 128 13 16 52 -1 94 -40z m2484 35 c0 -32 -59
-108 -131 -168 -45 -37 -59 -42 -59 -19 0 52 124 205 166 205 17 0 24 -6 24
-18z m-1007 -22 c-3 -12 -8 -19 -11 -16 -5 6 5 36 12 36 2 0 2 -9 -1 -20z
m2001 -107 c-10 -15 -35 -62 -55 -104 -20 -42 -54 -94 -75 -116 l-39 -40 -205
-7 c-113 -3 -222 -9 -242 -12 -21 -4 -38 -2 -38 3 0 5 37 31 82 59 45 27 108
71 140 98 53 44 67 50 141 63 45 7 132 31 192 52 61 21 112 36 114 35 2 -2 -5
-16 -15 -31z m-6798 -130 c47 -40 61 -59 57 -73 -3 -11 -10 -20 -15 -20 -15 0
-181 88 -213 114 -28 23 -29 25 -15 52 32 64 25 67 186 -73z m9204 71 c0 -17
-25 -39 -106 -93 -59 -39 -110 -71 -115 -71 -36 0 6 49 160 188 33 29 37 31
49 15 6 -9 12 -27 12 -39z m-7023 0 c16 -26 16 -27 -6 -45 -38 -31 -84 9 -61
52 15 27 47 24 67 -7z m4733 11 c18 -22 -12 -65 -45 -65 -31 0 -34 31 -5 60
24 24 33 25 50 5z m2347 -140 c8 -22 33 -92 54 -155 45 -130 47 -125 -46 -164
-39 -15 -50 -16 -75 -6 -26 11 -30 17 -30 54 0 84 -66 154 -89 94 -17 -44 -83
-89 -245 -169 -88 -44 -166 -79 -173 -79 -7 0 -50 -15 -95 -34 -243 -100 -656
-212 -885 -241 -51 -7 -52 -6 -96 39 -26 28 -52 46 -66 46 -33 0 -75 -25 -91
-54 -17 -32 -20 -32 -66 -1 -44 30 -85 32 -109 5 -9 -10 -31 -24 -49 -29 -35
-12 -296 -40 -378 -42 -29 -1 -64 -4 -78 -8 -24 -7 -24 -8 10 -15 19 -4 87
-11 150 -15 63 -4 129 -14 147 -21 28 -12 34 -12 51 3 23 21 81 22 108 2 12
-9 42 -14 80 -15 52 0 64 4 84 25 l23 25 39 -35 c48 -44 82 -45 133 -5 21 17
50 30 65 30 81 0 328 51 560 116 286 79 436 137 690 266 85 43 158 78 162 78
15 0 8 -27 -13 -54 -13 -17 -18 -33 -14 -46 4 -12 1 -28 -7 -37 -10 -13 -10
-17 0 -20 61 -21 -549 -257 -848 -329 -269 -64 -294 -69 -469 -94 -142 -20
-481 -37 -523 -27 -14 4 -31 20 -41 41 -26 55 -59 58 -107 10 -21 -21 -37 -41
-34 -45 5 -8 -675 -2 -768 7 -38 3 -68 9 -68 13 0 4 12 19 28 33 26 25 33 26
199 35 130 6 179 5 202 -4 58 -24 103 14 82 70 -9 24 -14 25 -125 32 -63 4
-177 6 -253 4 -153 -5 -150 -4 -304 -106 -115 -76 -250 -129 -378 -148 -62 -9
-120 -19 -127 -22 -36 -14 -6 23 79 94 129 109 179 141 235 148 44 6 226 37
302 51 19 3 78 26 130 51 l95 44 203 6 203 6 27 -26 c62 -60 149 -56 199 9
l25 34 127 0 c146 0 537 25 656 41 124 17 244 46 334 79 70 25 90 29 142 23
50 -5 65 -3 87 14 15 10 52 29 82 42 77 33 281 135 337 170 39 25 50 27 75 19
52 -18 97 -3 152 50 28 27 59 52 68 55 25 9 154 95 169 113 20 24 41 12 56
-31z m-9378 -40 c55 -36 106 -65 115 -65 8 0 30 -16 47 -35 39 -43 84 -57 138
-43 37 9 43 8 72 -16 38 -32 203 -113 327 -161 52 -19 105 -44 119 -55 28 -22
73 -26 90 -9 8 8 17 8 32 -1 29 -15 164 -58 221 -70 226 -49 393 -67 682 -76
l226 -7 21 -28 c39 -53 148 -64 196 -19 22 21 28 21 271 18 l249 -3 67 -33
c67 -33 179 -59 418 -97 99 -16 109 -19 175 -67 39 -28 102 -79 142 -112 58
-49 68 -62 51 -64 -31 -5 -185 17 -237 34 -61 21 -293 137 -334 167 -76 58
-81 58 -321 56 -150 -1 -229 2 -243 10 -35 18 -82 13 -106 -11 -20 -20 -31
-23 -93 -20 -39 1 -81 -2 -95 -7 -18 -7 0 -10 74 -10 88 -1 99 -3 104 -20 2
-10 19 -25 37 -33 27 -13 37 -14 62 -3 44 18 384 -2 447 -27 31 -12 33 -20 10
-39 -28 -24 -782 -41 -822 -19 -10 5 -21 20 -25 33 -3 13 -16 29 -30 36 -20
11 -28 11 -55 -5 -17 -10 -35 -30 -40 -45 -8 -23 -17 -29 -56 -35 -26 -3 -75
-4 -109 0 -33 4 -108 11 -166 17 -58 5 -132 14 -165 20 -155 27 -235 42 -290
54 -33 7 -89 19 -125 25 -111 21 -409 108 -595 174 -100 35 -329 136 -336 148
-4 6 -5 18 -2 27 2 10 -7 22 -27 33 -24 14 -30 24 -30 52 0 19 4 37 10 41 10
6 81 -22 220 -87 127 -59 197 -88 275 -114 39 -12 115 -39 170 -58 169 -61
523 -146 712 -171 58 -8 115 -20 127 -28 66 -44 146 -11 146 59 0 85 -110 128
-163 64 -23 -27 -32 -30 -81 -30 -129 0 -472 78 -721 165 -246 85 -458 169
-613 242 -56 27 -79 44 -98 75 -44 69 -65 63 -103 -32 -15 -38 -19 -65 -15
-88 4 -17 4 -32 0 -32 -6 0 -168 79 -175 86 -7 6 102 304 111 304 5 0 53 -29
107 -65z m-9 -265 c0 -5 -4 -10 -10 -10 -5 0 -10 5 -10 10 0 6 5 10 10 10 6 0
10 -4 10 -10z m877 -5 c7 -20 -2 -29 -21 -22 -9 4 -13 13 -10 22 8 19 23 19
31 0z m2543 -19 c269 -69 415 -156 550 -327 85 -107 150 -243 175 -367 17 -81
20 -162 6 -162 -5 0 -56 42 -114 93 -58 50 -142 121 -187 155 -44 35 -93 82
-107 103 -24 37 -25 43 -15 93 14 70 2 116 -37 139 -39 23 -76 21 -101 -5 -25
-28 -25 -52 1 -89 19 -27 19 -29 2 -29 -19 0 -81 37 -122 74 -36 32 -221 317
-221 340 0 13 82 4 170 -18z m2610 19 c0 -29 -126 -224 -207 -320 -70 -83 -93
-93 -93 -40 0 76 -93 123 -151 76 -22 -18 -24 -26 -24 -132 l0 -113 -61 -50
c-136 -112 -347 -278 -362 -283 -40 -16 28 238 103 387 95 187 258 320 508
415 128 48 287 81 287 60z m3496 -105 c13 -41 24 -76 24 -77 0 -5 -174 -83
-185 -83 -7 0 -18 7 -25 15 -16 19 3 45 31 45 29 0 23 24 -16 61 -39 38 -45
59 -16 59 10 0 47 13 82 30 35 16 68 28 73 27 4 -2 19 -36 32 -77z m-9676 35
c37 -25 56 -32 64 -25 9 6 19 5 33 -5 30 -21 19 -52 -23 -67 -47 -17 -45 -51
4 -77 25 -13 30 -41 7 -41 -16 0 -192 86 -198 98 -8 14 35 152 48 152 7 0 37
-16 65 -35z m4937 -212 c-1 -43 -3 -8 -3 77 0 85 2 120 3 78 2 -43 2 -113 0
-155z m-54 92 c3 -59 2 -92 -3 -80 -8 19 -14 193 -6 184 2 -2 6 -49 9 -104z
m2275 -21 c14 -25 3 -52 -25 -59 -31 -7 -53 10 -53 40 0 36 61 50 78 19z
m2565 -72 c2 -15 16 -80 31 -144 31 -141 31 -145 6 -153 -11 -3 -20 -12 -20
-20 0 -7 -7 -15 -15 -19 -8 -3 -15 -12 -15 -20 0 -7 -7 -17 -15 -20 -12 -4
-14 -14 -9 -41 4 -23 2 -41 -6 -50 -10 -13 -10 -19 4 -34 15 -16 15 -19 1 -24
-8 -4 -15 -13 -15 -22 0 -8 -6 -15 -12 -15 -23 1 -49 27 -43 43 4 9 -5 26 -22
43 -29 29 -20 44 16 25 23 -13 71 -15 71 -3 0 4 -13 16 -30 25 -16 10 -41 38
-56 63 -14 24 -33 48 -42 53 -9 5 -13 15 -9 25 6 15 9 15 36 1 72 -36 80 -10
16 52 -48 46 -52 53 -32 53 7 0 22 7 33 15 19 15 19 15 0 30 -11 8 -30 15 -42
15 -12 0 -28 7 -35 16 -11 14 -11 18 2 28 8 6 18 19 22 28 7 19 145 88 163 81
7 -2 14 -16 17 -31z m-9748 -19 c84 -46 99 -65 73 -91 -7 -7 -22 -12 -34 -12
-12 0 -27 -7 -34 -15 -13 -15 -6 -35 13 -35 7 0 18 -4 26 -9 20 -13 0 -37 -44
-55 -34 -14 -49 -44 -34 -67 7 -11 12 -12 26 -1 50 35 91 41 66 10 -6 -7 -14
-24 -18 -38 -4 -14 -25 -40 -46 -58 -40 -35 -49 -52 -26 -52 7 0 22 -7 33 -15
18 -15 18 -15 0 -29 -10 -8 -15 -19 -12 -24 5 -8 -28 -52 -39 -52 -33 0 -43
27 -22 60 10 17 9 22 -1 29 -7 4 -10 15 -7 23 4 10 -2 22 -17 32 -19 14 -20
18 -9 26 12 7 12 11 3 23 -7 8 -12 19 -10 23 4 15 -22 54 -37 54 -24 0 -27 19
-15 93 23 139 48 227 65 227 8 0 53 -21 100 -47z m319 38 c3 -4 16 -6 28 -4
13 2 57 -10 98 -27 242 -101 481 -180 759 -251 71 -18 118 -35 127 -46 18 -24
17 -31 -6 -43 -11 -6 -23 -22 -26 -35 -3 -14 -8 -25 -11 -25 -21 0 -202 55
-218 66 -11 8 -31 14 -45 14 -28 0 -174 36 -400 98 -85 24 -201 63 -242 82
-32 15 -36 36 -10 57 14 12 15 15 3 20 -24 9 -81 75 -81 93 0 12 17 13 24 1z
m8992 -13 c4 -6 0 -16 -8 -22 -8 -6 -15 -15 -16 -19 0 -5 -14 -24 -31 -43 -28
-31 -29 -34 -11 -34 26 0 28 -45 3 -53 -10 -3 -70 -21 -133 -42 -177 -56 -440
-126 -488 -130 -25 -1 -58 -13 -80 -28 -38 -26 -125 -47 -194 -47 -36 0 -38 2
-51 48 -16 51 -9 72 23 72 28 0 220 47 302 74 40 13 98 31 128 40 86 27 236
84 305 116 52 24 210 77 237 79 4 1 10 -4 14 -11z m-3432 -126 c7 -12 -42 -38
-51 -28 -5 4 1 14 11 22 23 16 33 18 40 6z m-1006 -104 c48 -101 72 -162 72
-187 0 -11 6 -22 13 -25 9 -3 8 -8 -4 -15 -14 -9 -15 -17 -6 -53 13 -54 12
-422 -2 -503 -5 -33 -14 -78 -20 -100 -5 -22 -15 -62 -21 -90 -6 -27 -15 -58
-20 -67 -6 -10 -10 -22 -10 -28 0 -6 -25 -61 -55 -124 -30 -62 -55 -116 -55
-120 0 -4 -8 -15 -17 -26 -10 -10 -27 -36 -38 -57 -11 -21 -32 -58 -46 -83
-52 -87 -80 -135 -96 -167 -9 -18 -20 -33 -25 -33 -26 0 6 75 133 305 57 103
152 312 177 391 36 111 55 300 49 484 -6 194 -26 286 -92 425 l-42 89 26 33
c14 18 29 33 32 33 4 0 25 -37 47 -82z m-4363 -43 c44 -13 105 -31 135 -39 30
-8 109 -29 175 -46 66 -18 126 -37 133 -42 6 -6 12 -23 12 -38 0 -31 39 -70
69 -70 24 0 61 29 71 56 11 29 26 29 105 5 53 -16 60 -22 66 -49 5 -25 2 -32
-17 -43 -28 -14 -30 -24 -9 -33 22 -8 18 -32 -6 -50 -14 -10 -19 -21 -15 -32
4 -11 -1 -22 -14 -31 -25 -18 -25 -30 0 -38 20 -6 28 -35 10 -35 -6 0 -16 -11
-22 -25 -9 -19 -16 -24 -32 -19 -33 10 -38 19 -26 48 9 25 8 27 -9 21 -15 -4
-23 2 -35 26 -9 18 -16 38 -16 45 0 8 -9 28 -19 45 l-20 32 -20 -34 c-12 -19
-21 -42 -21 -51 0 -9 -6 -23 -12 -30 -31 -33 -39 -57 -26 -79 10 -17 10 -23 1
-26 -7 -3 -13 -11 -13 -19 0 -17 -46 -19 -56 -3 -4 7 1 16 10 21 24 13 20 28
-8 28 -16 0 -26 7 -30 23 -3 12 -1 24 4 25 16 6 11 29 -6 36 -9 4 -14 9 -11
13 4 3 2 12 -3 18 -7 9 -6 16 5 25 22 19 18 30 -11 30 -24 0 -26 3 -21 28 4
21 1 31 -15 41 -15 9 -17 16 -9 24 6 6 11 18 11 26 0 16 -70 82 -81 76 -8 -6
-39 -98 -39 -119 0 -9 -9 -16 -20 -16 -11 0 -20 -7 -20 -15 0 -8 5 -15 10 -15
6 0 10 -6 10 -14 0 -9 -8 -12 -25 -8 -18 3 -25 0 -25 -12 0 -10 9 -16 25 -16
29 0 33 -14 8 -29 -15 -9 -16 -12 -4 -20 11 -7 10 -11 -7 -20 -17 -9 -20 -18
-15 -41 3 -18 1 -30 -5 -30 -11 0 -25 47 -17 59 3 5 -3 12 -12 15 -14 6 -15 9
-4 16 12 7 12 13 1 42 -8 18 -21 44 -29 57 -16 25 -16 26 -27 76 -11 50 -22
56 -50 29 -13 -14 -29 -22 -34 -19 -6 3 -13 -1 -16 -9 -9 -24 -24 -9 -24 24 0
19 -9 35 -27 48 -36 26 -21 48 21 32 20 -7 28 -7 32 4 6 15 -49 101 -70 109
-8 3 -20 16 -26 28 -12 21 -11 21 36 15 27 -4 85 -18 129 -31z m8756 9 c-12
-15 -21 -33 -21 -40 0 -8 -5 -14 -11 -14 -6 0 -9 -6 -6 -14 3 -8 -2 -16 -15
-19 -24 -7 -20 -26 8 -41 10 -6 20 -11 21 -12 2 0 -3 -13 -10 -28 -6 -14 -22
-29 -34 -32 -28 -8 -29 -24 -3 -47 24 -20 25 -36 6 -63 -17 -23 -15 -26 -54
59 -17 37 -36 67 -41 67 -10 0 -41 -84 -41 -112 0 -10 -5 -18 -11 -18 -7 0 -9
-9 -5 -24 4 -15 1 -26 -8 -29 -8 -3 -13 -21 -13 -44 0 -51 -11 -83 -28 -83
-21 0 -23 22 -3 42 23 23 23 31 -4 43 -13 6 -22 17 -20 24 1 7 -2 19 -8 26 -8
10 -8 19 0 34 11 22 -1 61 -20 61 -6 0 -10 11 -10 25 0 14 -4 25 -10 25 -5 0
-10 8 -10 18 0 23 -28 62 -45 62 -7 0 -18 -14 -24 -30 -5 -17 -20 -44 -32 -61
-11 -16 -18 -37 -15 -45 3 -9 -3 -28 -15 -42 -18 -23 -19 -27 -5 -30 22 -5 20
-15 -10 -45 -25 -26 -27 -37 -9 -79 4 -11 0 -18 -13 -22 -23 -8 -37 -47 -20
-57 16 -10 -36 -41 -56 -33 -16 6 -16 8 -1 24 15 17 15 19 -5 25 -13 4 -19 12
-16 20 3 8 -10 45 -28 82 -18 37 -35 75 -38 83 -4 11 -9 6 -19 -15 -7 -16 -17
-32 -20 -35 -12 -9 -39 -82 -39 -106 0 -13 -9 -28 -21 -35 -15 -8 -18 -14 -10
-22 16 -16 14 -37 -4 -37 -8 0 -21 13 -30 30 -8 16 -23 34 -32 39 -15 9 -14
10 10 11 35 0 34 5 -5 38 -30 25 -30 27 -9 32 21 5 20 6 -13 56 -33 48 -34 52
-16 57 29 7 24 23 -10 39 -35 15 -38 28 -9 35 16 4 19 11 14 32 -5 23 -2 26
22 26 16 0 51 4 79 8 47 7 51 6 64 -18 27 -50 130 -15 130 44 0 16 6 33 13 38
6 5 57 20 112 32 86 20 337 84 430 111 17 4 38 8 48 9 17 1 17 -1 -2 -25z
m-7750 -68 c128 -25 318 -47 474 -54 l150 -7 -3 -27 c-2 -19 3 -31 17 -40 31
-19 26 -36 -11 -40 -26 -2 -33 -8 -33 -24 -1 -12 -7 -29 -15 -39 -12 -14 -12
-18 1 -26 8 -5 21 -9 29 -9 8 0 -3 -12 -25 -27 l-39 -26 25 -11 c13 -5 26 -11
28 -12 2 -2 -6 -15 -18 -30 -23 -29 -27 -54 -10 -71 14 -14 -21 -84 -41 -80
-19 3 -29 47 -16 70 9 14 7 21 -8 33 -11 8 -17 14 -13 14 4 0 -4 23 -19 51
-14 28 -27 49 -29 47 -15 -15 -65 -124 -61 -134 3 -7 2 -15 -2 -19 -4 -4 -7
-15 -7 -26 0 -20 -20 -27 -20 -6 0 6 -5 19 -10 27 -5 8 -8 27 -7 41 2 16 -3
29 -12 32 -8 3 -18 22 -22 41 -8 43 -21 46 -34 9 -6 -16 -17 -40 -25 -55 -8
-14 -15 -45 -15 -67 0 -23 -4 -41 -9 -41 -14 0 -23 35 -15 64 9 36 -13 97 -33
89 -12 -5 -14 -1 -8 15 4 13 2 22 -5 22 -6 0 -8 10 -4 26 5 18 0 32 -17 50
l-23 24 -18 -27 c-10 -16 -18 -40 -18 -55 0 -16 -5 -28 -10 -28 -6 0 -10 -6
-9 -12 1 -7 1 -30 0 -50 -1 -33 -4 -38 -25 -38 -30 0 -42 16 -26 35 10 12 9
15 -3 15 -10 0 -13 6 -10 19 2 10 -3 25 -12 34 -9 10 -17 31 -17 47 -1 17 -6
34 -11 37 -6 4 -3 9 8 13 17 6 17 9 -8 30 l-28 24 23 9 c12 4 18 11 13 15 -6
4 -21 31 -34 59 -14 29 -33 60 -43 70 -41 37 -8 42 113 19z m6735 -2 c-3 -9
-6 -20 -6 -25 0 -5 -11 -14 -25 -19 -34 -13 -42 -37 -19 -55 18 -13 18 -14 1
-15 -10 0 -28 -6 -40 -14 -27 -17 -209 -35 -290 -29 -45 4 -57 2 -55 -9 2 -10
-32 -13 -177 -13 -176 0 -180 0 -183 21 -2 15 3 23 17 27 29 7 26 21 -10 51
-17 14 -27 26 -22 26 285 -1 538 19 708 55 87 18 108 18 101 -1z m-1418 -58
c394 6 432 5 432 -10 0 -9 5 -16 10 -16 6 0 10 -7 10 -15 0 -8 -5 -15 -11 -15
-14 0 -48 -41 -49 -57 0 -7 10 -13 23 -13 21 -1 21 -1 2 -12 -40 -21 -61 -68
-31 -68 30 0 26 -21 -8 -52 -42 -37 -46 -58 -11 -58 43 0 26 -34 -30 -60 -32
-15 -34 -18 -16 -23 25 -6 28 -24 5 -29 -20 -4 -28 -79 -10 -90 7 -5 3 -8 -9
-8 -35 0 -65 12 -65 25 0 25 -41 145 -49 145 -11 0 -53 -69 -56 -90 -1 -8 -5
-23 -9 -33 -5 -10 -3 -23 3 -31 9 -11 8 -15 -5 -20 -11 -4 -14 -13 -11 -27 3
-12 0 -22 -9 -26 -8 -3 -12 -9 -9 -13 9 -14 -16 -23 -28 -11 -8 8 -7 11 3 11
9 0 6 6 -8 16 -12 8 -22 22 -22 31 0 9 -12 41 -26 71 l-26 56 -19 -42 c-11
-22 -23 -43 -28 -47 -5 -3 -13 -20 -16 -38 -4 -17 -14 -45 -23 -62 -11 -22
-12 -30 -3 -33 8 -3 5 -12 -10 -28 -24 -26 -51 -32 -48 -11 2 13 -6 41 -22 69
-5 10 -9 26 -9 36 0 16 -21 64 -44 101 -7 11 -15 3 -32 -30 -13 -24 -23 -54
-24 -65 0 -12 -7 -27 -15 -34 -8 -7 -15 -25 -15 -41 0 -22 -5 -29 -20 -29 -14
0 -21 9 -25 38 -4 20 -12 48 -18 61 -6 13 -12 29 -12 35 -1 6 -6 22 -12 36 -6
14 -14 33 -17 43 -10 30 -38 15 -62 -31 -13 -24 -23 -47 -21 -50 1 -4 -7 -19
-17 -35 -14 -21 -16 -30 -7 -41 9 -10 8 -16 -4 -26 -9 -7 -13 -21 -9 -34 3
-14 -1 -28 -11 -36 -9 -7 -13 -20 -10 -31 4 -12 1 -21 -10 -25 -15 -6 -15 -8
0 -25 16 -16 15 -19 -14 -34 -36 -18 -39 -31 -10 -40 20 -7 20 -8 -10 -35 -17
-16 -31 -37 -31 -47 0 -11 -5 -24 -12 -31 -10 -10 -9 -15 2 -26 18 -18 13 -19
355 68 142 36 262 66 266 66 5 0 -3 -19 -17 -42 -24 -42 -25 -48 -23 -222 2
-105 -2 -181 -7 -183 -5 -2 -41 28 -79 67 -79 80 -86 81 -201 51 -39 -11 -106
-24 -150 -31 -82 -12 -106 -20 -105 -32 1 -5 1 -56 1 -114 l0 -107 178 5 c161
5 182 8 233 31 l57 25 4 -222 c3 -121 3 -223 1 -225 -2 -3 -38 30 -81 72 -100
99 -121 107 -272 107 l-120 0 0 -99 c0 -67 4 -102 13 -108 6 -6 44 -23 82 -38
178 -69 259 -101 369 -147 127 -53 136 -52 136 4 0 22 19 122 47 251 3 15 8
27 12 27 3 0 18 -31 33 -68 62 -151 187 -270 341 -323 98 -34 175 -37 265 -10
246 75 330 282 172 425 -61 55 -126 81 -325 131 -200 50 -285 85 -344 144
-134 134 -134 366 -1 560 104 151 271 251 508 303 83 18 139 22 396 26 164 2
297 0 295 -4 -2 -5 -18 -36 -35 -69 -59 -112 -76 -192 -72 -329 2 -66 8 -129
12 -138 15 -34 -13 -19 -92 47 -96 82 -156 117 -252 148 -238 77 -468 18 -550
-143 -24 -47 -26 -119 -5 -161 30 -58 100 -87 295 -124 266 -50 410 -139 486
-299 98 -207 53 -441 -120 -624 -57 -60 -86 -81 -160 -117 -50 -24 -129 -54
-176 -66 -75 -19 -101 -21 -240 -16 -158 6 -205 14 -342 61 -100 35 -621 254
-818 345 l-155 71 3 376 4 376 -34 -7 c-18 -4 -69 -17 -113 -30 -44 -12 -96
-27 -115 -32 l-35 -9 -3 -177 c-1 -97 -6 -177 -11 -177 -5 0 -28 21 -51 48
-56 62 -127 212 -192 402 l-53 155 0 160 c0 140 3 169 24 235 53 172 158 322
281 405 134 90 129 89 580 93 l395 3 21 -27 c26 -31 61 -38 126 -23 63 14 98
48 98 93 0 31 -5 38 -45 62 -37 21 -52 25 -83 19 -20 -4 -178 -9 -349 -12
-340 -4 -349 -3 -276 47 111 76 119 78 176 63 43 -12 127 -13 485 -7z m-3823
-1 c116 0 237 3 270 7 60 7 62 6 140 -40 43 -26 81 -53 83 -60 3 -11 -56 -12
-319 -8 -178 3 -343 7 -366 8 -35 2 -48 -3 -73 -27 -24 -23 -30 -37 -30 -72 0
-32 5 -45 19 -53 30 -16 99 -12 128 8 24 15 66 17 432 20 463 3 498 -1 600
-69 54 -36 146 -123 189 -179 69 -89 134 -257 152 -390 21 -158 -1 -256 -138
-628 -48 -130 -141 -287 -156 -263 -3 5 -9 92 -12 195 -6 158 -10 186 -23 190
-9 3 -146 37 -306 75 -159 39 -306 76 -326 81 -20 6 -50 10 -68 10 l-31 0 0
-140 c0 -105 3 -140 13 -141 6 0 77 0 157 1 123 1 151 4 187 21 23 11 47 18
53 14 13 -8 12 -315 -1 -315 -5 0 -37 14 -70 30 -59 30 -61 31 -197 28 l-137
-3 0 -142 c0 -78 3 -144 7 -148 7 -8 358 108 476 157 40 17 75 29 76 27 2 -2
-24 -61 -57 -131 -69 -142 -49 -125 -242 -208 -60 -26 -130 -56 -155 -68 -25
-11 -106 -45 -180 -75 -74 -30 -196 -80 -270 -110 -264 -108 -470 -176 -470
-156 0 4 12 21 26 36 38 41 79 128 98 208 14 56 16 110 14 275 l-3 205 -273 3
-274 2 5 -302 c3 -213 8 -315 17 -343 26 -76 93 -149 158 -169 37 -12 26 -22
-50 -45 -358 -109 -567 -166 -577 -155 -3 3 0 13 7 22 61 87 92 153 119 252
21 80 32 718 12 731 -8 5 -169 9 -357 9 l-344 0 4 -322 c4 -305 6 -327 27
-388 28 -79 77 -162 128 -214 47 -49 144 -112 184 -121 17 -4 27 -11 22 -15
-8 -8 -349 -119 -584 -190 -185 -57 -330 -84 -329 -62 0 4 19 27 41 52 84 93
127 175 157 299 14 58 16 182 19 974 l4 907 -53 1 c-268 6 -354 -10 -456 -85
-64 -47 -107 -115 -121 -190 -24 -129 68 -270 203 -313 31 -10 56 -22 56 -26
0 -8 -87 -167 -127 -232 -35 -57 -113 -43 -231 42 -106 75 -177 189 -207 331
-19 91 -19 148 -1 232 51 240 206 403 464 490 140 46 205 49 935 45 736 -5
854 -9 992 -31 140 -23 136 -17 62 -91 -44 -43 -79 -90 -105 -141 -64 -126
-67 -145 -67 -447 l0 -270 50 -3 c28 -2 150 -1 273 3 l222 7 0 232 c0 242 -12
362 -46 446 -20 51 -76 144 -107 178 -35 37 -28 36 408 -93 295 -87 451 -134
565 -169 111 -35 136 -37 120 -6 -6 10 -10 30 -10 44 0 15 -11 34 -28 48 -27
22 -28 23 -9 39 18 14 18 16 2 32 -9 10 -15 24 -12 31 3 8 -3 22 -14 32 -14
13 -16 20 -8 31 9 10 7 18 -7 34 -11 12 -18 29 -16 39 2 10 -5 21 -15 24 -14
6 -15 9 -4 16 11 6 10 14 -8 39 -12 17 -19 36 -16 41 4 6 -5 22 -19 35 -14 13
-26 31 -26 39 0 27 -20 28 -32 2 -6 -14 -15 -26 -19 -26 -13 0 -31 -71 -25
-101 5 -24 2 -29 -14 -29 -22 0 -27 -24 -8 -36 8 -5 6 -11 -6 -20 -14 -10 -16
-16 -6 -34 15 -28 9 -33 -24 -19 -20 10 -23 15 -14 26 8 10 8 20 0 36 -6 12
-14 42 -18 66 -6 40 -42 123 -63 144 -4 4 -16 -12 -25 -35 -10 -24 -26 -61
-37 -83 -10 -22 -19 -53 -19 -68 0 -22 -4 -28 -17 -25 -12 2 -18 12 -18 28 0
14 -6 29 -13 33 -7 5 -10 12 -7 16 2 5 -2 14 -10 21 -7 6 -11 18 -8 26 3 8 -1
22 -9 32 -9 9 -23 36 -34 60 -10 23 -22 42 -26 42 -11 0 -50 -89 -43 -100 2
-4 -4 -15 -15 -25 -14 -12 -18 -26 -14 -51 3 -28 1 -34 -15 -34 -15 0 -18 5
-14 21 4 12 0 25 -7 29 -10 6 -11 12 -3 22 12 14 -18 119 -42 148 -7 8 -16 30
-20 47 -3 18 -11 35 -16 38 -11 7 -29 -37 -29 -71 0 -14 -5 -23 -12 -21 -8 1
-14 -11 -16 -28 -2 -16 -12 -40 -23 -53 -10 -14 -19 -35 -19 -47 0 -12 -3 -25
-6 -28 -10 -9 -45 13 -39 24 4 5 8 21 11 35 4 20 0 27 -16 31 -15 4 -18 9 -10
18 8 10 8 19 -2 35 -11 18 -11 23 5 34 9 7 17 16 17 20 0 12 -48 6 -53 -6 -2
-7 -11 2 -21 20 -19 37 -15 49 20 62 27 11 23 36 -6 45 -28 9 -43 32 -35 52 5
10 10 37 12 61 3 40 1 44 -26 53 -23 8 -29 16 -27 34 6 59 26 63 286 55 96 -3
270 -5 385 -5z m1693 -422 c4 -346 -5 -470 -31 -444 -12 12 -24 756 -12 817
l7 39 16 -35 c14 -29 17 -89 20 -377z m3482 296 c0 -5 -7 -9 -16 -9 -14 0 -14
-3 -4 -15 10 -13 10 -19 -5 -35 -10 -11 -15 -26 -12 -35 4 -8 2 -15 -3 -15
-15 0 -35 -43 -21 -48 16 -5 14 -23 -6 -38 -17 -12 -17 -14 2 -28 16 -11 17
-17 8 -27 -19 -19 -73 7 -73 36 0 12 -9 34 -20 48 -11 14 -20 33 -20 44 0 10
-8 27 -16 38 -15 20 -15 20 -33 -2 -10 -12 -21 -41 -25 -64 -4 -24 -12 -49
-18 -56 -6 -7 -8 -24 -6 -38 4 -19 1 -25 -13 -25 -23 0 -40 30 -32 58 3 13 -2
33 -12 48 l-17 26 -24 -23 c-13 -12 -24 -30 -24 -39 0 -61 -61 -97 -75 -42 -8
35 -45 112 -53 112 -9 0 -42 -58 -42 -74 0 -8 -9 -25 -21 -40 -11 -14 -17 -31
-13 -37 4 -7 -1 -18 -11 -25 -15 -11 -16 -16 -5 -29 10 -12 10 -15 -4 -15 -9
0 -16 4 -16 9 0 5 -7 17 -17 26 -14 14 -14 18 -2 25 11 8 12 15 2 41 -11 28
-10 34 4 45 16 11 14 16 -20 53 -44 48 -47 71 -12 71 19 0 25 5 25 23 0 13 -5
28 -12 35 -9 9 2 12 49 12 64 0 94 -15 46 -23 -52 -8 60 -6 132 2 60 6 72 5
89 -11 26 -24 64 -23 85 3 12 16 35 23 91 30 41 5 91 13 110 17 37 9 60 6 60
-9z m-8190 -74 c0 -17 -16 -35 -31 -35 -10 0 -19 -5 -19 -11 0 -5 -5 -7 -11
-3 -8 5 -8 9 1 14 8 5 9 10 2 14 -22 13 -2 32 28 28 17 -2 30 -6 30 -7z m9701
-11 c10 -13 10 -17 -2 -25 -19 -12 -25 -11 -40 7 -10 13 -10 17 2 25 19 12 25
11 40 -7z m-8151 -199 c7 -9 10 -18 7 -21 -7 -8 -47 14 -47 26 0 15 26 12 40
-5z m6557 -11 c5 -15 -28 -27 -40 -15 -5 5 -6 14 -2 21 8 13 37 9 42 -6z
m-333 -9 c4 -11 -2 -15 -21 -15 -21 0 -24 2 -13 15 7 8 16 15 20 15 4 0 10 -7
14 -15z m-6594 -20 c-7 -8 -17 -12 -22 -9 -6 4 -5 10 3 15 22 14 33 10 19 -6z
m5960 -149 c0 -8 -7 -16 -15 -20 -10 -4 -15 1 -15 14 0 11 7 20 15 20 8 0 15
-6 15 -14z m2025 -28 c-21 -60 -17 -158 10 -250 14 -50 32 -105 39 -122 8 -17
44 -112 81 -211 36 -99 77 -207 90 -240 145 -369 287 -765 319 -893 21 -83 21
-255 0 -336 -33 -127 -110 -246 -201 -309 -74 -51 -144 -68 -277 -68 -117 0
-313 24 -329 40 -5 5 40 20 99 35 234 57 381 164 429 314 15 46 16 63 6 122
-19 118 -135 440 -165 462 -6 4 -172 7 -371 8 -279 0 -364 -2 -376 -12 -9 -7
-44 -98 -79 -203 -57 -170 -63 -198 -63 -267 1 -85 22 -139 88 -225 19 -25 35
-49 35 -53 0 -5 -60 -11 -132 -15 -141 -8 -149 -6 -305 44 -470 153 -503 165
-503 181 0 6 8 10 18 10 37 0 198 61 263 100 139 83 240 200 311 362 88 203
313 766 430 1078 42 110 52 150 56 217 4 75 2 88 -22 137 -15 30 -40 66 -57
80 -16 14 -29 27 -29 30 0 3 145 6 321 6 l321 0 -7 -22z m-2240 -18 c3 -5 -3
-10 -15 -10 -12 0 -18 5 -15 10 3 6 10 10 15 10 5 0 12 -4 15 -10z m-402 -65
c-5 -16 -33 -21 -33 -7 0 13 22 32 31 26 5 -2 6 -11 2 -19z m197 -15 c0 -5 -4
-10 -10 -10 -5 0 -10 5 -10 10 0 6 5 10 10 10 6 0 10 -4 10 -10z m-1700 -381
c0 -23 -108 -249 -182 -378 -26 -46 -48 -87 -48 -91 0 -9 -41 -52 -46 -47 -2
2 0 18 5 35 11 38 -2 43 -21 7 -55 -104 -118 -237 -118 -250 0 -3 11 -3 25 1
15 4 25 2 25 -5 0 -6 -4 -11 -9 -11 -5 0 -12 -11 -15 -24 -6 -26 -31 -56 -46
-56 -11 0 -2 30 17 51 7 9 10 19 6 22 -12 13 -23 7 -23 -13 0 -11 -4 -20 -8
-20 -4 0 -16 -22 -27 -50 -11 -27 -23 -50 -27 -50 -4 0 -8 -6 -8 -12 0 -91
-410 -571 -535 -628 -23 -11 -45 -26 -49 -35 -3 -8 -16 -15 -30 -15 -14 0 -28
-5 -32 -11 -3 -6 -17 -8 -30 -5 -19 5 -24 2 -24 -13 0 -14 -32 -34 -132 -84
-178 -87 -220 -105 -297 -129 -36 -11 -70 -24 -76 -28 -5 -4 -23 -10 -40 -14
-16 -4 -52 -18 -80 -31 -117 -55 -212 -88 -220 -75 -3 4 7 11 22 15 14 3 36
13 47 21 20 14 20 15 -9 8 -16 -4 -34 -11 -39 -15 -6 -5 -20 -9 -33 -9 -13 0
-31 -4 -41 -9 -9 -5 -28 -14 -42 -20 -24 -11 -23 -11 8 -6 17 2 32 1 32 -4 0
-12 -26 -21 -63 -21 -18 -1 -57 -14 -87 -30 -30 -17 -63 -30 -72 -30 -9 0 -19
-4 -23 -9 -8 -13 -220 -81 -253 -81 -15 0 -52 -14 -82 -32 -84 -48 -144 -77
-157 -78 -7 0 -29 -11 -49 -25 -21 -14 -49 -28 -63 -32 -14 -3 -40 -17 -57
-30 -40 -30 -46 -29 -68 7 -9 17 -28 38 -42 46 -29 19 -31 34 -6 34 17 0 101
31 177 65 166 75 394 158 645 235 237 72 400 130 607 216 111 46 204 84 208
84 7 0 158 75 300 150 171 89 271 165 415 314 118 122 158 183 293 446 46 91
94 183 107 205 93 165 124 217 205 345 133 211 139 220 153 220 6 0 12 -9 12
-21z m-554 -79 c-7 -30 -16 -64 -21 -75 -10 -27 -99 -215 -136 -289 -17 -33
-28 -65 -25 -72 3 -8 0 -11 -9 -8 -8 4 -15 -5 -20 -25 -4 -17 -10 -31 -13 -31
-4 0 -18 -22 -31 -50 -13 -27 -30 -50 -38 -50 -9 0 -13 -6 -10 -14 3 -8 -3
-25 -14 -37 -11 -13 -18 -31 -16 -40 3 -12 0 -16 -10 -12 -12 5 -14 1 -8 -17
5 -15 4 -20 -4 -16 -6 4 -11 0 -11 -9 0 -8 -7 -18 -15 -22 -9 -3 -23 -19 -31
-35 -28 -54 -234 -272 -320 -339 -31 -24 -74 -59 -95 -78 -24 -20 -45 -31 -55
-27 -14 5 -63 -29 -134 -94 -9 -8 -24 -19 -34 -25 -9 -5 -18 -17 -19 -26 -3
-17 -37 -57 -37 -43 0 4 -9 -1 -19 -13 -29 -30 -266 -144 -350 -168 -25 -7
-80 -25 -121 -40 -76 -27 -264 -82 -355 -104 -60 -14 -417 -51 -495 -51 -66
-1 -133 -15 -138 -29 -6 -17 -40 -13 -70 8 -20 14 -52 21 -132 25 -102 7 -170
22 -170 38 0 4 80 8 177 8 97 0 215 4 262 10 47 5 151 17 231 25 277 30 485
83 765 192 251 99 381 173 577 329 201 161 467 443 623 660 50 70 179 315 249
474 23 51 75 131 82 126 1 -1 -4 -26 -10 -56z m741 13 c8 -10 50 -91 93 -181
75 -154 98 -196 193 -352 174 -284 498 -611 799 -806 234 -151 644 -304 988
-368 226 -41 382 -57 648 -63 118 -3 210 -9 205 -13 -35 -30 -281 -50 -422
-34 -58 7 -144 15 -190 18 -51 4 -88 11 -93 19 -6 9 -8 9 -8 0 0 -7 -7 -13
-15 -13 -8 0 -15 4 -15 9 0 7 -66 20 -127 24 -12 1 -25 5 -29 10 -4 4 -22 7
-40 7 -18 0 -43 4 -56 9 -13 5 -52 17 -88 26 -116 31 -387 124 -462 159 -40
18 -100 43 -133 55 -89 33 -216 97 -249 126 -16 14 -35 25 -43 25 -7 0 -13 5
-13 10 0 6 -7 10 -16 10 -8 0 -12 5 -9 10 3 6 -1 10 -10 10 -8 0 -18 7 -21 15
-6 15 -95 90 -209 175 -138 103 -313 293 -440 480 -32 47 -62 88 -68 91 -9 7
8 49 20 49 3 0 4 -3 0 -6 -3 -3 4 -17 16 -30 37 -42 29 -19 -26 82 -38 69 -59
98 -70 96 -29 -5 -123 214 -134 311 -6 59 0 69 24 40z m-130 -205 c58 -64 123
-197 123 -252 0 -24 -7 -16 -38 45 -21 41 -57 104 -80 140 -41 65 -50 89 -34
89 5 0 18 -10 29 -22z m250 -200 c-3 -7 -5 -2 -5 12 0 14 2 19 5 13 2 -7 2
-19 0 -25z m-287 -171 c127 -260 202 -375 340 -521 107 -113 312 -263 494
-360 341 -183 497 -245 1251 -497 145 -48 287 -100 332 -120 23 -11 44 -19 48
-19 3 0 24 -9 48 -19 23 -11 77 -34 120 -51 42 -18 77 -34 77 -37 0 -4 -18
-22 -41 -41 -22 -19 -45 -45 -50 -56 -7 -15 -8 -10 -4 19 5 35 2 42 -17 51
-27 13 -185 92 -210 105 -10 5 -18 5 -18 1 0 -4 17 -16 38 -25 20 -9 53 -27
72 -39 19 -12 48 -27 64 -33 29 -10 55 -39 45 -50 -3 -3 -18 1 -32 8 -15 8
-24 17 -20 20 3 4 -2 7 -13 7 -18 0 -36 8 -101 44 -75 41 -267 116 -312 122
-37 5 -86 28 -97 45 -5 9 1 10 20 5 44 -11 52 6 10 20 -170 61 -458 154 -474
154 -11 0 -20 5 -20 11 0 7 -10 9 -26 5 -25 -7 -94 12 -94 25 0 3 -19 9 -41
13 -40 6 -153 59 -145 67 3 2 -10 4 -27 4 -23 0 -35 6 -42 22 -14 32 -127 57
-139 31 -3 -7 -3 -3 -1 8 5 18 2 21 -20 16 -17 -3 -25 0 -25 10 0 21 -44 41
-79 36 -36 -5 -42 11 -8 20 22 6 22 6 -3 12 -17 4 -29 1 -36 -9 -11 -14 -16
-13 -48 4 -20 11 -36 23 -36 26 0 4 -10 10 -22 13 -13 3 -32 13 -42 21 -16 12
-17 17 -6 30 14 17 3 20 -20 5 -9 -6 -17 -5 -21 2 -4 7 -14 12 -21 14 -30 4
-155 88 -194 130 -22 24 -43 41 -47 37 -4 -3 -7 -1 -7 5 0 7 -6 12 -14 12 -21
0 -40 27 -24 33 8 4 7 6 -4 6 -11 1 -18 9 -18 22 0 15 -5 19 -15 15 -9 -3 -15
0 -15 9 0 8 -18 33 -41 56 -22 22 -38 43 -35 46 9 10 -15 33 -27 26 -5 -3 -7
-1 -4 4 4 6 -16 39 -44 74 -28 35 -76 106 -107 157 -31 52 -61 102 -67 111 -5
9 -20 31 -32 48 -13 17 -23 38 -23 46 0 9 -4 17 -8 19 -10 4 -62 114 -62 132
0 15 38 66 48 66 4 0 45 -78 92 -173z m-308 102 c-13 -5 -20 -13 -17 -19 4 -6
11 -8 16 -5 5 4 9 1 9 -4 0 -6 -4 -11 -10 -11 -5 0 -10 -8 -10 -17 0 -15 -2
-16 -10 -3 -6 10 -10 11 -10 3 0 -7 -4 -13 -10 -13 -6 0 -5 11 2 28 17 40 28
52 47 51 10 0 8 -3 -7 -10z m-29 -96 c-7 -2 -13 -13 -13 -24 0 -10 -3 -19 -7
-20 -5 0 -15 -2 -24 -4 -12 -2 -15 2 -11 18 3 12 7 16 10 9 6 -18 19 -14 25 8
3 11 11 20 19 19 10 0 10 -2 1 -6z m138 -120 c18 -42 22 -80 29 -308 5 -143
13 -285 19 -315 39 -220 76 -339 154 -498 100 -202 208 -345 398 -526 247
-235 468 -383 879 -587 120 -59 405 -179 427 -179 5 0 44 -12 88 -26 44 -14
130 -38 190 -54 61 -16 153 -40 205 -54 199 -52 478 -169 645 -270 71 -43 205
-155 205 -171 0 -2 -12 2 -27 10 -38 18 -74 32 -102 41 -13 3 -62 28 -109 55
-47 27 -87 49 -89 49 -2 0 -38 16 -79 36 -74 37 -97 54 -72 54 21 1 -80 50
-147 71 -33 11 -67 24 -75 28 -8 4 -46 7 -83 5 -51 -1 -70 2 -74 12 -3 8 -18
14 -33 14 -15 0 -41 7 -56 15 -16 8 -37 15 -46 15 -21 0 -32 17 -16 24 7 3 -8
3 -33 0 -29 -4 -49 -2 -53 5 -4 6 -20 11 -36 11 -16 0 -32 5 -35 10 -3 6 -17
10 -30 10 -13 0 -26 4 -29 9 -3 4 -23 11 -45 15 -22 3 -55 15 -73 25 -18 11
-73 31 -123 44 -49 13 -110 34 -135 45 -25 12 -65 29 -90 37 -25 9 -62 27 -82
40 -21 14 -40 25 -44 25 -3 0 -13 8 -22 19 -10 10 -39 26 -67 36 -27 10 -62
26 -77 36 -14 11 -31 19 -37 19 -6 0 -11 5 -11 10 0 6 -10 10 -21 10 -12 0
-30 10 -40 22 -11 11 -19 16 -19 10 0 -7 -7 -12 -15 -12 -8 0 -15 5 -15 11 0
5 -15 16 -32 24 -18 7 -43 23 -56 35 -13 12 -26 20 -29 16 -3 -3 -20 6 -37 19
-17 13 -58 38 -91 56 -33 18 -74 44 -91 58 -150 126 -194 167 -314 297 -169
184 -214 243 -246 325 -14 34 -15 42 -4 49 11 7 11 11 0 25 -9 11 -15 12 -20
5 -5 -7 -11 -6 -20 5 -10 12 -10 15 4 15 20 0 20 19 -1 45 -15 19 -15 19 -10
-10 l6 -30 -12 28 c-6 15 -17 27 -24 27 -7 0 -13 11 -13 26 0 16 -4 23 -12 18
-11 -7 -9 10 8 50 5 14 4 17 -4 12 -8 -5 -12 1 -12 18 0 14 -4 26 -10 26 -5 0
-10 7 -10 16 0 9 -9 29 -20 45 -80 112 -139 655 -95 882 8 43 15 81 15 83 0
16 14 -3 31 -43z m-500 -31 c-6 -12 -11 -30 -11 -41 0 -58 -120 -216 -284
-373 -50 -49 -94 -88 -98 -88 -11 0 -91 -52 -99 -64 -8 -11 -39 -1 -39 13 0 5
39 49 88 98 186 191 300 312 371 396 71 83 96 103 72 59z m1060 -99 c41 -43
121 -125 179 -183 160 -161 180 -184 153 -175 -14 4 -23 2 -23 -5 0 -6 -11 -3
-25 7 -13 10 -22 24 -20 31 6 15 -17 42 -35 42 -7 0 -10 -7 -7 -15 15 -38 -21
-21 -80 36 -119 117 -243 281 -243 321 0 34 28 18 101 -59z m-378 -183 c3 -11
1 -18 -4 -14 -5 3 -9 12 -9 20 0 20 7 17 13 -6z m-461 -142 c-47 -127 -106
-263 -114 -266 -4 -2 -8 -11 -8 -21 0 -9 -7 -26 -15 -37 -23 -30 -17 -40 9
-15 24 23 25 23 19 2 -3 -11 -9 -21 -14 -21 -5 0 -9 -7 -9 -15 0 -12 -4 -13
-19 -5 -16 8 -21 6 -26 -11 -8 -26 3 -38 16 -19 8 11 8 9 3 -10 -7 -25 -33
-57 -35 -43 -1 4 -1 17 0 28 2 14 -4 10 -20 -15 -12 -19 -25 -37 -29 -40 -4
-3 -24 -32 -45 -65 -36 -57 -122 -174 -135 -185 -4 -3 -38 -48 -76 -100 -38
-52 -72 -96 -76 -98 -5 -2 -8 -8 -8 -14 0 -9 -76 -113 -112 -152 -10 -11 -20
-28 -24 -38 -3 -10 -10 -18 -15 -18 -5 0 -9 -4 -9 -10 0 -5 -17 -38 -38 -72
-49 -82 -73 -134 -112 -240 -21 -56 -35 -76 -47 -64 -12 12 20 123 62 218 51
116 121 221 310 467 79 103 170 229 204 281 132 206 181 288 216 360 43 87
157 281 163 275 2 -2 -5 -28 -16 -57z m552 -2 c19 -29 75 -129 123 -222 145
-276 237 -416 434 -661 197 -246 324 -464 335 -575 5 -53 5 -53 -9 -22 -8 18
-20 35 -26 38 -6 4 -25 37 -41 74 -17 37 -34 74 -39 82 -4 8 -20 40 -36 70
-32 62 -84 149 -100 167 -5 6 -21 26 -35 44 -48 63 -126 147 -173 186 -15 13
-27 31 -27 42 0 10 -7 21 -15 25 -8 3 -15 10 -15 16 0 10 -8 21 -37 55 -7 7
-13 18 -13 23 0 15 -40 56 -47 49 -3 -4 3 -17 15 -30 12 -13 22 -27 22 -30 0
-9 -49 40 -73 73 -9 14 -24 35 -33 47 -22 31 -7 50 17 22 10 -12 19 -28 19
-34 0 -7 7 -16 16 -19 13 -5 11 1 -6 26 -11 18 -26 44 -33 58 -6 14 -15 27
-19 30 -13 10 -111 197 -147 280 -13 30 -31 73 -41 95 -31 68 -60 137 -60 141
0 14 15 -3 44 -50z m-1534 -351 c0 -2 -10 -10 -22 -16 -21 -11 -22 -11 -9 4
13 16 31 23 31 12z m1141 -52 c2 -43 -4 -88 -12 -91 -12 -5 -12 -72 1 -72 9 0
2 -31 -10 -40 -3 -3 -17 -39 -29 -80 -13 -41 -42 -106 -65 -143 -22 -37 -46
-76 -51 -85 -57 -95 -200 -266 -215 -257 -4 3 -23 -12 -42 -33 -61 -65 -141
-137 -203 -183 -33 -24 -62 -46 -65 -49 -3 -4 -21 -18 -41 -33 -20 -15 -36
-35 -35 -44 0 -9 -6 -18 -14 -21 -13 -5 -13 -3 -1 11 8 10 9 17 3 17 -11 0
-174 -98 -182 -110 -3 -4 -32 -22 -65 -40 -80 -44 -88 -51 -75 -64 8 -8 13 -7
19 3 5 8 11 9 15 3 5 -9 -4 -16 -29 -22 -5 -1 -18 -6 -27 -11 -21 -11 -24 1
-6 19 19 19 -32 -1 -142 -56 -73 -36 -95 -52 -95 -67 0 -14 -6 -19 -20 -18
-11 1 -24 -5 -28 -13 -11 -19 -31 -18 -23 1 6 16 -9 21 -18 6 -3 -4 -26 -14
-50 -21 -25 -7 -55 -23 -67 -36 -15 -16 -25 -21 -30 -13 -5 8 -13 6 -28 -8
-12 -11 -39 -26 -61 -33 -22 -7 -40 -17 -40 -22 0 -4 -4 -8 -10 -8 -5 0 -10 7
-10 15 0 17 -18 19 -38 6 -11 -6 -10 -10 5 -15 17 -7 17 -8 -2 -19 -11 -6 -48
-18 -83 -28 -54 -14 -65 -15 -77 -3 -7 8 -20 14 -27 13 -10 0 -10 -2 0 -6 21
-8 13 -19 -25 -34 -73 -30 -103 -37 -125 -31 -21 5 -21 6 -2 13 15 6 12 8 -13
8 -18 1 -42 -3 -55 -8 -13 -5 -68 -24 -123 -41 -55 -17 -108 -35 -117 -40 -10
-6 -25 -10 -33 -10 -9 0 -14 -4 -11 -9 3 -5 -2 -8 -12 -7 -9 0 -16 -4 -15 -10
1 -6 -10 -9 -28 -6 -24 4 -28 1 -23 -12 5 -12 2 -15 -10 -10 -10 4 -16 1 -16
-8 0 -18 -55 -50 -83 -48 -40 4 -58 0 -52 -9 3 -5 0 -13 -6 -17 -8 -5 -9 -3
-4 6 6 9 4 12 -6 8 -110 -44 -107 -43 -229 -111 -73 -41 -151 -99 -221 -162
-15 -15 -29 -11 -29 7 0 14 88 98 103 98 6 0 23 12 36 26 105 111 509 295 866
395 77 22 165 47 195 55 177 50 552 191 655 245 22 12 87 45 145 74 604 304
1005 715 1156 1182 37 115 53 146 55 106z m779 -13 c0 -5 -2 -10 -4 -10 -3 0
-8 5 -11 10 -3 6 -1 10 4 10 6 0 11 -4 11 -10z m-1396 -45 c-9 -14 -20 -25
-25 -25 -5 0 -9 -5 -9 -12 0 -17 -58 -108 -119 -183 -23 -30 -70 -98 -73 -106
-2 -5 -14 -11 -27 -14 -29 -5 -41 -22 -33 -43 3 -9 0 -13 -8 -10 -7 2 -40 -23
-74 -57 -100 -98 -163 -155 -173 -155 -4 0 -20 -11 -34 -24 -15 -13 -48 -38
-75 -55 -27 -17 -45 -31 -40 -31 21 0 -39 -40 -61 -40 -12 0 -23 -3 -23 -7 0
-12 -50 -33 -64 -27 -6 2 -40 -9 -75 -26 -35 -17 -65 -30 -67 -28 -11 11 37
45 151 108 237 129 407 281 633 565 72 91 142 165 157 165 4 0 13 7 21 15 24
24 36 17 18 -10z m1507 -32 c25 -27 107 -119 183 -205 230 -263 376 -388 566
-484 94 -47 156 -88 164 -110 10 -25 1 -27 -33 -10 -16 9 -43 17 -58 17 -18 1
-22 3 -10 6 34 9 -13 33 -53 28 -24 -4 -29 -3 -16 3 17 7 13 11 -22 25 -24 9
-49 17 -57 17 -8 0 -15 5 -15 10 0 6 -7 10 -15 10 -8 0 -15 5 -15 10 0 6 -5
10 -10 10 -6 0 -50 26 -98 57 -87 57 -186 149 -197 183 -3 11 -15 22 -26 25
-10 4 -19 11 -19 17 0 6 -49 59 -109 117 -111 108 -221 258 -221 300 0 31 11
26 61 -26z m379 20 c14 -9 27 -20 30 -23 3 -4 12 -10 20 -13 12 -4 12 -6 -2
-6 -9 -1 -23 5 -30 12 -7 8 -26 17 -41 21 -15 3 -27 11 -27 16 0 15 23 12 50
-7z m-689 -26 c-10 -9 -11 -8 -5 6 3 10 9 15 12 12 3 -3 0 -11 -7 -18z m-1637
-216 c3 -5 -1 -14 -9 -21 -10 -9 -15 -9 -15 -1 0 6 -12 11 -26 11 -14 0 -23 4
-19 10 8 12 62 13 69 1z m2491 -16 c153 -62 310 -170 431 -297 183 -194 349
-494 428 -775 31 -109 31 -106 9 -95 -10 5 -22 8 -28 6 -5 -2 -27 42 -47 99
-94 260 -122 325 -212 482 -16 28 -70 109 -76 115 -3 3 -21 25 -39 50 -58 77
-193 200 -269 245 -40 24 -121 64 -180 90 -100 45 -152 77 -152 97 0 17 74 7
135 -17z m-2619 -10 c-15 -8 -34 -15 -40 -15 -14 0 -138 -73 -178 -104 -14
-12 -41 -32 -59 -46 -36 -28 -59 -49 -59 -56 0 -8 7 -4 36 22 16 14 43 32 60
39 17 8 36 21 44 29 7 9 19 16 26 16 8 0 14 6 15 13 0 9 2 9 6 0 5 -13 -45
-61 -107 -103 -51 -34 -248 -229 -256 -252 -7 -22 -24 -24 -24 -2 0 12 -7 8
-22 -12 -12 -16 -25 -31 -29 -34 -3 -3 -9 -15 -13 -27 -4 -13 -12 -23 -17 -23
-15 0 -10 -27 7 -45 15 -15 15 -17 -5 -22 -11 -3 -21 -10 -21 -15 0 -5 -8 -7
-19 -3 -16 5 -28 -14 -79 -117 -79 -159 -109 -237 -168 -435 -9 -32 -24 -8
-24 37 0 93 136 417 252 601 94 149 246 328 336 396 100 75 290 171 342 172
25 1 25 1 -4 -14z m1768 -23 c-5 -4 -10 -17 -10 -30 0 -17 5 -22 18 -19 10 3
18 1 18 -4 0 -11 -31 -12 -45 -1 -14 10 -18 62 -4 62 6 0 8 7 5 18 -7 16 -6
16 11 -1 12 -12 14 -20 7 -25z m-921 -2 c10 -9 -12 -47 -32 -55 -17 -7 -51 3
-51 15 0 5 5 21 10 35 9 23 14 26 38 20 15 -3 31 -10 35 -15z m3618 -170 c186
-134 373 -181 725 -182 190 -1 201 -2 197 -19 -5 -16 -7 -17 -20 -3 -14 14
-18 13 -42 -10 -29 -28 -47 -33 -53 -15 -3 9 -9 9 -24 1 -16 -9 -26 -7 -44 5
-21 15 -23 15 -32 0 -7 -13 -19 -15 -61 -10 -28 3 -56 9 -62 13 -5 5 -23 6
-40 5 -16 -2 -63 1 -104 6 -45 7 -77 7 -83 1 -6 -6 -23 -2 -46 9 -20 11 -45
19 -55 19 -10 0 -28 5 -40 12 -12 6 -35 12 -52 14 -16 2 -61 19 -100 38 -101
50 -155 105 -155 156 0 25 0 25 91 -40z m-6260 0 c14 0 -62 -65 -98 -84 -18
-9 -39 -16 -48 -16 -10 0 -29 -8 -43 -18 -35 -23 -112 -48 -192 -63 -36 -6
-86 -18 -112 -25 -44 -13 -293 -23 -393 -15 -68 5 -215 33 -215 40 0 4 100 5
223 3 178 -4 244 -1 327 13 166 27 311 82 460 175 l65 41 8 -26 c5 -14 13 -25
18 -25z m1059 20 c-20 -13 -33 -13 -25 0 3 6 14 10 23 10 15 0 15 -2 2 -10z
m4041 -80 c154 -53 253 -117 321 -211 38 -52 56 -69 74 -69 30 0 31 -16 3 -25
-16 -5 -28 1 -50 27 -15 18 -28 36 -29 41 0 4 -6 7 -13 7 -8 0 -22 9 -33 21
-10 11 -84 52 -164 91 -80 39 -164 80 -188 92 -23 11 -49 30 -57 42 -13 21
-13 21 29 13 23 -4 71 -17 107 -29z m-3907 11 c3 -5 -40 -26 -97 -47 -160 -59
-220 -90 -278 -141 -30 -26 -57 -52 -61 -58 -4 -5 -9 -7 -12 -4 -10 9 24 68
58 103 80 79 365 187 390 147z m-2414 -109 c0 -13 -12 -22 -22 -16 -10 6 -1
24 13 24 5 0 9 -4 9 -8z m60 4 c0 -15 -14 -35 -21 -30 -15 9 -10 34 6 34 8 0
15 -2 15 -4z m37 -32 c-9 -9 -28 6 -21 18 4 6 10 6 17 -1 6 -6 8 -13 4 -17z
m8353 -9 c0 -8 -4 -15 -10 -15 -5 0 -10 7 -10 15 0 8 5 15 10 15 6 0 10 -7 10
-15z m-1547 -54 c118 -81 236 -257 270 -401 24 -105 36 -171 42 -235 5 -47 3
-57 -7 -47 -23 23 -28 12 -28 -67 0 -43 -3 -106 -6 -140 -7 -60 -8 -61 -37
-61 -27 0 -29 2 -22 28 12 41 20 182 20 327 -1 119 -11 187 -34 233 -5 9 -14
29 -21 44 -7 15 -16 25 -21 23 -4 -3 -5 5 -3 17 2 13 2 17 -2 11 -10 -23 -21
-14 -18 15 2 15 1 21 -2 14 -5 -10 -10 -8 -21 7 -8 12 -11 26 -7 33 4 6 3 8
-4 4 -6 -4 -25 14 -43 41 -18 27 -39 54 -46 61 -7 7 -13 16 -13 20 0 4 -10 19
-23 34 -74 87 -75 91 -42 78 15 -6 45 -23 68 -39z m-5143 14 c0 -3 -11 -18
-25 -33 -14 -15 -25 -32 -25 -38 0 -16 -25 -25 -38 -12 -6 6 -12 6 -16 -1 -4
-6 0 -11 8 -11 23 0 20 -13 -9 -44 -14 -15 -25 -29 -25 -32 0 -3 -10 -20 -22
-37 -33 -47 -56 -95 -82 -172 -45 -131 -51 -173 -51 -365 0 -102 -2 -158 -5
-125 -3 36 -8 55 -13 47 -5 -7 -11 -10 -15 -8 -4 2 -7 -29 -7 -70 0 -41 -4
-74 -9 -74 -6 0 -11 7 -13 17 -28 144 -31 345 -7 472 26 138 88 275 166 364
18 20 65 57 103 81 69 44 85 51 85 41z m5618 -28 c35 -29 32 -114 -5 -142 -48
-37 -133 3 -133 62 1 79 83 126 138 80z m-6082 7 c25 -7 54 -53 54 -87 0 -32
-28 -64 -61 -72 -21 -5 -34 1 -63 28 -76 72 -30 158 70 131z m2011 -56 c-3 -7
-5 -2 -5 12 0 14 2 19 5 13 2 -7 2 -19 0 -25z m-2257 -12 c0 -8 -22 -22 -52
-32 -29 -9 -57 -20 -63 -24 -5 -4 -21 -10 -35 -13 -14 -3 -50 -13 -80 -22 -57
-17 -348 -47 -433 -45 -32 1 -46 -3 -45 -11 2 -6 -3 -14 -9 -16 -7 -3 -13 2
-13 11 0 18 6 17 -122 18 -54 0 -100 3 -103 8 -6 10 79 18 270 26 186 7 361
33 530 77 153 41 155 41 155 23z m6610 -12 c67 -20 193 -48 280 -63 75 -14
390 -40 500 -42 84 -2 69 -5 -72 -14 -66 -5 -97 -11 -95 -18 1 -7 -7 -12 -18
-12 -11 0 -25 -3 -32 -8 -6 -4 -15 -3 -18 3 -4 7 -11 7 -18 2 -10 -7 -150 -9
-167 -2 -11 5 -27 7 -63 8 -21 1 -36 6 -33 11 9 13 -14 28 -56 35 -21 4 -39 2
-43 -4 -10 -17 -45 -12 -39 5 5 12 0 14 -27 9 -26 -4 -30 -3 -19 5 11 8 5 9
-25 4 -36 -6 -39 -5 -26 10 12 15 11 17 -7 17 -11 0 -29 3 -39 6 -15 5 -15 4
-3 -5 13 -9 11 -11 -7 -11 -16 0 -20 5 -16 19 3 13 -2 20 -19 24 -13 4 -24 2
-26 -3 -2 -6 -11 -10 -19 -10 -13 0 -13 3 -3 15 10 12 10 18 -1 32 -13 15 -11
16 21 10 19 -4 60 -14 90 -23z m-5723 -1 c4 -10 -2 -23 -16 -35 -42 -33 -55
-17 -23 27 20 29 30 31 39 8z m2252 -11 c8 -14 2 -32 -25 -76 -18 -31 -34 -60
-34 -63 0 -4 -9 -26 -20 -50 -11 -24 -28 -62 -39 -85 -10 -24 -26 -59 -35 -80
-9 -20 -16 -41 -16 -46 0 -6 -7 -23 -15 -39 -23 -46 -101 -212 -133 -288 -45
-103 -149 -301 -195 -369 -44 -65 -148 -176 -165 -176 -24 0 -20 20 11 61 18
24 54 78 78 119 155 256 186 312 224 399 24 53 62 137 85 186 23 50 55 117 70
150 15 33 36 80 48 105 41 91 64 146 83 200 25 70 57 92 78 52z m282 -22 c5
-8 26 -60 48 -115 55 -140 295 -627 414 -838 38 -67 53 -90 124 -189 35 -48
63 -92 63 -97 0 -5 -7 -14 -15 -21 -17 -14 -15 -17 -108 97 -107 130 -193 265
-277 438 -187 386 -193 398 -266 578 -55 134 -57 172 -10 165 10 -2 23 -10 27
-18z m-4486 -70 c-3 -5 -11 -10 -16 -10 -6 0 -7 5 -4 10 3 6 11 10 16 10 6 0
7 -4 4 -10z m2133 -46 c-54 -46 -161 -119 -219 -149 -58 -31 -41 -7 32 42 39
26 99 71 133 100 34 29 71 52 84 52 20 1 16 -6 -30 -45z m5778 27 c-3 -5 -15
-7 -26 -4 -28 7 -25 13 6 13 14 0 23 -4 20 -9z m442 -23 c-6 -18 -28 -21 -28
-4 0 9 7 16 16 16 9 0 14 -5 12 -12z m-5618 -18 c0 -8 -51 -40 -65 -40 -15 0
-2 21 23 34 32 18 42 19 42 6z m3240 -10 c86 -44 170 -159 219 -299 28 -79 28
-82 8 -79 -13 2 -32 26 -57 74 -20 38 -60 100 -88 136 -51 65 -154 158 -176
158 -16 1 25 30 41 30 8 0 31 -9 53 -20z m-3610 -4 c0 -2 -3 -11 -6 -20 -9
-23 -24 -20 -24 4 0 11 7 20 15 20 8 0 15 -2 15 -4z m264 -33 c-7 -16 -14 -33
-14 -40 0 -7 -6 -16 -14 -20 -25 -14 -87 -114 -107 -172 -25 -74 -48 -115 -70
-130 -24 -14 -24 -5 1 68 37 112 97 218 159 284 43 45 67 50 45 10z m1740 -34
c32 -25 34 -66 5 -103 -21 -27 -21 -31 -25 -828 -2 -542 -6 -804 -13 -811 -8
-8 -11 -4 -12 14 -1 19 -4 15 -14 -16 -11 -35 -13 -10 -20 219 -4 143 -6 516
-3 829 l4 570 -23 23 c-30 30 -29 69 2 99 30 30 64 32 99 4z m-1406 -20 c2
-15 -5 -32 -17 -43 -16 -15 -22 -15 -40 -4 -27 17 -27 43 2 63 30 21 51 15 55
-16z m2790 9 c35 -35 -4 -82 -48 -58 -19 10 -28 49 -13 63 11 11 48 8 61 -5z
m-2056 -166 c0 -48 3 -81 5 -74 3 6 8 10 13 7 4 -3 2 -31 -7 -63 -8 -31 -16
-68 -17 -82 -2 -14 -4 -31 -4 -37 -1 -7 -7 -13 -13 -13 -5 0 -7 5 -4 10 3 6 2
10 -4 10 -16 0 -23 -20 -12 -34 8 -10 8 -16 -3 -25 -11 -9 -15 -9 -19 1 -2 7
-2 0 1 -17 4 -25 2 -28 -10 -18 -11 10 -16 8 -26 -8 -7 -11 -8 -19 -2 -19 5 0
10 6 11 13 0 9 2 9 6 -1 3 -7 -2 -21 -10 -30 -8 -9 -23 -33 -34 -52 -38 -70
-98 -157 -162 -235 -71 -87 -286 -306 -339 -345 -19 -14 -49 -39 -67 -57 -24
-22 -42 -31 -64 -29 -16 1 -27 -2 -24 -7 3 -5 -4 -6 -16 -2 -11 3 -21 2 -21
-3 0 -6 -11 -13 -25 -16 -14 -4 -25 -11 -25 -16 0 -6 -4 -10 -9 -10 -6 0 -22
-11 -37 -25 -15 -14 -31 -25 -35 -25 -14 0 -219 -129 -281 -176 -85 -66 -92
-53 -13 24 42 41 141 115 249 186 206 135 266 180 391 291 234 209 344 343
449 548 73 142 113 256 121 342 4 33 9 71 11 85 11 50 26 -8 26 -98z m1271 12
c20 -122 52 -209 129 -347 118 -213 246 -363 463 -541 101 -83 359 -270 469
-340 66 -42 166 -133 166 -150 0 -6 9 -19 20 -29 11 -9 20 -22 20 -29 0 -6
-11 -1 -25 12 -21 20 -28 22 -50 12 -13 -6 -27 -7 -29 -3 -3 5 -20 11 -37 15
-17 3 -43 16 -58 28 -16 13 -45 37 -66 53 -22 17 -49 40 -62 53 -13 13 -23 19
-24 15 0 -4 -4 2 -9 15 -6 13 -18 22 -30 22 -20 0 -20 1 -6 16 21 20 20 30 -1
37 -19 6 -244 161 -304 209 -19 15 -68 53 -109 86 -41 32 -99 86 -128 119 -28
34 -74 84 -101 113 -27 29 -56 66 -64 84 -9 17 -31 63 -50 101 -19 39 -38 81
-42 95 -13 47 -57 134 -76 149 -20 18 -49 143 -49 215 0 47 14 96 27 96 5 0
16 -48 26 -106z m-3696 49 c11 -34 -359 -169 -770 -281 -82 -22 -140 -22 -145
1 -3 13 3 17 24 17 83 0 499 122 649 190 24 11 48 20 53 20 4 0 40 16 78 35
69 35 104 40 111 18z m5649 1 c43 -12 57 -86 24 -122 -31 -33 -83 -30 -109 7
-42 59 -20 103 59 120 3 0 15 -2 26 -5z m539 -13 c24 -19 470 -169 610 -205
113 -30 208 -57 218 -63 4 -3 3 -10 -3 -17 -8 -11 -19 -11 -58 -1 -100 27
-373 108 -447 135 -124 44 -399 112 -421 103 -18 -7 -20 53 -1 61 15 7 88 -2
102 -13z m-5652 -23 c17 -23 19 -32 9 -52 -15 -33 -70 -49 -94 -29 -9 8 -22
12 -27 8 -11 -6 -16 13 -12 49 5 60 86 75 124 24z m931 -14 c7 -19 -10 -44
-29 -44 -19 0 -36 25 -29 44 3 9 16 16 29 16 13 0 26 -7 29 -16z m476 -4 c-23
-20 -50 -27 -50 -12 0 9 39 29 59 31 8 1 5 -7 -9 -19z m2728 -13 c2 -9 -4 -20
-13 -23 -20 -8 -50 19 -40 36 10 17 49 8 53 -13z m-2181 -59 c-2 -13 -4 -5 -4
17 -1 22 1 32 4 23 2 -10 2 -28 0 -40z m1569 -26 c36 -24 33 -91 -6 -112 -27
-14 -70 23 -70 60 0 40 46 72 76 52z m-1589 -34 c-3 -7 -5 -2 -5 12 0 14 2 19
5 13 2 -7 2 -19 0 -25z m3200 0 c-3 -8 -6 -5 -6 6 -1 11 2 17 5 13 3 -3 4 -12
1 -19z m-3572 -17 c3 -5 1 -12 -5 -16 -5 -3 -10 1 -10 9 0 18 6 21 15 7z m-28
-47 c-3 -3 -12 -4 -19 -1 -8 3 -5 6 6 6 11 1 17 -2 13 -5z m4194 -38 c169 -55
216 -74 417 -174 72 -36 132 -69 132 -74 0 -4 -9 -17 -20 -28 -25 -25 -60 -27
-60 -3 0 9 -3 14 -6 10 -3 -3 -18 5 -33 19 -47 44 -230 123 -401 174 -58 17
-115 36 -127 42 -11 6 -26 7 -32 4 -6 -4 -11 0 -11 9 0 21 18 55 29 55 5 0 55
-15 112 -34z m-6301 17 c0 -19 -77 -57 -191 -94 -68 -23 -128 -45 -134 -49 -5
-4 -26 -13 -45 -18 -19 -6 -80 -31 -135 -55 -186 -84 -217 -72 -37 15 168 81
216 102 317 141 159 61 225 79 225 60z m4368 -45 c102 -87 97 -69 97 -335 0
-203 -7 -278 -22 -235 -3 6 -11 12 -19 12 -10 0 -14 15 -15 58 -4 260 -9 371
-18 394 -5 14 -34 46 -65 70 -56 44 -70 63 -60 79 12 20 43 7 102 -43z m-2478
32 c0 -5 -5 -10 -11 -10 -22 0 -97 -70 -107 -100 -7 -18 -7 -30 -1 -30 10 0
12 -208 3 -323 -4 -43 -11 -77 -15 -77 -5 0 -9 10 -9 23 l0 22 -19 -24 c-18
-23 -18 -21 -24 114 -10 198 -9 260 5 291 8 16 45 48 87 76 75 49 91 56 91 38z
m1033 -4 c10 -8 21 -30 24 -50 5 -31 1 -40 -28 -69 -28 -28 -33 -39 -28 -63
11 -47 10 -152 -1 -159 -15 -9 -13 -125 3 -126 9 0 9 -2 -1 -6 -9 -3 -3 -15
18 -39 37 -43 40 -89 8 -124 -12 -13 -23 -35 -24 -50 -2 -14 -3 -27 -4 -30 -3
-9 -6 -61 -10 -180 l-4 -115 -6 160 c-3 88 -3 164 1 168 3 4 -9 23 -27 41 -43
43 -43 75 -3 120 l30 35 -5 171 c-5 168 -6 172 -31 197 -66 67 14 175 88 119z
m404 -8 c13 -12 23 -31 23 -43 0 -31 -37 -75 -63 -75 -16 0 -18 -3 -9 -12 8
-8 12 -49 12 -118 0 -88 -3 -107 -15 -107 -12 0 -15 20 -15 117 0 111 -1 118
-25 140 -31 29 -33 72 -5 100 26 26 68 25 97 -2z m2670 -60 c-2 -18 -4 -6 -4
27 0 33 2 48 4 33 2 -15 2 -42 0 -60z m-417 38 c0 -38 -24 -66 -42 -48 -8 8
-8 15 0 25 6 7 9 23 5 35 -4 18 -1 22 16 22 17 0 21 -6 21 -34z m-4960 -16 c0
-11 -4 -20 -10 -20 -5 0 -10 9 -10 20 0 11 5 20 10 20 6 0 10 -9 10 -20z
m1511 -80 c15 0 10 -57 -6 -64 -26 -9 -45 5 -45 33 0 32 9 44 28 36 7 -3 18
-5 23 -5z m2899 -5 c10 -12 9 -15 -6 -15 -30 0 -64 12 -64 21 0 15 57 10 70
-6z m-4780 -75 c0 -5 -5 -10 -11 -10 -5 0 -7 5 -4 10 3 6 8 10 11 10 2 0 4 -4
4 -10z m1218 -6 c41 -28 19 -104 -30 -104 -17 0 -28 5 -28 14 0 7 -7 19 -15
26 -20 16 -19 39 2 62 20 22 42 23 71 2z m3300 4 c7 -7 12 -26 12 -43 0 -37
-16 -55 -47 -55 -26 0 -63 36 -63 61 0 40 69 66 98 37z m-4928 -33 c0 -9 -9
-15 -25 -15 -24 0 -32 10 -18 23 12 13 43 7 43 -8z m6536 -2 c15 -16 15 -17
-2 -24 -24 -8 -44 -1 -44 16 0 7 6 16 13 18 6 3 13 6 14 6 1 1 9 -7 19 -16z
m-4428 -5 c24 -24 13 -38 -28 -38 -26 0 -40 5 -40 13 0 18 21 37 40 37 9 0 21
-5 28 -12z m2324 -5 c26 -30 32 -81 12 -104 -24 -26 -38 -24 -68 12 -25 30
-32 61 -20 93 8 22 57 20 76 -1z m-1523 -79 c29 -37 27 -51 -18 -95 -21 -22
-35 -39 -30 -39 5 0 9 -165 8 -377 0 -208 -2 -373 -4 -368 -2 6 -7 28 -11 50
l-8 40 -6 -60 c-4 -33 -7 119 -8 338 -2 311 1 397 11 398 9 0 9 2 -1 6 -16 6
-42 56 -42 82 0 53 74 69 109 25z m755 5 c32 -25 35 -68 6 -94 -19 -17 -20
-32 -22 -414 -1 -218 -4 -357 -5 -308 -4 86 -18 117 -26 55 -2 -18 -5 120 -5
308 l-2 340 -25 22 c-33 29 -32 65 1 91 15 12 32 21 39 21 7 0 24 -9 39 -21z
m1585 -15 c138 -31 228 -54 374 -96 85 -24 107 -34 107 -49 0 -25 -33 -27
-115 -6 -128 33 -299 75 -375 92 -134 30 -179 53 -153 78 11 12 41 8 162 -19z
m-3840 7 c26 -17 -6 -39 -62 -44 -65 -6 -268 -51 -322 -71 -22 -9 -69 -18
-105 -21 -36 -4 -78 -11 -95 -15 -51 -15 -135 -47 -142 -54 -3 -3 -14 -6 -24
-6 -12 0 -16 -5 -13 -15 9 -22 -9 -18 -24 6 -7 12 -12 22 -10 23 13 11 125 57
178 74 159 51 403 110 505 122 88 11 99 11 114 1z m-1608 -44 c19 -14 33 -53
24 -66 -7 -13 -33 -3 -69 26 -24 19 -26 25 -16 38 15 18 39 19 61 2z m6959
-22 c16 -18 21 -31 16 -49 -7 -30 -22 -33 -47 -10 -17 15 -20 15 -43 0 -23
-15 -25 -15 -31 5 -10 31 2 65 27 76 29 13 51 7 78 -22z m-5067 -69 c1 -6 -24
-20 -56 -33 -84 -34 -221 -131 -320 -227 -32 -31 -60 -56 -63 -56 -29 0 134
156 246 235 113 80 187 110 193 81z m3296 -94 c131 -87 277 -225 311 -292 l22
-45 -33 30 c-18 17 -51 49 -73 73 -47 52 -214 187 -250 203 -14 7 -26 15 -26
19 0 11 -147 73 -158 66 -12 -7 -23 17 -14 31 23 35 68 18 221 -85z m-1514 54
c35 -35 42 -72 18 -103 -32 -44 -60 -48 -94 -14 -36 36 -37 70 -3 110 31 37
47 39 79 7z m-1575 -46 c0 -5 -4 -10 -9 -10 -6 0 -13 5 -16 10 -3 6 1 10 9 10
9 0 16 -4 16 -10z m-816 -86 c23 -22 20 -31 -14 -49 -44 -23 -60 -19 -60 13 0
49 42 69 74 36z m4376 -40 c0 -10 -10 -13 -33 -11 -62 7 -74 27 -29 51 25 14
28 14 45 -6 9 -11 17 -27 17 -34z m-2770 11 c8 -10 10 -37 5 -92 -7 -75 -22
-129 -26 -93 -1 8 -5 -1 -8 -20 -4 -19 -3 -43 2 -54 6 -13 5 -21 -4 -27 -17
-10 -26 23 -28 102 0 31 -8 73 -16 94 -17 39 -12 72 14 92 22 17 46 16 61 -2z
m1160 -33 c29 -24 29 -66 0 -98 -29 -29 -34 -30 -71 -3 -25 18 -30 27 -27 57
2 27 9 40 28 49 34 17 44 16 70 -5z m-2970 -2 c0 -5 -9 -10 -20 -10 -32 0
-201 -75 -314 -139 -21 -12 -41 -20 -44 -17 -13 14 83 68 278 159 39 18 100
22 100 7z m3316 -1 c8 -14 6 -635 -3 -838 -4 -107 -9 -139 -16 -125 -10 18
-11 17 -18 -6 -4 -14 -8 29 -8 95 -1 66 -6 289 -11 495 -5 206 -6 378 -4 382
8 12 52 10 60 -3z m1506 -3 c180 -78 194 -85 214 -107 16 -18 16 -19 -2 -19
-10 0 -30 9 -44 20 -14 11 -31 20 -37 20 -7 0 -13 4 -13 9 0 6 -20 13 -45 17
-25 3 -42 10 -39 15 3 5 -6 9 -20 9 -14 0 -28 5 -31 10 -4 6 -11 8 -16 4 -16
-10 -69 7 -69 22 0 19 59 19 102 0z m-3358 -18 c8 -14 6 -26 -8 -53 -17 -31
-39 -49 -34 -27 1 4 -4 20 -10 35 -14 32 -15 51 -5 61 12 12 45 2 57 -16z
m3081 12 c3 -5 -1 -10 -9 -10 -9 0 -16 5 -16 10 0 6 4 10 9 10 6 0 13 -4 16
-10z m31 -17 c-10 -10 -19 5 -10 18 6 11 8 11 12 0 2 -7 1 -15 -2 -18z m-388
-125 c17 -17 15 -38 -4 -59 -13 -14 -21 -16 -35 -8 -24 12 -25 55 -1 68 22 13
26 13 40 -1z m-3613 -20 c32 -14 33 -38 1 -38 -26 0 -51 24 -41 40 8 13 8 13
40 -2z m2934 -7 c13 -23 -3 -77 -24 -85 -17 -6 -45 30 -45 59 0 43 50 62 69
26z m-1881 -23 c2 -19 -2 -28 -17 -33 -27 -8 -41 1 -41 29 0 29 9 38 35 34 13
-2 21 -12 23 -30z m1514 21 c2 -6 2 -26 0 -45 -3 -28 -9 -34 -27 -34 -25 0
-41 37 -30 71 7 21 51 27 57 8z m-2158 -14 c-4 -8 -16 -15 -28 -15 -21 1 -21
1 -2 15 25 19 37 19 30 0z m284 3 c16 -16 15 -49 -3 -75 -10 -14 -18 -55 -21
-110 -3 -48 -7 -90 -10 -92 -2 -2 -4 37 -4 87 0 50 -4 93 -9 96 -14 9 -21 66
-11 87 12 21 40 25 58 7z m-358 -12 c0 -3 -4 -8 -10 -11 -5 -3 -10 -1 -10 4 0
6 5 11 10 11 6 0 10 -2 10 -4z m-23 -52 c-3 -3 -12 -4 -19 -1 -8 3 -5 6 6 6
11 1 17 -2 13 -5z m4006 -21 c-7 -2 -19 -2 -25 0 -7 3 -2 5 12 5 14 0 19 -2
13 -5z m-3797 -68 c13 -20 14 -30 4 -62 -20 -63 -34 -64 -64 -6 -20 40 -20 57
0 77 22 23 41 20 60 -9z m2602 -29 c3 -38 -8 -56 -35 -56 -21 0 -46 48 -39 76
6 21 11 25 39 22 29 -3 32 -6 35 -42z m-1141 -88 c-2 -13 -4 -5 -4 17 -1 22 1
32 4 23 2 -10 2 -28 0 -40z m-1658 6 c35 -29 41 -75 16 -108 -12 -16 -15 -57
-15 -198 0 -98 -2 -178 -4 -178 -2 0 -11 3 -20 6 -14 5 -16 29 -16 160 0 142
-9 204 -30 204 -13 0 -30 54 -25 80 4 24 38 60 55 60 5 0 22 -12 39 -26z
m3006 -9 c14 -13 25 -31 25 -40 0 -22 -20 -58 -36 -68 -11 -6 -14 -39 -15
-130 -2 -131 -4 -130 -16 8 l-8 90 -6 -75 -5 -75 -2 78 c-2 67 -6 83 -27 111
-30 40 -32 75 -5 104 27 29 65 28 95 -3z m-1168 -27 c-3 -8 -6 -5 -6 6 -1 11
2 17 5 13 3 -3 4 -12 1 -19z m1493 2 c0 -5 -2 -10 -4 -10 -3 0 -8 5 -11 10 -3
6 -1 10 4 10 6 0 11 -4 11 -10z m90 -80 c0 -5 -4 -10 -10 -10 -5 0 -10 5 -10
10 0 6 5 10 10 10 6 0 10 -4 10 -10z"/>
<path d="M5851 9614 c0 -11 3 -14 6 -6 3 7 2 16 -1 19 -3 4 -6 -2 -5 -13z"/>
<path d="M6000 9044 c0 -8 5 -12 10 -9 6 4 8 11 5 16 -9 14 -15 11 -15 -7z"/>
<path d="M6095 9040 c3 -5 11 -10 16 -10 6 0 7 5 4 10 -3 6 -11 10 -16 10 -6
0 -7 -4 -4 -10z"/>
<path d="M6060 9019 c0 -5 5 -7 10 -4 6 3 10 8 10 11 0 2 -4 4 -10 4 -5 0 -10
-5 -10 -11z"/>
<path d="M6075 8960 c-3 -5 -1 -10 4 -10 6 0 11 5 11 10 0 6 -2 10 -4 10 -3 0
-8 -4 -11 -10z"/>
<path d="M7083 10768 c-31 -35 -35 -46 -23 -68 23 -43 100 -9 100 45 0 22 -24
45 -48 45 -5 0 -18 -10 -29 -22z"/>
<path d="M4133 10778 c-12 -6 -24 -17 -27 -25 -13 -34 37 -80 74 -68 24 8 27
60 6 88 -15 19 -22 20 -53 5z"/>
<path d="M3276 10394 c-33 -32 -11 -104 32 -104 29 0 62 30 62 56 0 29 -32 64
-59 64 -11 0 -27 -7 -35 -16z"/>
<path d="M3972 10350 c-24 -23 -29 -59 -10 -78 30 -30 118 6 118 48 0 22 -36
50 -65 50 -12 0 -31 -9 -43 -20z"/>
<path d="M4117 10169 c-23 -13 -47 -62 -47 -94 0 -41 26 -82 60 -94 78 -27
155 47 130 124 -21 62 -91 94 -143 64z"/>
<path d="M3274 9852 c-54 -36 -27 -132 37 -132 55 0 91 87 51 123 -19 17 -68
22 -88 9z"/>
<path d="M4565 9635 c-42 -41 -24 -95 31 -95 66 0 88 60 38 99 -34 27 -40 26
-69 -4z"/>
<path d="M3597 9192 c-35 -38 -8 -92 47 -92 19 0 29 7 36 26 23 58 -43 110
-83 66z"/>
<path d="M7921 10386 c-7 -8 -11 -30 -9 -48 6 -66 88 -69 96 -3 6 50 -57 87
-87 51z"/>
<path d="M7220 10367 c-27 -14 -46 -56 -37 -81 4 -9 18 -21 32 -26 48 -18 84
21 71 75 -9 34 -36 47 -66 32z"/>
<path d="M7042 10154 c-12 -8 -29 -29 -38 -45 -20 -39 -5 -91 32 -108 34 -15
95 -14 117 3 22 17 38 72 31 103 -14 54 -94 81 -142 47z"/>
<path d="M7896 9838 c-32 -45 -19 -79 37 -103 35 -14 38 -14 57 5 11 11 20 33
20 50 0 60 -82 95 -114 48z"/>
<path d="M6606 9638 c-34 -48 -10 -98 48 -98 40 0 56 15 56 55 0 60 -72 89
-104 43z"/>
<path d="M7586 9194 c-40 -40 -26 -104 23 -104 36 0 61 28 61 68 0 47 -51 69
-84 36z"/>
<path d="M5146 9062 c-3 -5 5 -8 17 -8 17 1 23 -6 25 -26 3 -24 0 -28 -21 -28
-15 0 -28 8 -35 23 -9 20 -11 18 -11 -20 -1 -32 4 -45 18 -53 31 -16 66 -12
86 10 23 25 25 87 5 101 -19 11 -77 12 -84 1z"/>
<path d="M4140 9123 c-26 -10 -60 -46 -60 -64 0 -10 -4 -21 -10 -24 -16 -10
-12 -71 7 -103 36 -62 124 -82 189 -42 45 28 71 95 55 143 -24 71 -112 115
-181 90z"/>
<path d="M7030 9113 c-28 -11 -68 -64 -74 -99 -25 -130 166 -198 249 -88 22
29 19 106 -6 138 -37 48 -114 70 -169 49z"/>
<path d="M2452 9610 c-77 -47 -65 -152 22 -197 84 -44 185 61 141 147 -19 36
-69 70 -105 70 -14 0 -40 -9 -58 -20z"/>
<path d="M1711 9066 c-72 -41 -64 -143 14 -180 32 -16 38 -16 69 -1 61 29 75
104 29 155 -33 35 -78 46 -112 26z"/>
<path d="M2815 9017 c-16 -48 -8 -67 30 -67 32 0 35 3 35 29 0 23 -6 31 -30
40 -23 8 -32 7 -35 -2z"/>
<path d="M1281 8411 c-12 -12 -21 -28 -21 -36 0 -29 24 -66 48 -72 31 -7 53 5
71 42 12 25 12 32 0 54 -19 35 -70 40 -98 12z"/>
<path d="M9433 9046 c-22 -19 -28 -33 -28 -64 0 -69 58 -112 121 -92 69 23 86
99 35 151 -38 37 -88 39 -128 5z"/>
<path d="M8404 9036 c-3 -8 -4 -31 -2 -52 3 -38 4 -39 43 -39 l40 0 -3 40 c-1
22 -5 46 -7 53 -6 17 -64 15 -71 -2z"/>
<path d="M9861 8414 c-27 -34 -26 -54 0 -89 18 -22 27 -26 53 -21 38 8 56 30
56 71 0 63 -71 88 -109 39z"/>
<path d="M4372 8680 c-39 -24 -72 -75 -72 -111 0 -37 26 -96 48 -108 62 -33
164 -15 196 34 23 35 21 110 -5 146 -41 59 -109 74 -167 39z"/>
<path d="M6755 8677 c-75 -43 -88 -121 -30 -186 48 -53 85 -67 136 -52 22 7
53 26 69 43 25 26 30 39 30 83 0 111 -105 169 -205 112z"/>
<path d="M5022 8160 c0 -14 2 -19 5 -12 2 6 2 18 0 25 -3 6 -5 1 -5 -13z"/>
<path d="M5030 7984 c-8 -8 -13 -28 -13 -44 0 -16 5 -36 13 -44 17 -22 63 -20
83 2 24 26 22 79 -2 92 -29 15 -67 12 -81 -6z"/>
<path d="M6248 8193 c-19 -23 -12 -50 13 -58 22 -7 49 10 49 31 0 14 -27 44
-39 44 -4 0 -15 -8 -23 -17z"/>
<path d="M6138 7975 c-17 -38 6 -85 43 -85 42 0 66 39 49 80 -10 25 -18 30
-46 30 -27 0 -37 -5 -46 -25z"/>
<path d="M1592 7704 c-30 -20 -30 -68 0 -88 33 -23 74 -20 92 6 21 30 20 54
-4 78 -24 24 -57 26 -88 4z"/>
<path d="M2360 7450 c-20 -37 9 -90 49 -90 16 0 51 38 51 55 0 23 -37 55 -65
55 -14 0 -29 -8 -35 -20z"/>
<path d="M2706 7419 c-22 -33 0 -79 38 -79 45 0 62 52 28 83 -25 23 -48 21
-66 -4z"/>
<path d="M3821 7399 c-47 -50 -9 -85 85 -77 50 4 61 2 75 -16 20 -24 95 -28
110 -5 12 20 11 53 -3 67 -18 18 -93 15 -109 -4 -12 -14 -16 -13 -38 15 -36
42 -91 51 -120 20z"/>
<path d="M9564 7684 c-17 -25 -16 -26 14 -57 27 -27 34 -29 56 -19 33 15 42
47 22 77 -23 35 -70 34 -92 -1z"/>
<path d="M8796 7444 c-22 -21 -20 -50 4 -74 38 -38 80 -20 80 35 0 17 -5 36
-12 43 -17 17 -54 15 -72 -4z"/>
<path d="M8485 7425 c-29 -28 -31 -47 -9 -69 31 -31 84 -17 84 23 0 28 -25 71
-41 71 -5 0 -21 -11 -34 -25z"/>
<path d="M7338 7389 c-47 -32 -61 -38 -77 -29 -35 18 -69 12 -87 -16 -17 -24
-16 -26 8 -51 31 -31 74 -26 87 11 9 22 13 23 88 18 98 -5 111 4 86 66 -10 26
-22 42 -32 41 -9 0 -42 -18 -73 -40z"/>
<path d="M8635 8161 c-17 -10 -39 -30 -48 -44 -18 -28 -23 -97 -7 -97 6 0 10
-5 10 -11 0 -25 36 -38 103 -39 63 0 71 3 98 29 33 33 38 75 15 120 -31 60
-111 79 -171 42z"/>
<path d="M2807 7083 c-30 -21 -37 -33 -37 -59 0 -23 7 -38 22 -48 25 -18 99
-21 114 -6 5 5 43 14 83 20 63 9 77 8 91 -5 16 -14 20 -14 49 2 34 20 40 37
15 47 -28 11 -158 36 -185 36 -14 0 -34 9 -44 20 -25 27 -63 25 -108 -7z"/>
<path d="M4853 6999 c-34 -12 -41 -58 -13 -81 28 -23 42 -23 71 1 20 16 22 23
14 46 -12 32 -41 46 -72 34z"/>
<path d="M6335 6984 c-10 -10 -15 -29 -13 -48 3 -26 7 -31 34 -34 42 -4 71 27
53 60 -21 41 -47 49 -74 22z"/>
<path d="M2545 6689 c-16 -10 -42 -19 -57 -19 -16 0 -28 -4 -28 -10 0 -5 16
-10 35 -10 28 0 37 -5 45 -24 12 -32 46 -43 69 -22 10 9 23 16 29 16 13 0 16
29 4 45 -7 10 -59 46 -64 44 -2 0 -16 -9 -33 -20z"/>
<path d="M1762 5538 l3 -343 350 0 350 0 0 255 0 255 -34 73 c-19 40 -44 80
-55 88 -17 11 -76 14 -318 14 l-298 0 2 -342z"/>
<path d="M3597 5724 c-9 -10 -9 -1104 0 -1104 4 0 43 12 85 26 l78 27 0 498
c0 275 1 502 3 505 6 18 -151 63 -166 48z"/>
<path d="M9633 5512 c-40 -103 -102 -266 -137 -362 -36 -96 -68 -183 -71 -192
-7 -17 11 -18 290 -18 279 0 297 1 290 18 -4 9 -20 51 -35 92 -15 41 -39 104
-52 140 -14 36 -63 165 -108 288 -46 122 -88 222 -94 222 -6 0 -44 -85 -83
-188z"/>
<path d="M3893 3783 c9 -2 23 -2 30 0 6 3 -1 5 -18 5 -16 0 -22 -2 -12 -5z"/>
<path d="M7965 3580 c27 -12 43 -12 25 0 -8 5 -22 9 -30 9 -10 0 -8 -3 5 -9z"/>
<path d="M8148 3523 c7 -3 16 -2 19 1 4 3 -2 6 -13 5 -11 0 -14 -3 -6 -6z"/>
<path d="M5860 3656 c0 -2 7 -9 15 -16 13 -11 14 -10 9 4 -5 14 -24 23 -24 12z"/>
<path d="M3510 2400 c-12 -8 -10 -10 8 -10 13 0 20 4 17 10 -7 12 -6 12 -25 0z"/>
<path d="M3930 3430 c0 -5 5 -10 11 -10 5 0 7 5 4 10 -3 6 -8 10 -11 10 -2 0
-4 -4 -4 -10z"/>
<path d="M3845 3330 c-3 -5 -1 -10 4 -10 6 0 11 5 11 10 0 6 -2 10 -4 10 -3 0
-8 -4 -11 -10z"/>
<path d="M3697 3126 c-4 -10 -1 -13 9 -9 7 3 14 9 14 14 0 14 -17 10 -23 -5z"/>
<path d="M4240 2919 c0 -5 5 -7 10 -4 6 3 10 8 10 11 0 2 -4 4 -10 4 -5 0 -10
-5 -10 -11z"/>
<path d="M7220 1560 c0 -5 5 -10 11 -10 5 0 7 5 4 10 -3 6 -8 10 -11 10 -2 0
-4 -4 -4 -10z"/>
<path d="M3960 2300 c0 -17 2 -19 14 -8 14 13 12 28 -5 28 -5 0 -9 -9 -9 -20z"/>
</g>
</svg>
